M48
; DRILL file {KiCad (5.1.5-0-10_14)} date 2020 April 26, Sunday 19:43:14
; FORMAT={-:-/ absolute / inch / decimal}
; #@! TF.CreationDate,2020-04-26T19:43:14+09:00
; #@! TF.GenerationSoftware,Kicad,Pcbnew,(5.1.5-0-10_14)
FMAT,2
INCH
T1C0.0100
T2C0.0256
T3C0.0276
T4C0.0394
%
G90
G05
T1
X5.2144Y-3.1309
X5.2417Y-3.1709
X5.2667Y-3.1509
X5.3417Y-3.1359
X5.3417Y-3.5559
X5.3817Y-3.1759
X5.3817Y-3.3859
X5.4467Y-3.3209
X5.5277Y-3.2926
X5.5814Y-3.0512
X5.5967Y-3.5109
T2
X5.0467Y-3.0459
X5.0467Y-3.0959
X5.0967Y-3.0459
X5.0967Y-3.0959
X5.1467Y-3.0459
X5.1467Y-3.0959
X5.1967Y-3.0459
X5.1967Y-3.0959
X5.2467Y-3.0459
X5.2467Y-3.0959
X5.2967Y-3.0459
X5.2967Y-3.0959
X5.3467Y-3.0459
X5.3467Y-3.0959
T3
X5.2912Y-3.6626
X5.2912Y-3.7126
X5.3412Y-3.6626
X5.3412Y-3.7126
X5.3912Y-3.6626
X5.3912Y-3.7126
X5.4412Y-3.6626
X5.4412Y-3.7126
X5.4912Y-3.6626
X5.4912Y-3.7126
T4
X5.0667Y-3.4259
X5.0667Y-3.3259
X5.0667Y-3.2259
T0
M30
