G04 #@! TF.GenerationSoftware,KiCad,Pcbnew,(5.1.5-0-10_14)*
G04 #@! TF.CreationDate,2020-04-26T19:43:23+09:00*
G04 #@! TF.ProjectId,STM32DebugConnector,53544d33-3244-4656-9275-67436f6e6e65,1.0*
G04 #@! TF.SameCoordinates,Original*
G04 #@! TF.FileFunction,Copper,L2,Bot*
G04 #@! TF.FilePolarity,Positive*
%FSLAX46Y46*%
G04 Gerber Fmt 4.6, Leading zero omitted, Abs format (unit mm)*
G04 Created by KiCad (PCBNEW (5.1.5-0-10_14)) date 2020-04-26 19:43:23*
%MOMM*%
%LPD*%
G04 APERTURE LIST*
%ADD10C,2.000000*%
%ADD11O,1.000000X1.000000*%
%ADD12R,1.000000X1.000000*%
%ADD13C,0.508000*%
%ADD14C,0.406400*%
%ADD15C,0.203200*%
%ADD16C,0.254000*%
G04 APERTURE END LIST*
D10*
X128695200Y-87017000D03*
X128695200Y-84477000D03*
X128695200Y-81937000D03*
D11*
X128187200Y-78635000D03*
X128187200Y-77365000D03*
X129457200Y-78635000D03*
X129457200Y-77365000D03*
X130727200Y-78635000D03*
X130727200Y-77365000D03*
X131997200Y-78635000D03*
X131997200Y-77365000D03*
X133267200Y-78635000D03*
X133267200Y-77365000D03*
X134537200Y-78635000D03*
X134537200Y-77365000D03*
X135807200Y-78635000D03*
D12*
X135807200Y-77365000D03*
D11*
X139477200Y-93031000D03*
X139477200Y-94301000D03*
X138207200Y-93031000D03*
X138207200Y-94301000D03*
X136937200Y-93031000D03*
X136937200Y-94301000D03*
X135667200Y-93031000D03*
X135667200Y-94301000D03*
X134397200Y-93031000D03*
D12*
X134397200Y-94301000D03*
D13*
X140403610Y-83632410D03*
X141767200Y-77501000D03*
X135680200Y-90319000D03*
X138347200Y-84350000D03*
X136696200Y-80667000D03*
X142157200Y-89176000D03*
X136696200Y-86001000D03*
X133775200Y-80032000D03*
X133140200Y-80540000D03*
X135680200Y-79651000D03*
X132446000Y-79524000D03*
D14*
X141767200Y-82268820D02*
X140403610Y-83632410D01*
X141767200Y-77501000D02*
X141767200Y-82268820D01*
X135667200Y-90332000D02*
X135680200Y-90319000D01*
X135667200Y-93031000D02*
X135667200Y-90332000D01*
X136632321Y-76458599D02*
X134736495Y-76458599D01*
X134736495Y-76458599D02*
X134537200Y-76657894D01*
X138347200Y-78173478D02*
X136632321Y-76458599D01*
X134537200Y-76657894D02*
X134537200Y-77365000D01*
X136696200Y-80667000D02*
X138347200Y-80667000D01*
X138347200Y-80667000D02*
X138347200Y-78173478D01*
X138347200Y-84350000D02*
X138347200Y-80667000D01*
X138982200Y-86001000D02*
X136696200Y-86001000D01*
X142157200Y-89176000D02*
X138982200Y-86001000D01*
D15*
X133775200Y-84096000D02*
X133775200Y-80032000D01*
X139490200Y-92310894D02*
X139490200Y-91081000D01*
X133775200Y-85366000D02*
X133775200Y-84096000D01*
X139490200Y-91081000D02*
X133775200Y-85366000D01*
X139477200Y-92323894D02*
X139490200Y-92310894D01*
X139477200Y-93031000D02*
X139477200Y-92323894D01*
X140282001Y-94203305D02*
X140282001Y-91110801D01*
X140184306Y-94301000D02*
X140282001Y-94203305D01*
X139477200Y-94301000D02*
X140184306Y-94301000D01*
X134537200Y-85366000D02*
X134537200Y-78635000D01*
X140282001Y-91110801D02*
X134537200Y-85366000D01*
X138207200Y-91068000D02*
X133140200Y-86001000D01*
X138207200Y-93031000D02*
X138207200Y-91068000D01*
X133140200Y-86001000D02*
X133140200Y-80540000D01*
X139954255Y-95105801D02*
X140688411Y-94371645D01*
X139012001Y-95105801D02*
X139954255Y-95105801D01*
X138207200Y-94301000D02*
X139012001Y-95105801D01*
X140688411Y-94371645D02*
X140688411Y-91081000D01*
X140688411Y-91081000D02*
X140688410Y-90942460D01*
X140688410Y-90942460D02*
X135713575Y-85967625D01*
X135713575Y-79684375D02*
X135680200Y-79651000D01*
X135713575Y-85967625D02*
X135713575Y-79684375D01*
X133485019Y-95512211D02*
X132779579Y-94806771D01*
X135737845Y-95512211D02*
X133485019Y-95512211D01*
X136937200Y-94301000D02*
X136937200Y-94312856D01*
X136937200Y-94312856D02*
X135737845Y-95512211D01*
X132779579Y-94806771D02*
X132779579Y-87364629D01*
X130727200Y-85312250D02*
X130727200Y-78635000D01*
X132779579Y-87364629D02*
X130727200Y-85312250D01*
X133653359Y-95105801D02*
X133185989Y-94638431D01*
X133185989Y-94638431D02*
X133185989Y-87196289D01*
X135667200Y-95008106D02*
X135569505Y-95105801D01*
X135569505Y-95105801D02*
X133653359Y-95105801D01*
X135667200Y-94301000D02*
X135667200Y-95008106D01*
X131497201Y-79134999D02*
X131997200Y-78635000D01*
X131497201Y-85507501D02*
X131497201Y-79134999D01*
X133185989Y-87196289D02*
X131497201Y-85507501D01*
X133592399Y-94199399D02*
X133592399Y-87027949D01*
X133592399Y-87027949D02*
X132446000Y-85881550D01*
X133694000Y-94301000D02*
X133592399Y-94199399D01*
X134397200Y-94301000D02*
X133694000Y-94301000D01*
X132446000Y-85881550D02*
X132446000Y-79524000D01*
D16*
G36*
X135538300Y-89440809D02*
G01*
X135420888Y-89464164D01*
X135259101Y-89531179D01*
X135113496Y-89628469D01*
X134989669Y-89752296D01*
X134892379Y-89897901D01*
X134825364Y-90059688D01*
X134791200Y-90231441D01*
X134791200Y-90406559D01*
X134825364Y-90578312D01*
X134829001Y-90587092D01*
X134829000Y-91986840D01*
X134754064Y-91953554D01*
X134699074Y-91936881D01*
X134524200Y-92063046D01*
X134524200Y-92904000D01*
X134535226Y-92904000D01*
X134532200Y-92919212D01*
X134532200Y-93142788D01*
X134535226Y-93158000D01*
X134524200Y-93158000D01*
X134524200Y-93162928D01*
X134328999Y-93162928D01*
X134328999Y-88231508D01*
X135538300Y-89440809D01*
G37*
X135538300Y-89440809D02*
X135420888Y-89464164D01*
X135259101Y-89531179D01*
X135113496Y-89628469D01*
X134989669Y-89752296D01*
X134892379Y-89897901D01*
X134825364Y-90059688D01*
X134791200Y-90231441D01*
X134791200Y-90406559D01*
X134825364Y-90578312D01*
X134829001Y-90587092D01*
X134829000Y-91986840D01*
X134754064Y-91953554D01*
X134699074Y-91936881D01*
X134524200Y-92063046D01*
X134524200Y-92904000D01*
X134535226Y-92904000D01*
X134532200Y-92919212D01*
X134532200Y-93142788D01*
X134535226Y-93158000D01*
X134524200Y-93158000D01*
X134524200Y-93162928D01*
X134328999Y-93162928D01*
X134328999Y-88231508D01*
X135538300Y-89440809D01*
G36*
X146337323Y-90340876D02*
G01*
X141732482Y-90340006D01*
X141700000Y-90336807D01*
X141633951Y-90343312D01*
X141570740Y-90349526D01*
X141570682Y-90349544D01*
X141570617Y-90349550D01*
X141504815Y-90369511D01*
X141446323Y-90387243D01*
X141446272Y-90387270D01*
X141446207Y-90387290D01*
X141384617Y-90420210D01*
X141331655Y-90448506D01*
X141331610Y-90448543D01*
X141331550Y-90448575D01*
X141277937Y-90492574D01*
X141274446Y-90495438D01*
X141234852Y-90447192D01*
X141234845Y-90447185D01*
X141211781Y-90419082D01*
X141183683Y-90396023D01*
X137626859Y-86839200D01*
X138635007Y-86839200D01*
X141352743Y-89556937D01*
X141369379Y-89597099D01*
X141466669Y-89742704D01*
X141590496Y-89866531D01*
X141736101Y-89963821D01*
X141897888Y-90030836D01*
X142069641Y-90065000D01*
X142244759Y-90065000D01*
X142416512Y-90030836D01*
X142578299Y-89963821D01*
X142723904Y-89866531D01*
X142847731Y-89742704D01*
X142945021Y-89597099D01*
X143012036Y-89435312D01*
X143046200Y-89263559D01*
X143046200Y-89088441D01*
X143012036Y-88916688D01*
X142945021Y-88754901D01*
X142847731Y-88609296D01*
X142723904Y-88485469D01*
X142578299Y-88388179D01*
X142538137Y-88371543D01*
X139604011Y-85437418D01*
X139577764Y-85405436D01*
X139450132Y-85300691D01*
X139304517Y-85222858D01*
X139146516Y-85174929D01*
X139023370Y-85162800D01*
X139023363Y-85162800D01*
X138982200Y-85158746D01*
X138941037Y-85162800D01*
X138707995Y-85162800D01*
X138768299Y-85137821D01*
X138913904Y-85040531D01*
X139037731Y-84916704D01*
X139135021Y-84771099D01*
X139202036Y-84609312D01*
X139236200Y-84437559D01*
X139236200Y-84262441D01*
X139202036Y-84090688D01*
X139185400Y-84050526D01*
X139185400Y-80708169D01*
X139189455Y-80667000D01*
X139185400Y-80625830D01*
X139185400Y-78214640D01*
X139189454Y-78173477D01*
X139185400Y-78132314D01*
X139185400Y-78132308D01*
X139173271Y-78009162D01*
X139125342Y-77851161D01*
X139047509Y-77705546D01*
X138942764Y-77577914D01*
X138910788Y-77551672D01*
X138019564Y-76660448D01*
X146339878Y-76660033D01*
X146337323Y-90340876D01*
G37*
X146337323Y-90340876D02*
X141732482Y-90340006D01*
X141700000Y-90336807D01*
X141633951Y-90343312D01*
X141570740Y-90349526D01*
X141570682Y-90349544D01*
X141570617Y-90349550D01*
X141504815Y-90369511D01*
X141446323Y-90387243D01*
X141446272Y-90387270D01*
X141446207Y-90387290D01*
X141384617Y-90420210D01*
X141331655Y-90448506D01*
X141331610Y-90448543D01*
X141331550Y-90448575D01*
X141277937Y-90492574D01*
X141274446Y-90495438D01*
X141234852Y-90447192D01*
X141234845Y-90447185D01*
X141211781Y-90419082D01*
X141183683Y-90396023D01*
X137626859Y-86839200D01*
X138635007Y-86839200D01*
X141352743Y-89556937D01*
X141369379Y-89597099D01*
X141466669Y-89742704D01*
X141590496Y-89866531D01*
X141736101Y-89963821D01*
X141897888Y-90030836D01*
X142069641Y-90065000D01*
X142244759Y-90065000D01*
X142416512Y-90030836D01*
X142578299Y-89963821D01*
X142723904Y-89866531D01*
X142847731Y-89742704D01*
X142945021Y-89597099D01*
X143012036Y-89435312D01*
X143046200Y-89263559D01*
X143046200Y-89088441D01*
X143012036Y-88916688D01*
X142945021Y-88754901D01*
X142847731Y-88609296D01*
X142723904Y-88485469D01*
X142578299Y-88388179D01*
X142538137Y-88371543D01*
X139604011Y-85437418D01*
X139577764Y-85405436D01*
X139450132Y-85300691D01*
X139304517Y-85222858D01*
X139146516Y-85174929D01*
X139023370Y-85162800D01*
X139023363Y-85162800D01*
X138982200Y-85158746D01*
X138941037Y-85162800D01*
X138707995Y-85162800D01*
X138768299Y-85137821D01*
X138913904Y-85040531D01*
X139037731Y-84916704D01*
X139135021Y-84771099D01*
X139202036Y-84609312D01*
X139236200Y-84437559D01*
X139236200Y-84262441D01*
X139202036Y-84090688D01*
X139185400Y-84050526D01*
X139185400Y-80708169D01*
X139189455Y-80667000D01*
X139185400Y-80625830D01*
X139185400Y-78214640D01*
X139189454Y-78173477D01*
X139185400Y-78132314D01*
X139185400Y-78132308D01*
X139173271Y-78009162D01*
X139125342Y-77851161D01*
X139047509Y-77705546D01*
X138942764Y-77577914D01*
X138910788Y-77551672D01*
X138019564Y-76660448D01*
X146339878Y-76660033D01*
X146337323Y-90340876D01*
G36*
X130043378Y-85595498D02*
G01*
X130111776Y-85723462D01*
X130203825Y-85835624D01*
X130231932Y-85858691D01*
X132042980Y-87669740D01*
X132042980Y-90340049D01*
X127657200Y-90340876D01*
X127657200Y-88234608D01*
X127739393Y-88152415D01*
X127835156Y-88416814D01*
X128124771Y-88557704D01*
X128436308Y-88639384D01*
X128757795Y-88658718D01*
X129076875Y-88614961D01*
X129381288Y-88509795D01*
X129555244Y-88416814D01*
X129651008Y-88152413D01*
X128695200Y-87196605D01*
X128681058Y-87210748D01*
X128501453Y-87031143D01*
X128515595Y-87017000D01*
X128874805Y-87017000D01*
X129830613Y-87972808D01*
X130095014Y-87877044D01*
X130235904Y-87587429D01*
X130317584Y-87275892D01*
X130336918Y-86954405D01*
X130293161Y-86635325D01*
X130187995Y-86330912D01*
X130095014Y-86156956D01*
X129830613Y-86061192D01*
X128874805Y-87017000D01*
X128515595Y-87017000D01*
X128501453Y-87002858D01*
X128681058Y-86823253D01*
X128695200Y-86837395D01*
X129651008Y-85881587D01*
X129628600Y-85819720D01*
X129737452Y-85746987D01*
X129965187Y-85519252D01*
X130003056Y-85462576D01*
X130043378Y-85595498D01*
G37*
X130043378Y-85595498D02*
X130111776Y-85723462D01*
X130203825Y-85835624D01*
X130231932Y-85858691D01*
X132042980Y-87669740D01*
X132042980Y-90340049D01*
X127657200Y-90340876D01*
X127657200Y-88234608D01*
X127739393Y-88152415D01*
X127835156Y-88416814D01*
X128124771Y-88557704D01*
X128436308Y-88639384D01*
X128757795Y-88658718D01*
X129076875Y-88614961D01*
X129381288Y-88509795D01*
X129555244Y-88416814D01*
X129651008Y-88152413D01*
X128695200Y-87196605D01*
X128681058Y-87210748D01*
X128501453Y-87031143D01*
X128515595Y-87017000D01*
X128874805Y-87017000D01*
X129830613Y-87972808D01*
X130095014Y-87877044D01*
X130235904Y-87587429D01*
X130317584Y-87275892D01*
X130336918Y-86954405D01*
X130293161Y-86635325D01*
X130187995Y-86330912D01*
X130095014Y-86156956D01*
X129830613Y-86061192D01*
X128874805Y-87017000D01*
X128515595Y-87017000D01*
X128501453Y-87002858D01*
X128681058Y-86823253D01*
X128695200Y-86837395D01*
X129651008Y-85881587D01*
X129628600Y-85819720D01*
X129737452Y-85746987D01*
X129965187Y-85519252D01*
X130003056Y-85462576D01*
X130043378Y-85595498D01*
G36*
X132124200Y-77238000D02*
G01*
X133140200Y-77238000D01*
X133140200Y-77218000D01*
X133394200Y-77218000D01*
X133394200Y-77238000D01*
X133405226Y-77238000D01*
X133402200Y-77253212D01*
X133402200Y-77476788D01*
X133405226Y-77492000D01*
X133394200Y-77492000D01*
X133394200Y-77503026D01*
X133378988Y-77500000D01*
X133155412Y-77500000D01*
X133140200Y-77503026D01*
X133140200Y-77492000D01*
X132124200Y-77492000D01*
X132124200Y-77503026D01*
X132108988Y-77500000D01*
X131885412Y-77500000D01*
X131870200Y-77503026D01*
X131870200Y-77492000D01*
X131859174Y-77492000D01*
X131862200Y-77476788D01*
X131862200Y-77253212D01*
X131859174Y-77238000D01*
X131870200Y-77238000D01*
X131870200Y-77218000D01*
X132124200Y-77218000D01*
X132124200Y-77238000D01*
G37*
X132124200Y-77238000D02*
X133140200Y-77238000D01*
X133140200Y-77218000D01*
X133394200Y-77218000D01*
X133394200Y-77238000D01*
X133405226Y-77238000D01*
X133402200Y-77253212D01*
X133402200Y-77476788D01*
X133405226Y-77492000D01*
X133394200Y-77492000D01*
X133394200Y-77503026D01*
X133378988Y-77500000D01*
X133155412Y-77500000D01*
X133140200Y-77503026D01*
X133140200Y-77492000D01*
X132124200Y-77492000D01*
X132124200Y-77503026D01*
X132108988Y-77500000D01*
X131885412Y-77500000D01*
X131870200Y-77503026D01*
X131870200Y-77492000D01*
X131859174Y-77492000D01*
X131862200Y-77476788D01*
X131862200Y-77253212D01*
X131859174Y-77238000D01*
X131870200Y-77238000D01*
X131870200Y-77218000D01*
X132124200Y-77218000D01*
X132124200Y-77238000D01*
G36*
X129584200Y-77238000D02*
G01*
X129595226Y-77238000D01*
X129592200Y-77253212D01*
X129592200Y-77476788D01*
X129595226Y-77492000D01*
X129584200Y-77492000D01*
X129584200Y-77503026D01*
X129568988Y-77500000D01*
X129345412Y-77500000D01*
X129330200Y-77503026D01*
X129330200Y-77492000D01*
X129319174Y-77492000D01*
X129322200Y-77476788D01*
X129322200Y-77253212D01*
X129319174Y-77238000D01*
X129330200Y-77238000D01*
X129330200Y-77218000D01*
X129584200Y-77218000D01*
X129584200Y-77238000D01*
G37*
X129584200Y-77238000D02*
X129595226Y-77238000D01*
X129592200Y-77253212D01*
X129592200Y-77476788D01*
X129595226Y-77492000D01*
X129584200Y-77492000D01*
X129584200Y-77503026D01*
X129568988Y-77500000D01*
X129345412Y-77500000D01*
X129330200Y-77503026D01*
X129330200Y-77492000D01*
X129319174Y-77492000D01*
X129322200Y-77476788D01*
X129322200Y-77253212D01*
X129319174Y-77238000D01*
X129330200Y-77238000D01*
X129330200Y-77218000D01*
X129584200Y-77218000D01*
X129584200Y-77238000D01*
M02*
