G04 #@! TF.GenerationSoftware,KiCad,Pcbnew,(5.1.5-0-10_14)*
G04 #@! TF.CreationDate,2020-04-26T19:43:23+09:00*
G04 #@! TF.ProjectId,STM32DebugConnector,53544d33-3244-4656-9275-67436f6e6e65,1.0*
G04 #@! TF.SameCoordinates,Original*
G04 #@! TF.FileFunction,Paste,Top*
G04 #@! TF.FilePolarity,Positive*
%FSLAX46Y46*%
G04 Gerber Fmt 4.6, Leading zero omitted, Abs format (unit mm)*
G04 Created by KiCad (PCBNEW (5.1.5-0-10_14)) date 2020-04-26 19:43:23*
%MOMM*%
%LPD*%
G04 APERTURE LIST*
%ADD10R,1.800000X1.900000*%
%ADD11R,2.100000X1.600000*%
%ADD12R,0.400000X1.350000*%
%ADD13R,0.800000X2.000000*%
%ADD14C,0.100000*%
%ADD15R,2.500000X1.000000*%
%ADD16R,2.500000X0.700000*%
%ADD17R,2.000000X2.000000*%
%ADD18R,1.800000X3.500000*%
G04 APERTURE END LIST*
D10*
X137697200Y-77501000D03*
X145697200Y-77501000D03*
D11*
X138597200Y-80051000D03*
X144797200Y-80051000D03*
D12*
X140397200Y-80201000D03*
X141047200Y-80176000D03*
X141697200Y-80176000D03*
X142347200Y-80176000D03*
X142997200Y-80176000D03*
D13*
X134156200Y-83501000D03*
D14*
G36*
X133751200Y-84501000D02*
G01*
X133001200Y-84001000D01*
X133001200Y-83001000D01*
X133751200Y-82501000D01*
X133751200Y-84501000D01*
G37*
D15*
X136506200Y-83501000D03*
D16*
X131806200Y-85001000D03*
D15*
X131806200Y-83501000D03*
D16*
X131806200Y-82001000D03*
X136506200Y-85001000D03*
X136506200Y-82001000D03*
D14*
G36*
X134561200Y-82501000D02*
G01*
X135311200Y-83001000D01*
X135311200Y-84001000D01*
X134561200Y-84501000D01*
X134561200Y-82501000D01*
G37*
D17*
X139997200Y-89001000D03*
X133997200Y-89001000D03*
D14*
G36*
X142746704Y-86077204D02*
G01*
X142770973Y-86080804D01*
X142794771Y-86086765D01*
X142817871Y-86095030D01*
X142840049Y-86105520D01*
X142861093Y-86118133D01*
X142880798Y-86132747D01*
X142898977Y-86149223D01*
X142915453Y-86167402D01*
X142930067Y-86187107D01*
X142942680Y-86208151D01*
X142953170Y-86230329D01*
X142961435Y-86253429D01*
X142967396Y-86277227D01*
X142970996Y-86301496D01*
X142972200Y-86326000D01*
X142972200Y-87251000D01*
X142970996Y-87275504D01*
X142967396Y-87299773D01*
X142961435Y-87323571D01*
X142953170Y-87346671D01*
X142942680Y-87368849D01*
X142930067Y-87389893D01*
X142915453Y-87409598D01*
X142898977Y-87427777D01*
X142880798Y-87444253D01*
X142861093Y-87458867D01*
X142840049Y-87471480D01*
X142817871Y-87481970D01*
X142794771Y-87490235D01*
X142770973Y-87496196D01*
X142746704Y-87499796D01*
X142722200Y-87501000D01*
X141472200Y-87501000D01*
X141447696Y-87499796D01*
X141423427Y-87496196D01*
X141399629Y-87490235D01*
X141376529Y-87481970D01*
X141354351Y-87471480D01*
X141333307Y-87458867D01*
X141313602Y-87444253D01*
X141295423Y-87427777D01*
X141278947Y-87409598D01*
X141264333Y-87389893D01*
X141251720Y-87368849D01*
X141241230Y-87346671D01*
X141232965Y-87323571D01*
X141227004Y-87299773D01*
X141223404Y-87275504D01*
X141222200Y-87251000D01*
X141222200Y-86326000D01*
X141223404Y-86301496D01*
X141227004Y-86277227D01*
X141232965Y-86253429D01*
X141241230Y-86230329D01*
X141251720Y-86208151D01*
X141264333Y-86187107D01*
X141278947Y-86167402D01*
X141295423Y-86149223D01*
X141313602Y-86132747D01*
X141333307Y-86118133D01*
X141354351Y-86105520D01*
X141376529Y-86095030D01*
X141399629Y-86086765D01*
X141423427Y-86080804D01*
X141447696Y-86077204D01*
X141472200Y-86076000D01*
X142722200Y-86076000D01*
X142746704Y-86077204D01*
G37*
G36*
X142746704Y-83102204D02*
G01*
X142770973Y-83105804D01*
X142794771Y-83111765D01*
X142817871Y-83120030D01*
X142840049Y-83130520D01*
X142861093Y-83143133D01*
X142880798Y-83157747D01*
X142898977Y-83174223D01*
X142915453Y-83192402D01*
X142930067Y-83212107D01*
X142942680Y-83233151D01*
X142953170Y-83255329D01*
X142961435Y-83278429D01*
X142967396Y-83302227D01*
X142970996Y-83326496D01*
X142972200Y-83351000D01*
X142972200Y-84276000D01*
X142970996Y-84300504D01*
X142967396Y-84324773D01*
X142961435Y-84348571D01*
X142953170Y-84371671D01*
X142942680Y-84393849D01*
X142930067Y-84414893D01*
X142915453Y-84434598D01*
X142898977Y-84452777D01*
X142880798Y-84469253D01*
X142861093Y-84483867D01*
X142840049Y-84496480D01*
X142817871Y-84506970D01*
X142794771Y-84515235D01*
X142770973Y-84521196D01*
X142746704Y-84524796D01*
X142722200Y-84526000D01*
X141472200Y-84526000D01*
X141447696Y-84524796D01*
X141423427Y-84521196D01*
X141399629Y-84515235D01*
X141376529Y-84506970D01*
X141354351Y-84496480D01*
X141333307Y-84483867D01*
X141313602Y-84469253D01*
X141295423Y-84452777D01*
X141278947Y-84434598D01*
X141264333Y-84414893D01*
X141251720Y-84393849D01*
X141241230Y-84371671D01*
X141232965Y-84348571D01*
X141227004Y-84324773D01*
X141223404Y-84300504D01*
X141222200Y-84276000D01*
X141222200Y-83351000D01*
X141223404Y-83326496D01*
X141227004Y-83302227D01*
X141232965Y-83278429D01*
X141241230Y-83255329D01*
X141251720Y-83233151D01*
X141264333Y-83212107D01*
X141278947Y-83192402D01*
X141295423Y-83174223D01*
X141313602Y-83157747D01*
X141333307Y-83143133D01*
X141354351Y-83130520D01*
X141376529Y-83120030D01*
X141399629Y-83111765D01*
X141423427Y-83105804D01*
X141447696Y-83102204D01*
X141472200Y-83101000D01*
X142722200Y-83101000D01*
X142746704Y-83102204D01*
G37*
D18*
X144997200Y-83001000D03*
X144997200Y-88001000D03*
D14*
G36*
X139771705Y-82652204D02*
G01*
X139795973Y-82655804D01*
X139819772Y-82661765D01*
X139842871Y-82670030D01*
X139865050Y-82680520D01*
X139886093Y-82693132D01*
X139905799Y-82707747D01*
X139923977Y-82724223D01*
X139940453Y-82742401D01*
X139955068Y-82762107D01*
X139967680Y-82783150D01*
X139978170Y-82805329D01*
X139986435Y-82828428D01*
X139992396Y-82852227D01*
X139995996Y-82876495D01*
X139997200Y-82900999D01*
X139997200Y-83551001D01*
X139995996Y-83575505D01*
X139992396Y-83599773D01*
X139986435Y-83623572D01*
X139978170Y-83646671D01*
X139967680Y-83668850D01*
X139955068Y-83689893D01*
X139940453Y-83709599D01*
X139923977Y-83727777D01*
X139905799Y-83744253D01*
X139886093Y-83758868D01*
X139865050Y-83771480D01*
X139842871Y-83781970D01*
X139819772Y-83790235D01*
X139795973Y-83796196D01*
X139771705Y-83799796D01*
X139747201Y-83801000D01*
X138847199Y-83801000D01*
X138822695Y-83799796D01*
X138798427Y-83796196D01*
X138774628Y-83790235D01*
X138751529Y-83781970D01*
X138729350Y-83771480D01*
X138708307Y-83758868D01*
X138688601Y-83744253D01*
X138670423Y-83727777D01*
X138653947Y-83709599D01*
X138639332Y-83689893D01*
X138626720Y-83668850D01*
X138616230Y-83646671D01*
X138607965Y-83623572D01*
X138602004Y-83599773D01*
X138598404Y-83575505D01*
X138597200Y-83551001D01*
X138597200Y-82900999D01*
X138598404Y-82876495D01*
X138602004Y-82852227D01*
X138607965Y-82828428D01*
X138616230Y-82805329D01*
X138626720Y-82783150D01*
X138639332Y-82762107D01*
X138653947Y-82742401D01*
X138670423Y-82724223D01*
X138688601Y-82707747D01*
X138708307Y-82693132D01*
X138729350Y-82680520D01*
X138751529Y-82670030D01*
X138774628Y-82661765D01*
X138798427Y-82655804D01*
X138822695Y-82652204D01*
X138847199Y-82651000D01*
X139747201Y-82651000D01*
X139771705Y-82652204D01*
G37*
G36*
X139771705Y-84702204D02*
G01*
X139795973Y-84705804D01*
X139819772Y-84711765D01*
X139842871Y-84720030D01*
X139865050Y-84730520D01*
X139886093Y-84743132D01*
X139905799Y-84757747D01*
X139923977Y-84774223D01*
X139940453Y-84792401D01*
X139955068Y-84812107D01*
X139967680Y-84833150D01*
X139978170Y-84855329D01*
X139986435Y-84878428D01*
X139992396Y-84902227D01*
X139995996Y-84926495D01*
X139997200Y-84950999D01*
X139997200Y-85601001D01*
X139995996Y-85625505D01*
X139992396Y-85649773D01*
X139986435Y-85673572D01*
X139978170Y-85696671D01*
X139967680Y-85718850D01*
X139955068Y-85739893D01*
X139940453Y-85759599D01*
X139923977Y-85777777D01*
X139905799Y-85794253D01*
X139886093Y-85808868D01*
X139865050Y-85821480D01*
X139842871Y-85831970D01*
X139819772Y-85840235D01*
X139795973Y-85846196D01*
X139771705Y-85849796D01*
X139747201Y-85851000D01*
X138847199Y-85851000D01*
X138822695Y-85849796D01*
X138798427Y-85846196D01*
X138774628Y-85840235D01*
X138751529Y-85831970D01*
X138729350Y-85821480D01*
X138708307Y-85808868D01*
X138688601Y-85794253D01*
X138670423Y-85777777D01*
X138653947Y-85759599D01*
X138639332Y-85739893D01*
X138626720Y-85718850D01*
X138616230Y-85696671D01*
X138607965Y-85673572D01*
X138602004Y-85649773D01*
X138598404Y-85625505D01*
X138597200Y-85601001D01*
X138597200Y-84950999D01*
X138598404Y-84926495D01*
X138602004Y-84902227D01*
X138607965Y-84878428D01*
X138616230Y-84855329D01*
X138626720Y-84833150D01*
X138639332Y-84812107D01*
X138653947Y-84792401D01*
X138670423Y-84774223D01*
X138688601Y-84757747D01*
X138708307Y-84743132D01*
X138729350Y-84730520D01*
X138751529Y-84720030D01*
X138774628Y-84711765D01*
X138798427Y-84705804D01*
X138822695Y-84702204D01*
X138847199Y-84701000D01*
X139747201Y-84701000D01*
X139771705Y-84702204D01*
G37*
G36*
X141557979Y-81277144D02*
G01*
X141581034Y-81280563D01*
X141603643Y-81286227D01*
X141625587Y-81294079D01*
X141646657Y-81304044D01*
X141666648Y-81316026D01*
X141685368Y-81329910D01*
X141702638Y-81345562D01*
X141718290Y-81362832D01*
X141732174Y-81381552D01*
X141744156Y-81401543D01*
X141754121Y-81422613D01*
X141761973Y-81444557D01*
X141767637Y-81467166D01*
X141771056Y-81490221D01*
X141772200Y-81513500D01*
X141772200Y-81988500D01*
X141771056Y-82011779D01*
X141767637Y-82034834D01*
X141761973Y-82057443D01*
X141754121Y-82079387D01*
X141744156Y-82100457D01*
X141732174Y-82120448D01*
X141718290Y-82139168D01*
X141702638Y-82156438D01*
X141685368Y-82172090D01*
X141666648Y-82185974D01*
X141646657Y-82197956D01*
X141625587Y-82207921D01*
X141603643Y-82215773D01*
X141581034Y-82221437D01*
X141557979Y-82224856D01*
X141534700Y-82226000D01*
X140959700Y-82226000D01*
X140936421Y-82224856D01*
X140913366Y-82221437D01*
X140890757Y-82215773D01*
X140868813Y-82207921D01*
X140847743Y-82197956D01*
X140827752Y-82185974D01*
X140809032Y-82172090D01*
X140791762Y-82156438D01*
X140776110Y-82139168D01*
X140762226Y-82120448D01*
X140750244Y-82100457D01*
X140740279Y-82079387D01*
X140732427Y-82057443D01*
X140726763Y-82034834D01*
X140723344Y-82011779D01*
X140722200Y-81988500D01*
X140722200Y-81513500D01*
X140723344Y-81490221D01*
X140726763Y-81467166D01*
X140732427Y-81444557D01*
X140740279Y-81422613D01*
X140750244Y-81401543D01*
X140762226Y-81381552D01*
X140776110Y-81362832D01*
X140791762Y-81345562D01*
X140809032Y-81329910D01*
X140827752Y-81316026D01*
X140847743Y-81304044D01*
X140868813Y-81294079D01*
X140890757Y-81286227D01*
X140913366Y-81280563D01*
X140936421Y-81277144D01*
X140959700Y-81276000D01*
X141534700Y-81276000D01*
X141557979Y-81277144D01*
G37*
G36*
X139807979Y-81277144D02*
G01*
X139831034Y-81280563D01*
X139853643Y-81286227D01*
X139875587Y-81294079D01*
X139896657Y-81304044D01*
X139916648Y-81316026D01*
X139935368Y-81329910D01*
X139952638Y-81345562D01*
X139968290Y-81362832D01*
X139982174Y-81381552D01*
X139994156Y-81401543D01*
X140004121Y-81422613D01*
X140011973Y-81444557D01*
X140017637Y-81467166D01*
X140021056Y-81490221D01*
X140022200Y-81513500D01*
X140022200Y-81988500D01*
X140021056Y-82011779D01*
X140017637Y-82034834D01*
X140011973Y-82057443D01*
X140004121Y-82079387D01*
X139994156Y-82100457D01*
X139982174Y-82120448D01*
X139968290Y-82139168D01*
X139952638Y-82156438D01*
X139935368Y-82172090D01*
X139916648Y-82185974D01*
X139896657Y-82197956D01*
X139875587Y-82207921D01*
X139853643Y-82215773D01*
X139831034Y-82221437D01*
X139807979Y-82224856D01*
X139784700Y-82226000D01*
X139209700Y-82226000D01*
X139186421Y-82224856D01*
X139163366Y-82221437D01*
X139140757Y-82215773D01*
X139118813Y-82207921D01*
X139097743Y-82197956D01*
X139077752Y-82185974D01*
X139059032Y-82172090D01*
X139041762Y-82156438D01*
X139026110Y-82139168D01*
X139012226Y-82120448D01*
X139000244Y-82100457D01*
X138990279Y-82079387D01*
X138982427Y-82057443D01*
X138976763Y-82034834D01*
X138973344Y-82011779D01*
X138972200Y-81988500D01*
X138972200Y-81513500D01*
X138973344Y-81490221D01*
X138976763Y-81467166D01*
X138982427Y-81444557D01*
X138990279Y-81422613D01*
X139000244Y-81401543D01*
X139012226Y-81381552D01*
X139026110Y-81362832D01*
X139041762Y-81345562D01*
X139059032Y-81329910D01*
X139077752Y-81316026D01*
X139097743Y-81304044D01*
X139118813Y-81294079D01*
X139140757Y-81286227D01*
X139163366Y-81280563D01*
X139186421Y-81277144D01*
X139209700Y-81276000D01*
X139784700Y-81276000D01*
X139807979Y-81277144D01*
G37*
M02*
