G04 #@! TF.GenerationSoftware,KiCad,Pcbnew,(5.1.5-0-10_14)*
G04 #@! TF.CreationDate,2020-04-26T19:43:23+09:00*
G04 #@! TF.ProjectId,STM32DebugConnector,53544d33-3244-4656-9275-67436f6e6e65,1.0*
G04 #@! TF.SameCoordinates,Original*
G04 #@! TF.FileFunction,Legend,Bot*
G04 #@! TF.FilePolarity,Positive*
%FSLAX46Y46*%
G04 Gerber Fmt 4.6, Leading zero omitted, Abs format (unit mm)*
G04 Created by KiCad (PCBNEW (5.1.5-0-10_14)) date 2020-04-26 19:43:23*
%MOMM*%
%LPD*%
G04 APERTURE LIST*
%ADD10C,0.150000*%
G04 APERTURE END LIST*
D10*
X135917961Y-81389380D02*
X135298914Y-81389380D01*
X135632247Y-81770333D01*
X135489390Y-81770333D01*
X135394152Y-81817952D01*
X135346533Y-81865571D01*
X135298914Y-81960809D01*
X135298914Y-82198904D01*
X135346533Y-82294142D01*
X135394152Y-82341761D01*
X135489390Y-82389380D01*
X135775104Y-82389380D01*
X135870342Y-82341761D01*
X135917961Y-82294142D01*
X135013200Y-81389380D02*
X134679866Y-82389380D01*
X134346533Y-81389380D01*
X133298914Y-81341761D02*
X134156057Y-82627476D01*
X133060819Y-81389380D02*
X132441771Y-81389380D01*
X132775104Y-81770333D01*
X132632247Y-81770333D01*
X132537009Y-81817952D01*
X132489390Y-81865571D01*
X132441771Y-81960809D01*
X132441771Y-82198904D01*
X132489390Y-82294142D01*
X132537009Y-82341761D01*
X132632247Y-82389380D01*
X132917961Y-82389380D01*
X133013200Y-82341761D01*
X133060819Y-82294142D01*
X132013200Y-82294142D02*
X131965580Y-82341761D01*
X132013200Y-82389380D01*
X132060819Y-82341761D01*
X132013200Y-82294142D01*
X132013200Y-82389380D01*
X131632247Y-81389380D02*
X131013200Y-81389380D01*
X131346533Y-81770333D01*
X131203676Y-81770333D01*
X131108438Y-81817952D01*
X131060819Y-81865571D01*
X131013200Y-81960809D01*
X131013200Y-82198904D01*
X131060819Y-82294142D01*
X131108438Y-82341761D01*
X131203676Y-82389380D01*
X131489390Y-82389380D01*
X131584628Y-82341761D01*
X131632247Y-82294142D01*
X130727485Y-81389380D02*
X130394152Y-82389380D01*
X130060819Y-81389380D01*
X132774914Y-84548428D02*
X132013009Y-84548428D01*
X132393961Y-84929380D02*
X132393961Y-84167476D01*
X131060628Y-83929380D02*
X131536819Y-83929380D01*
X131584438Y-84405571D01*
X131536819Y-84357952D01*
X131441580Y-84310333D01*
X131203485Y-84310333D01*
X131108247Y-84357952D01*
X131060628Y-84405571D01*
X131013009Y-84500809D01*
X131013009Y-84738904D01*
X131060628Y-84834142D01*
X131108247Y-84881761D01*
X131203485Y-84929380D01*
X131441580Y-84929380D01*
X131536819Y-84881761D01*
X131584438Y-84834142D01*
X130727295Y-83929380D02*
X130393961Y-84929380D01*
X130060628Y-83929380D01*
X132124104Y-86517000D02*
X132219342Y-86469380D01*
X132362200Y-86469380D01*
X132505057Y-86517000D01*
X132600295Y-86612238D01*
X132647914Y-86707476D01*
X132695533Y-86897952D01*
X132695533Y-87040809D01*
X132647914Y-87231285D01*
X132600295Y-87326523D01*
X132505057Y-87421761D01*
X132362200Y-87469380D01*
X132266961Y-87469380D01*
X132124104Y-87421761D01*
X132076485Y-87374142D01*
X132076485Y-87040809D01*
X132266961Y-87040809D01*
X131647914Y-87469380D02*
X131647914Y-86469380D01*
X131076485Y-87469380D01*
X131076485Y-86469380D01*
X130600295Y-87469380D02*
X130600295Y-86469380D01*
X130362200Y-86469380D01*
X130219342Y-86517000D01*
X130124104Y-86612238D01*
X130076485Y-86707476D01*
X130028866Y-86897952D01*
X130028866Y-87040809D01*
X130076485Y-87231285D01*
X130124104Y-87326523D01*
X130219342Y-87421761D01*
X130362200Y-87469380D01*
X130600295Y-87469380D01*
M02*
