G04 #@! TF.GenerationSoftware,KiCad,Pcbnew,(5.1.5-0-10_14)*
G04 #@! TF.CreationDate,2021-03-21T20:32:30+09:00*
G04 #@! TF.ProjectId,STM32DebugConnector,53544d33-3244-4656-9275-67436f6e6e65,2.0*
G04 #@! TF.SameCoordinates,Original*
G04 #@! TF.FileFunction,Copper,L1,Top*
G04 #@! TF.FilePolarity,Positive*
%FSLAX46Y46*%
G04 Gerber Fmt 4.6, Leading zero omitted, Abs format (unit mm)*
G04 Created by KiCad (PCBNEW (5.1.5-0-10_14)) date 2021-03-21 20:32:30*
%MOMM*%
%LPD*%
G04 APERTURE LIST*
%ADD10R,1.000000X1.000000*%
%ADD11O,1.000000X1.000000*%
%ADD12R,2.000000X2.000000*%
%ADD13R,2.000000X0.800000*%
%ADD14R,1.000000X1.500000*%
%ADD15R,0.700000X1.500000*%
%ADD16R,1.000000X2.250000*%
%ADD17C,0.100000*%
%ADD18C,2.000000*%
%ADD19R,1.800000X1.900000*%
%ADD20R,2.100000X1.600000*%
%ADD21R,0.400000X1.350000*%
%ADD22C,0.609600*%
%ADD23C,0.254000*%
G04 APERTURE END LIST*
D10*
X3810000Y-8600000D03*
D11*
X3810000Y-9870000D03*
X2540000Y-8600000D03*
X2540000Y-9870000D03*
X1270000Y-8600000D03*
X1270000Y-9870000D03*
X0Y-8600000D03*
X0Y-9870000D03*
X-1270000Y-8600000D03*
X-1270000Y-9870000D03*
X-2540000Y-8600000D03*
X-2540000Y-9870000D03*
X-3810000Y-8600000D03*
X-3810000Y-9870000D03*
D12*
X0Y-14000000D03*
X0Y-20000000D03*
D11*
X-2540000Y-27280000D03*
X-1270000Y-27280000D03*
X0Y-27280000D03*
X1270000Y-27280000D03*
D10*
X2540000Y-27280000D03*
D11*
X-2540000Y-28550000D03*
X-1270000Y-28550000D03*
X0Y-28550000D03*
X1270000Y-28550000D03*
D10*
X2540000Y-28550000D03*
D13*
X5700000Y-17000000D03*
D14*
X5700000Y-18850000D03*
D15*
X4200000Y-15150000D03*
D16*
X5700000Y-15525000D03*
D15*
X7200000Y-15150000D03*
X4200000Y-18850000D03*
X7200000Y-18850000D03*
G04 #@! TA.AperFunction,SMDPad,CuDef*
D17*
G36*
X6700000Y-17400000D02*
G01*
X6200000Y-18150000D01*
X5200000Y-18150000D01*
X4700000Y-17400000D01*
X6700000Y-17400000D01*
G37*
G04 #@! TD.AperFunction*
G04 #@! TA.AperFunction,SMDPad,CuDef*
G36*
X1185779Y-24026144D02*
G01*
X1208834Y-24029563D01*
X1231443Y-24035227D01*
X1253387Y-24043079D01*
X1274457Y-24053044D01*
X1294448Y-24065026D01*
X1313168Y-24078910D01*
X1330438Y-24094562D01*
X1346090Y-24111832D01*
X1359974Y-24130552D01*
X1371956Y-24150543D01*
X1381921Y-24171613D01*
X1389773Y-24193557D01*
X1395437Y-24216166D01*
X1398856Y-24239221D01*
X1400000Y-24262500D01*
X1400000Y-24737500D01*
X1398856Y-24760779D01*
X1395437Y-24783834D01*
X1389773Y-24806443D01*
X1381921Y-24828387D01*
X1371956Y-24849457D01*
X1359974Y-24869448D01*
X1346090Y-24888168D01*
X1330438Y-24905438D01*
X1313168Y-24921090D01*
X1294448Y-24934974D01*
X1274457Y-24946956D01*
X1253387Y-24956921D01*
X1231443Y-24964773D01*
X1208834Y-24970437D01*
X1185779Y-24973856D01*
X1162500Y-24975000D01*
X587500Y-24975000D01*
X564221Y-24973856D01*
X541166Y-24970437D01*
X518557Y-24964773D01*
X496613Y-24956921D01*
X475543Y-24946956D01*
X455552Y-24934974D01*
X436832Y-24921090D01*
X419562Y-24905438D01*
X403910Y-24888168D01*
X390026Y-24869448D01*
X378044Y-24849457D01*
X368079Y-24828387D01*
X360227Y-24806443D01*
X354563Y-24783834D01*
X351144Y-24760779D01*
X350000Y-24737500D01*
X350000Y-24262500D01*
X351144Y-24239221D01*
X354563Y-24216166D01*
X360227Y-24193557D01*
X368079Y-24171613D01*
X378044Y-24150543D01*
X390026Y-24130552D01*
X403910Y-24111832D01*
X419562Y-24094562D01*
X436832Y-24078910D01*
X455552Y-24065026D01*
X475543Y-24053044D01*
X496613Y-24043079D01*
X518557Y-24035227D01*
X541166Y-24029563D01*
X564221Y-24026144D01*
X587500Y-24025000D01*
X1162500Y-24025000D01*
X1185779Y-24026144D01*
G37*
G04 #@! TD.AperFunction*
G04 #@! TA.AperFunction,SMDPad,CuDef*
G36*
X-564221Y-24026144D02*
G01*
X-541166Y-24029563D01*
X-518557Y-24035227D01*
X-496613Y-24043079D01*
X-475543Y-24053044D01*
X-455552Y-24065026D01*
X-436832Y-24078910D01*
X-419562Y-24094562D01*
X-403910Y-24111832D01*
X-390026Y-24130552D01*
X-378044Y-24150543D01*
X-368079Y-24171613D01*
X-360227Y-24193557D01*
X-354563Y-24216166D01*
X-351144Y-24239221D01*
X-350000Y-24262500D01*
X-350000Y-24737500D01*
X-351144Y-24760779D01*
X-354563Y-24783834D01*
X-360227Y-24806443D01*
X-368079Y-24828387D01*
X-378044Y-24849457D01*
X-390026Y-24869448D01*
X-403910Y-24888168D01*
X-419562Y-24905438D01*
X-436832Y-24921090D01*
X-455552Y-24934974D01*
X-475543Y-24946956D01*
X-496613Y-24956921D01*
X-518557Y-24964773D01*
X-541166Y-24970437D01*
X-564221Y-24973856D01*
X-587500Y-24975000D01*
X-1162500Y-24975000D01*
X-1185779Y-24973856D01*
X-1208834Y-24970437D01*
X-1231443Y-24964773D01*
X-1253387Y-24956921D01*
X-1274457Y-24946956D01*
X-1294448Y-24934974D01*
X-1313168Y-24921090D01*
X-1330438Y-24905438D01*
X-1346090Y-24888168D01*
X-1359974Y-24869448D01*
X-1371956Y-24849457D01*
X-1381921Y-24828387D01*
X-1389773Y-24806443D01*
X-1395437Y-24783834D01*
X-1398856Y-24760779D01*
X-1400000Y-24737500D01*
X-1400000Y-24262500D01*
X-1398856Y-24239221D01*
X-1395437Y-24216166D01*
X-1389773Y-24193557D01*
X-1381921Y-24171613D01*
X-1371956Y-24150543D01*
X-1359974Y-24130552D01*
X-1346090Y-24111832D01*
X-1330438Y-24094562D01*
X-1313168Y-24078910D01*
X-1294448Y-24065026D01*
X-1274457Y-24053044D01*
X-1253387Y-24043079D01*
X-1231443Y-24035227D01*
X-1208834Y-24029563D01*
X-1185779Y-24026144D01*
X-1162500Y-24025000D01*
X-587500Y-24025000D01*
X-564221Y-24026144D01*
G37*
G04 #@! TD.AperFunction*
G04 #@! TA.AperFunction,SMDPad,CuDef*
G36*
X-564221Y-22526144D02*
G01*
X-541166Y-22529563D01*
X-518557Y-22535227D01*
X-496613Y-22543079D01*
X-475543Y-22553044D01*
X-455552Y-22565026D01*
X-436832Y-22578910D01*
X-419562Y-22594562D01*
X-403910Y-22611832D01*
X-390026Y-22630552D01*
X-378044Y-22650543D01*
X-368079Y-22671613D01*
X-360227Y-22693557D01*
X-354563Y-22716166D01*
X-351144Y-22739221D01*
X-350000Y-22762500D01*
X-350000Y-23237500D01*
X-351144Y-23260779D01*
X-354563Y-23283834D01*
X-360227Y-23306443D01*
X-368079Y-23328387D01*
X-378044Y-23349457D01*
X-390026Y-23369448D01*
X-403910Y-23388168D01*
X-419562Y-23405438D01*
X-436832Y-23421090D01*
X-455552Y-23434974D01*
X-475543Y-23446956D01*
X-496613Y-23456921D01*
X-518557Y-23464773D01*
X-541166Y-23470437D01*
X-564221Y-23473856D01*
X-587500Y-23475000D01*
X-1162500Y-23475000D01*
X-1185779Y-23473856D01*
X-1208834Y-23470437D01*
X-1231443Y-23464773D01*
X-1253387Y-23456921D01*
X-1274457Y-23446956D01*
X-1294448Y-23434974D01*
X-1313168Y-23421090D01*
X-1330438Y-23405438D01*
X-1346090Y-23388168D01*
X-1359974Y-23369448D01*
X-1371956Y-23349457D01*
X-1381921Y-23328387D01*
X-1389773Y-23306443D01*
X-1395437Y-23283834D01*
X-1398856Y-23260779D01*
X-1400000Y-23237500D01*
X-1400000Y-22762500D01*
X-1398856Y-22739221D01*
X-1395437Y-22716166D01*
X-1389773Y-22693557D01*
X-1381921Y-22671613D01*
X-1371956Y-22650543D01*
X-1359974Y-22630552D01*
X-1346090Y-22611832D01*
X-1330438Y-22594562D01*
X-1313168Y-22578910D01*
X-1294448Y-22565026D01*
X-1274457Y-22553044D01*
X-1253387Y-22543079D01*
X-1231443Y-22535227D01*
X-1208834Y-22529563D01*
X-1185779Y-22526144D01*
X-1162500Y-22525000D01*
X-587500Y-22525000D01*
X-564221Y-22526144D01*
G37*
G04 #@! TD.AperFunction*
G04 #@! TA.AperFunction,SMDPad,CuDef*
G36*
X1185779Y-22526144D02*
G01*
X1208834Y-22529563D01*
X1231443Y-22535227D01*
X1253387Y-22543079D01*
X1274457Y-22553044D01*
X1294448Y-22565026D01*
X1313168Y-22578910D01*
X1330438Y-22594562D01*
X1346090Y-22611832D01*
X1359974Y-22630552D01*
X1371956Y-22650543D01*
X1381921Y-22671613D01*
X1389773Y-22693557D01*
X1395437Y-22716166D01*
X1398856Y-22739221D01*
X1400000Y-22762500D01*
X1400000Y-23237500D01*
X1398856Y-23260779D01*
X1395437Y-23283834D01*
X1389773Y-23306443D01*
X1381921Y-23328387D01*
X1371956Y-23349457D01*
X1359974Y-23369448D01*
X1346090Y-23388168D01*
X1330438Y-23405438D01*
X1313168Y-23421090D01*
X1294448Y-23434974D01*
X1274457Y-23446956D01*
X1253387Y-23456921D01*
X1231443Y-23464773D01*
X1208834Y-23470437D01*
X1185779Y-23473856D01*
X1162500Y-23475000D01*
X587500Y-23475000D01*
X564221Y-23473856D01*
X541166Y-23470437D01*
X518557Y-23464773D01*
X496613Y-23456921D01*
X475543Y-23446956D01*
X455552Y-23434974D01*
X436832Y-23421090D01*
X419562Y-23405438D01*
X403910Y-23388168D01*
X390026Y-23369448D01*
X378044Y-23349457D01*
X368079Y-23328387D01*
X360227Y-23306443D01*
X354563Y-23283834D01*
X351144Y-23260779D01*
X350000Y-23237500D01*
X350000Y-22762500D01*
X351144Y-22739221D01*
X354563Y-22716166D01*
X360227Y-22693557D01*
X368079Y-22671613D01*
X378044Y-22650543D01*
X390026Y-22630552D01*
X403910Y-22611832D01*
X419562Y-22594562D01*
X436832Y-22578910D01*
X455552Y-22565026D01*
X475543Y-22553044D01*
X496613Y-22543079D01*
X518557Y-22535227D01*
X541166Y-22529563D01*
X564221Y-22526144D01*
X587500Y-22525000D01*
X1162500Y-22525000D01*
X1185779Y-22526144D01*
G37*
G04 #@! TD.AperFunction*
D18*
X-6959800Y-19570000D03*
X-6959800Y-17030000D03*
X-6959800Y-14490000D03*
D19*
X-4000000Y-2000000D03*
X4000000Y-2000000D03*
D20*
X-3100000Y-4550000D03*
X3100000Y-4550000D03*
D21*
X-1300000Y-4700000D03*
X-650000Y-4675000D03*
X0Y-4675000D03*
X650000Y-4675000D03*
X1300000Y-4675000D03*
G04 #@! TA.AperFunction,SMDPad,CuDef*
D17*
G36*
X7362004Y-11726204D02*
G01*
X7386273Y-11729804D01*
X7410071Y-11735765D01*
X7433171Y-11744030D01*
X7455349Y-11754520D01*
X7476393Y-11767133D01*
X7496098Y-11781747D01*
X7514277Y-11798223D01*
X7530753Y-11816402D01*
X7545367Y-11836107D01*
X7557980Y-11857151D01*
X7568470Y-11879329D01*
X7576735Y-11902429D01*
X7582696Y-11926227D01*
X7586296Y-11950496D01*
X7587500Y-11975000D01*
X7587500Y-13225000D01*
X7586296Y-13249504D01*
X7582696Y-13273773D01*
X7576735Y-13297571D01*
X7568470Y-13320671D01*
X7557980Y-13342849D01*
X7545367Y-13363893D01*
X7530753Y-13383598D01*
X7514277Y-13401777D01*
X7496098Y-13418253D01*
X7476393Y-13432867D01*
X7455349Y-13445480D01*
X7433171Y-13455970D01*
X7410071Y-13464235D01*
X7386273Y-13470196D01*
X7362004Y-13473796D01*
X7337500Y-13475000D01*
X6412500Y-13475000D01*
X6387996Y-13473796D01*
X6363727Y-13470196D01*
X6339929Y-13464235D01*
X6316829Y-13455970D01*
X6294651Y-13445480D01*
X6273607Y-13432867D01*
X6253902Y-13418253D01*
X6235723Y-13401777D01*
X6219247Y-13383598D01*
X6204633Y-13363893D01*
X6192020Y-13342849D01*
X6181530Y-13320671D01*
X6173265Y-13297571D01*
X6167304Y-13273773D01*
X6163704Y-13249504D01*
X6162500Y-13225000D01*
X6162500Y-11975000D01*
X6163704Y-11950496D01*
X6167304Y-11926227D01*
X6173265Y-11902429D01*
X6181530Y-11879329D01*
X6192020Y-11857151D01*
X6204633Y-11836107D01*
X6219247Y-11816402D01*
X6235723Y-11798223D01*
X6253902Y-11781747D01*
X6273607Y-11767133D01*
X6294651Y-11754520D01*
X6316829Y-11744030D01*
X6339929Y-11735765D01*
X6363727Y-11729804D01*
X6387996Y-11726204D01*
X6412500Y-11725000D01*
X7337500Y-11725000D01*
X7362004Y-11726204D01*
G37*
G04 #@! TD.AperFunction*
G04 #@! TA.AperFunction,SMDPad,CuDef*
G36*
X4387004Y-11726204D02*
G01*
X4411273Y-11729804D01*
X4435071Y-11735765D01*
X4458171Y-11744030D01*
X4480349Y-11754520D01*
X4501393Y-11767133D01*
X4521098Y-11781747D01*
X4539277Y-11798223D01*
X4555753Y-11816402D01*
X4570367Y-11836107D01*
X4582980Y-11857151D01*
X4593470Y-11879329D01*
X4601735Y-11902429D01*
X4607696Y-11926227D01*
X4611296Y-11950496D01*
X4612500Y-11975000D01*
X4612500Y-13225000D01*
X4611296Y-13249504D01*
X4607696Y-13273773D01*
X4601735Y-13297571D01*
X4593470Y-13320671D01*
X4582980Y-13342849D01*
X4570367Y-13363893D01*
X4555753Y-13383598D01*
X4539277Y-13401777D01*
X4521098Y-13418253D01*
X4501393Y-13432867D01*
X4480349Y-13445480D01*
X4458171Y-13455970D01*
X4435071Y-13464235D01*
X4411273Y-13470196D01*
X4387004Y-13473796D01*
X4362500Y-13475000D01*
X3437500Y-13475000D01*
X3412996Y-13473796D01*
X3388727Y-13470196D01*
X3364929Y-13464235D01*
X3341829Y-13455970D01*
X3319651Y-13445480D01*
X3298607Y-13432867D01*
X3278902Y-13418253D01*
X3260723Y-13401777D01*
X3244247Y-13383598D01*
X3229633Y-13363893D01*
X3217020Y-13342849D01*
X3206530Y-13320671D01*
X3198265Y-13297571D01*
X3192304Y-13273773D01*
X3188704Y-13249504D01*
X3187500Y-13225000D01*
X3187500Y-11975000D01*
X3188704Y-11950496D01*
X3192304Y-11926227D01*
X3198265Y-11902429D01*
X3206530Y-11879329D01*
X3217020Y-11857151D01*
X3229633Y-11836107D01*
X3244247Y-11816402D01*
X3260723Y-11798223D01*
X3278902Y-11781747D01*
X3298607Y-11767133D01*
X3319651Y-11754520D01*
X3341829Y-11744030D01*
X3364929Y-11735765D01*
X3388727Y-11729804D01*
X3412996Y-11726204D01*
X3437500Y-11725000D01*
X4362500Y-11725000D01*
X4387004Y-11726204D01*
G37*
G04 #@! TD.AperFunction*
G04 #@! TA.AperFunction,SMDPad,CuDef*
G36*
X4674505Y-22226204D02*
G01*
X4698773Y-22229804D01*
X4722572Y-22235765D01*
X4745671Y-22244030D01*
X4767850Y-22254520D01*
X4788893Y-22267132D01*
X4808599Y-22281747D01*
X4826777Y-22298223D01*
X4843253Y-22316401D01*
X4857868Y-22336107D01*
X4870480Y-22357150D01*
X4880970Y-22379329D01*
X4889235Y-22402428D01*
X4895196Y-22426227D01*
X4898796Y-22450495D01*
X4900000Y-22474999D01*
X4900000Y-23125001D01*
X4898796Y-23149505D01*
X4895196Y-23173773D01*
X4889235Y-23197572D01*
X4880970Y-23220671D01*
X4870480Y-23242850D01*
X4857868Y-23263893D01*
X4843253Y-23283599D01*
X4826777Y-23301777D01*
X4808599Y-23318253D01*
X4788893Y-23332868D01*
X4767850Y-23345480D01*
X4745671Y-23355970D01*
X4722572Y-23364235D01*
X4698773Y-23370196D01*
X4674505Y-23373796D01*
X4650001Y-23375000D01*
X3749999Y-23375000D01*
X3725495Y-23373796D01*
X3701227Y-23370196D01*
X3677428Y-23364235D01*
X3654329Y-23355970D01*
X3632150Y-23345480D01*
X3611107Y-23332868D01*
X3591401Y-23318253D01*
X3573223Y-23301777D01*
X3556747Y-23283599D01*
X3542132Y-23263893D01*
X3529520Y-23242850D01*
X3519030Y-23220671D01*
X3510765Y-23197572D01*
X3504804Y-23173773D01*
X3501204Y-23149505D01*
X3500000Y-23125001D01*
X3500000Y-22474999D01*
X3501204Y-22450495D01*
X3504804Y-22426227D01*
X3510765Y-22402428D01*
X3519030Y-22379329D01*
X3529520Y-22357150D01*
X3542132Y-22336107D01*
X3556747Y-22316401D01*
X3573223Y-22298223D01*
X3591401Y-22281747D01*
X3611107Y-22267132D01*
X3632150Y-22254520D01*
X3654329Y-22244030D01*
X3677428Y-22235765D01*
X3701227Y-22229804D01*
X3725495Y-22226204D01*
X3749999Y-22225000D01*
X4650001Y-22225000D01*
X4674505Y-22226204D01*
G37*
G04 #@! TD.AperFunction*
G04 #@! TA.AperFunction,SMDPad,CuDef*
G36*
X4674505Y-20176204D02*
G01*
X4698773Y-20179804D01*
X4722572Y-20185765D01*
X4745671Y-20194030D01*
X4767850Y-20204520D01*
X4788893Y-20217132D01*
X4808599Y-20231747D01*
X4826777Y-20248223D01*
X4843253Y-20266401D01*
X4857868Y-20286107D01*
X4870480Y-20307150D01*
X4880970Y-20329329D01*
X4889235Y-20352428D01*
X4895196Y-20376227D01*
X4898796Y-20400495D01*
X4900000Y-20424999D01*
X4900000Y-21075001D01*
X4898796Y-21099505D01*
X4895196Y-21123773D01*
X4889235Y-21147572D01*
X4880970Y-21170671D01*
X4870480Y-21192850D01*
X4857868Y-21213893D01*
X4843253Y-21233599D01*
X4826777Y-21251777D01*
X4808599Y-21268253D01*
X4788893Y-21282868D01*
X4767850Y-21295480D01*
X4745671Y-21305970D01*
X4722572Y-21314235D01*
X4698773Y-21320196D01*
X4674505Y-21323796D01*
X4650001Y-21325000D01*
X3749999Y-21325000D01*
X3725495Y-21323796D01*
X3701227Y-21320196D01*
X3677428Y-21314235D01*
X3654329Y-21305970D01*
X3632150Y-21295480D01*
X3611107Y-21282868D01*
X3591401Y-21268253D01*
X3573223Y-21251777D01*
X3556747Y-21233599D01*
X3542132Y-21213893D01*
X3529520Y-21192850D01*
X3519030Y-21170671D01*
X3510765Y-21147572D01*
X3504804Y-21123773D01*
X3501204Y-21099505D01*
X3500000Y-21075001D01*
X3500000Y-20424999D01*
X3501204Y-20400495D01*
X3504804Y-20376227D01*
X3510765Y-20352428D01*
X3519030Y-20329329D01*
X3529520Y-20307150D01*
X3542132Y-20286107D01*
X3556747Y-20266401D01*
X3573223Y-20248223D01*
X3591401Y-20231747D01*
X3611107Y-20217132D01*
X3632150Y-20204520D01*
X3654329Y-20194030D01*
X3677428Y-20185765D01*
X3701227Y-20179804D01*
X3725495Y-20176204D01*
X3749999Y-20175000D01*
X4650001Y-20175000D01*
X4674505Y-20176204D01*
G37*
G04 #@! TD.AperFunction*
G04 #@! TA.AperFunction,SMDPad,CuDef*
G36*
X7460779Y-21926144D02*
G01*
X7483834Y-21929563D01*
X7506443Y-21935227D01*
X7528387Y-21943079D01*
X7549457Y-21953044D01*
X7569448Y-21965026D01*
X7588168Y-21978910D01*
X7605438Y-21994562D01*
X7621090Y-22011832D01*
X7634974Y-22030552D01*
X7646956Y-22050543D01*
X7656921Y-22071613D01*
X7664773Y-22093557D01*
X7670437Y-22116166D01*
X7673856Y-22139221D01*
X7675000Y-22162500D01*
X7675000Y-22737500D01*
X7673856Y-22760779D01*
X7670437Y-22783834D01*
X7664773Y-22806443D01*
X7656921Y-22828387D01*
X7646956Y-22849457D01*
X7634974Y-22869448D01*
X7621090Y-22888168D01*
X7605438Y-22905438D01*
X7588168Y-22921090D01*
X7569448Y-22934974D01*
X7549457Y-22946956D01*
X7528387Y-22956921D01*
X7506443Y-22964773D01*
X7483834Y-22970437D01*
X7460779Y-22973856D01*
X7437500Y-22975000D01*
X6962500Y-22975000D01*
X6939221Y-22973856D01*
X6916166Y-22970437D01*
X6893557Y-22964773D01*
X6871613Y-22956921D01*
X6850543Y-22946956D01*
X6830552Y-22934974D01*
X6811832Y-22921090D01*
X6794562Y-22905438D01*
X6778910Y-22888168D01*
X6765026Y-22869448D01*
X6753044Y-22849457D01*
X6743079Y-22828387D01*
X6735227Y-22806443D01*
X6729563Y-22783834D01*
X6726144Y-22760779D01*
X6725000Y-22737500D01*
X6725000Y-22162500D01*
X6726144Y-22139221D01*
X6729563Y-22116166D01*
X6735227Y-22093557D01*
X6743079Y-22071613D01*
X6753044Y-22050543D01*
X6765026Y-22030552D01*
X6778910Y-22011832D01*
X6794562Y-21994562D01*
X6811832Y-21978910D01*
X6830552Y-21965026D01*
X6850543Y-21953044D01*
X6871613Y-21943079D01*
X6893557Y-21935227D01*
X6916166Y-21929563D01*
X6939221Y-21926144D01*
X6962500Y-21925000D01*
X7437500Y-21925000D01*
X7460779Y-21926144D01*
G37*
G04 #@! TD.AperFunction*
G04 #@! TA.AperFunction,SMDPad,CuDef*
G36*
X7460779Y-20176144D02*
G01*
X7483834Y-20179563D01*
X7506443Y-20185227D01*
X7528387Y-20193079D01*
X7549457Y-20203044D01*
X7569448Y-20215026D01*
X7588168Y-20228910D01*
X7605438Y-20244562D01*
X7621090Y-20261832D01*
X7634974Y-20280552D01*
X7646956Y-20300543D01*
X7656921Y-20321613D01*
X7664773Y-20343557D01*
X7670437Y-20366166D01*
X7673856Y-20389221D01*
X7675000Y-20412500D01*
X7675000Y-20987500D01*
X7673856Y-21010779D01*
X7670437Y-21033834D01*
X7664773Y-21056443D01*
X7656921Y-21078387D01*
X7646956Y-21099457D01*
X7634974Y-21119448D01*
X7621090Y-21138168D01*
X7605438Y-21155438D01*
X7588168Y-21171090D01*
X7569448Y-21184974D01*
X7549457Y-21196956D01*
X7528387Y-21206921D01*
X7506443Y-21214773D01*
X7483834Y-21220437D01*
X7460779Y-21223856D01*
X7437500Y-21225000D01*
X6962500Y-21225000D01*
X6939221Y-21223856D01*
X6916166Y-21220437D01*
X6893557Y-21214773D01*
X6871613Y-21206921D01*
X6850543Y-21196956D01*
X6830552Y-21184974D01*
X6811832Y-21171090D01*
X6794562Y-21155438D01*
X6778910Y-21138168D01*
X6765026Y-21119448D01*
X6753044Y-21099457D01*
X6743079Y-21078387D01*
X6735227Y-21056443D01*
X6729563Y-21033834D01*
X6726144Y-21010779D01*
X6725000Y-20987500D01*
X6725000Y-20412500D01*
X6726144Y-20389221D01*
X6729563Y-20366166D01*
X6735227Y-20343557D01*
X6743079Y-20321613D01*
X6753044Y-20300543D01*
X6765026Y-20280552D01*
X6778910Y-20261832D01*
X6794562Y-20244562D01*
X6811832Y-20228910D01*
X6830552Y-20215026D01*
X6850543Y-20203044D01*
X6871613Y-20193079D01*
X6893557Y-20185227D01*
X6916166Y-20179563D01*
X6939221Y-20176144D01*
X6962500Y-20175000D01*
X7437500Y-20175000D01*
X7460779Y-20176144D01*
G37*
G04 #@! TD.AperFunction*
D22*
X0Y-2000000D03*
X800000Y-16600000D03*
X-600000Y-16600000D03*
X0Y-18300000D03*
D23*
X4000000Y-3204000D02*
X3804000Y-3400000D01*
X4000000Y-2000000D02*
X4000000Y-3204000D01*
X3100000Y-3496000D02*
X3196000Y-3400000D01*
X3196000Y-3400000D02*
X3804000Y-3400000D01*
X3100000Y-4550000D02*
X3100000Y-3496000D01*
X-4000000Y-3204000D02*
X-3804000Y-3400000D01*
X-4000000Y-2000000D02*
X-4000000Y-3204000D01*
X-3196000Y-3400000D02*
X-3804000Y-3400000D01*
X-3100000Y-3496000D02*
X-3196000Y-3400000D01*
X-3100000Y-4550000D02*
X-3100000Y-3496000D01*
X-1300000Y-4700000D02*
X-1300000Y-5800000D01*
X-1300000Y-5800000D02*
X-1500000Y-6000000D01*
X-3100000Y-4550000D02*
X-3100000Y-5604000D01*
X-3100000Y-5604000D02*
X-3100000Y-5800000D01*
X-2900000Y-6000000D02*
X-3100000Y-5800000D01*
X-1500000Y-6000000D02*
X-2900000Y-6000000D01*
X1270000Y-8600000D02*
X1270000Y-7366000D01*
X0Y-8600000D02*
X0Y-7366000D01*
X1270000Y-7366000D02*
X1266000Y-7366000D01*
X1266000Y-7366000D02*
X1100000Y-7200000D01*
X166000Y-7200000D02*
X0Y-7366000D01*
X1100000Y-7200000D02*
X166000Y-7200000D01*
X-166000Y-7200000D02*
X0Y-7366000D01*
X-2540000Y-7340000D02*
X-2400000Y-7200000D01*
X-2540000Y-8600000D02*
X-2540000Y-7340000D01*
X-1500000Y-7200000D02*
X-166000Y-7200000D01*
X-1500000Y-6000000D02*
X-1500000Y-7200000D01*
X-2400000Y-7200000D02*
X-1500000Y-7200000D01*
X2540000Y-27280000D02*
X2540000Y-28550000D01*
X5700000Y-18850000D02*
X5700000Y-21000000D01*
X7200000Y-22450000D02*
X6150000Y-22450000D01*
X5700000Y-22000000D02*
X5700000Y-21000000D01*
X6150000Y-22450000D02*
X5700000Y-22000000D01*
X4200000Y-22800000D02*
X5400000Y-22800000D01*
X5700000Y-22500000D02*
X5700000Y-22000000D01*
X5400000Y-22800000D02*
X5700000Y-22500000D01*
X5700000Y-18850000D02*
X5700000Y-17775000D01*
X5700000Y-17775000D02*
X5700000Y-17000000D01*
X5700000Y-15525000D02*
X5700000Y-17000000D01*
X875000Y-21875000D02*
X875000Y-23000000D01*
X-1200000Y-21800000D02*
X800000Y-21800000D01*
X-1500000Y-21500000D02*
X-1200000Y-21800000D01*
X800000Y-21800000D02*
X875000Y-21875000D01*
X-1500000Y-14000000D02*
X-1500000Y-21500000D01*
X0Y-14000000D02*
X-1500000Y-14000000D01*
X2540000Y-27280000D02*
X2540000Y-26526000D01*
X2540000Y-26526000D02*
X2540000Y-26162000D01*
X4200000Y-24502000D02*
X2540000Y-26162000D01*
X4200000Y-22800000D02*
X4200000Y-24502000D01*
X-6959800Y-19570000D02*
X-5370000Y-19570000D01*
X-5370000Y-19570000D02*
X-5100000Y-19300000D01*
X-5100000Y-19300000D02*
X-5100000Y-7400000D01*
X-5100000Y-7400000D02*
X-4900000Y-7200000D01*
X-2680000Y-7200000D02*
X-2540000Y-7340000D01*
X-4900000Y-7200000D02*
X-2680000Y-7200000D01*
X-4000000Y-2000000D02*
X0Y-2000000D01*
X4000000Y-2000000D02*
X0Y-2000000D01*
X1500000Y-14000000D02*
X0Y-14000000D01*
X1700000Y-13800000D02*
X1500000Y-14000000D01*
X3000000Y-11000000D02*
X1700000Y-12300000D01*
X4753408Y-7400000D02*
X5000000Y-7646592D01*
X1632000Y-7400000D02*
X4753408Y-7400000D01*
X5000000Y-7646592D02*
X5000000Y-10053408D01*
X1700000Y-12300000D02*
X1700000Y-13800000D01*
X5000000Y-10053408D02*
X4053408Y-11000000D01*
X1432000Y-7200000D02*
X1632000Y-7400000D01*
X4053408Y-11000000D02*
X3000000Y-11000000D01*
X1266000Y-7366000D02*
X1432000Y-7200000D01*
X0Y-27280000D02*
X0Y-28550000D01*
X0Y-27280000D02*
X0Y-26572894D01*
X0Y-26572894D02*
X0Y-26162000D01*
X875000Y-24500000D02*
X875000Y-25566400D01*
X875000Y-25566400D02*
X660400Y-25781000D01*
X381000Y-25781000D02*
X0Y-26162000D01*
X660400Y-25781000D02*
X381000Y-25781000D01*
X4200000Y-20750000D02*
X2950000Y-20750000D01*
X2950000Y-20750000D02*
X2500000Y-21200000D01*
X875000Y-24500000D02*
X1900000Y-24500000D01*
X2500000Y-23900000D02*
X2500000Y-21200000D01*
X1900000Y-24500000D02*
X2500000Y-23900000D01*
X4200000Y-18850000D02*
X4200000Y-20750000D01*
X2950000Y-20750000D02*
X2500000Y-20300000D01*
X2500000Y-18300000D02*
X800000Y-16600000D01*
X2500000Y-20300000D02*
X2500000Y-18300000D01*
X7200000Y-20700000D02*
X7200000Y-18850000D01*
X7200000Y-18850000D02*
X7200000Y-15150000D01*
X7054000Y-14000000D02*
X7200000Y-14146000D01*
X7200000Y-14146000D02*
X7200000Y-15150000D01*
X100000Y-15900000D02*
X-600000Y-16600000D01*
X2500000Y-15300000D02*
X1900000Y-15900000D01*
X1900000Y-15900000D02*
X100000Y-15900000D01*
X2500000Y-13000000D02*
X2500000Y-15300000D01*
X2900000Y-12600000D02*
X2500000Y-13000000D01*
X3900000Y-12600000D02*
X2900000Y-12600000D01*
X3900000Y-12600000D02*
X5100000Y-12600000D01*
X5100000Y-12600000D02*
X5500000Y-13000000D01*
X5500000Y-13000000D02*
X5500000Y-13500000D01*
X6000000Y-14000000D02*
X7054000Y-14000000D01*
X5500000Y-13500000D02*
X6000000Y-14000000D01*
X-875000Y-24500000D02*
X-875000Y-23000000D01*
X1270000Y-11176000D02*
X1270000Y-9870000D01*
X446000Y-12000000D02*
X1270000Y-11176000D01*
X-2000000Y-12900000D02*
X-1100000Y-12000000D01*
X-1100000Y-12000000D02*
X446000Y-12000000D01*
X-1270000Y-27280000D02*
X-1270000Y-26130000D01*
X-1270000Y-26130000D02*
X-2000000Y-25400000D01*
X-2000000Y-25400000D02*
X-2000000Y-12900000D01*
X-1270000Y-27280000D02*
X-1270000Y-28550000D01*
X-2540000Y-27280000D02*
X-2540000Y-28550000D01*
X1270000Y-27280000D02*
X1270000Y-28550000D01*
X0Y-18300000D02*
X0Y-20000000D01*
X1300000Y-6100000D02*
X1300000Y-4675000D01*
X4700000Y-6700000D02*
X1900000Y-6700000D01*
X5500000Y-10400000D02*
X5500000Y-7500000D01*
X5500000Y-7500000D02*
X4700000Y-6700000D01*
X1900000Y-6700000D02*
X1300000Y-6100000D01*
X6875000Y-12600000D02*
X6875000Y-11275000D01*
X6875000Y-11275000D02*
X6600000Y-11000000D01*
X6100000Y-11000000D02*
X5500000Y-10400000D01*
X6600000Y-11000000D02*
X6100000Y-11000000D01*
G36*
X-5430537Y-695506D02*
G01*
X-5489502Y-805820D01*
X-5525812Y-925518D01*
X-5538072Y-1050000D01*
X-5535000Y-1714250D01*
X-5376250Y-1873000D01*
X-4127000Y-1873000D01*
X-4127000Y-1853000D01*
X-3873000Y-1853000D01*
X-3873000Y-1873000D01*
X-2623750Y-1873000D01*
X-2465000Y-1714250D01*
X-2461928Y-1050000D01*
X-2474188Y-925518D01*
X-2510498Y-805820D01*
X-2569463Y-695506D01*
X-2598602Y-660000D01*
X2598602Y-660000D01*
X2569463Y-695506D01*
X2510498Y-805820D01*
X2474188Y-925518D01*
X2461928Y-1050000D01*
X2465000Y-1714250D01*
X2623750Y-1873000D01*
X3873000Y-1873000D01*
X3873000Y-1853000D01*
X4127000Y-1853000D01*
X4127000Y-1873000D01*
X5376250Y-1873000D01*
X5535000Y-1714250D01*
X5538072Y-1050000D01*
X5525812Y-925518D01*
X5489502Y-805820D01*
X5430537Y-695506D01*
X5401398Y-660000D01*
X7967721Y-660000D01*
X8065424Y-669580D01*
X8128356Y-688580D01*
X8186405Y-719445D01*
X8237343Y-760989D01*
X8279248Y-811644D01*
X8310515Y-869471D01*
X8329956Y-932272D01*
X8340001Y-1027845D01*
X8340000Y-23967721D01*
X8330420Y-24065424D01*
X8311420Y-24128357D01*
X8280554Y-24186406D01*
X8239011Y-24237343D01*
X8188356Y-24279248D01*
X8130529Y-24310515D01*
X8067728Y-24329956D01*
X7972165Y-24340000D01*
X4967581Y-24340000D01*
X4939326Y-24342783D01*
X4933199Y-24342740D01*
X4924028Y-24343640D01*
X4729931Y-24364041D01*
X4671348Y-24376066D01*
X4612577Y-24387277D01*
X4603755Y-24389941D01*
X4417317Y-24447653D01*
X4362162Y-24470838D01*
X4306709Y-24493242D01*
X4298573Y-24497568D01*
X4126896Y-24590393D01*
X4077278Y-24623861D01*
X4027247Y-24656600D01*
X4020106Y-24662424D01*
X3869728Y-24786828D01*
X3827589Y-24829263D01*
X3784839Y-24871126D01*
X3778966Y-24878227D01*
X3655616Y-25029469D01*
X3622534Y-25079262D01*
X3588716Y-25128651D01*
X3584333Y-25136757D01*
X3492708Y-25309079D01*
X3469909Y-25364394D01*
X3446348Y-25419366D01*
X3443623Y-25428169D01*
X3387214Y-25615005D01*
X3375594Y-25673693D01*
X3363158Y-25732196D01*
X3362195Y-25741361D01*
X3343150Y-25935595D01*
X3343150Y-25935608D01*
X3340001Y-25967581D01*
X3340001Y-26220335D01*
X3284180Y-26190498D01*
X3164482Y-26154188D01*
X3040000Y-26141928D01*
X2825750Y-26145000D01*
X2797750Y-26173000D01*
X2282250Y-26173000D01*
X2254250Y-26145000D01*
X2040000Y-26141928D01*
X1915518Y-26154188D01*
X1795820Y-26190498D01*
X1712774Y-26234888D01*
X1601067Y-26188617D01*
X1381788Y-26145000D01*
X1374030Y-26145000D01*
X1387346Y-26131684D01*
X1416422Y-26107822D01*
X1511645Y-25991792D01*
X1582402Y-25859415D01*
X1625974Y-25715778D01*
X1637000Y-25603826D01*
X1637000Y-25603824D01*
X1640686Y-25566401D01*
X1637000Y-25528978D01*
X1637000Y-25471895D01*
X1648942Y-25465512D01*
X1781623Y-25356623D01*
X1859278Y-25262000D01*
X1862577Y-25262000D01*
X1900000Y-25265686D01*
X1937423Y-25262000D01*
X1937426Y-25262000D01*
X2049378Y-25250974D01*
X2193015Y-25207402D01*
X2325392Y-25136645D01*
X2441422Y-25041422D01*
X2465283Y-25012347D01*
X3012352Y-24465278D01*
X3041422Y-24441422D01*
X3136645Y-24325392D01*
X3207402Y-24193015D01*
X3250974Y-24049378D01*
X3259231Y-23965537D01*
X3375518Y-24000812D01*
X3500000Y-24013072D01*
X3914250Y-24010000D01*
X4073000Y-23851250D01*
X4073000Y-22927000D01*
X4327000Y-22927000D01*
X4327000Y-23851250D01*
X4485750Y-24010000D01*
X4900000Y-24013072D01*
X5024482Y-24000812D01*
X5144180Y-23964502D01*
X5254494Y-23905537D01*
X5351185Y-23826185D01*
X5430537Y-23729494D01*
X5489502Y-23619180D01*
X5525812Y-23499482D01*
X5538072Y-23375000D01*
X5535000Y-23085750D01*
X5424250Y-22975000D01*
X6086928Y-22975000D01*
X6099188Y-23099482D01*
X6135498Y-23219180D01*
X6194463Y-23329494D01*
X6273815Y-23426185D01*
X6370506Y-23505537D01*
X6480820Y-23564502D01*
X6600518Y-23600812D01*
X6725000Y-23613072D01*
X6914250Y-23610000D01*
X7073000Y-23451250D01*
X7073000Y-22577000D01*
X7327000Y-22577000D01*
X7327000Y-23451250D01*
X7485750Y-23610000D01*
X7675000Y-23613072D01*
X7799482Y-23600812D01*
X7919180Y-23564502D01*
X8029494Y-23505537D01*
X8126185Y-23426185D01*
X8205537Y-23329494D01*
X8264502Y-23219180D01*
X8300812Y-23099482D01*
X8313072Y-22975000D01*
X8310000Y-22735750D01*
X8151250Y-22577000D01*
X7327000Y-22577000D01*
X7073000Y-22577000D01*
X6248750Y-22577000D01*
X6090000Y-22735750D01*
X6086928Y-22975000D01*
X5424250Y-22975000D01*
X5376250Y-22927000D01*
X4327000Y-22927000D01*
X4073000Y-22927000D01*
X4053000Y-22927000D01*
X4053000Y-22673000D01*
X4073000Y-22673000D01*
X4073000Y-22653000D01*
X4327000Y-22653000D01*
X4327000Y-22673000D01*
X5376250Y-22673000D01*
X5535000Y-22514250D01*
X5538072Y-22225000D01*
X5525812Y-22100518D01*
X5489502Y-21980820D01*
X5430537Y-21870506D01*
X5351185Y-21773815D01*
X5271406Y-21708342D01*
X5277962Y-21702962D01*
X5388405Y-21568387D01*
X5470472Y-21414851D01*
X5521008Y-21248255D01*
X5538072Y-21075001D01*
X5538072Y-20424999D01*
X5521008Y-20251745D01*
X5492264Y-20156986D01*
X5573000Y-20076250D01*
X5573000Y-18977000D01*
X5553000Y-18977000D01*
X5553000Y-18788072D01*
X5573000Y-18788072D01*
X5573000Y-15652000D01*
X5553000Y-15652000D01*
X5553000Y-15398000D01*
X5573000Y-15398000D01*
X5573000Y-15378000D01*
X5827000Y-15378000D01*
X5827000Y-15398000D01*
X5847000Y-15398000D01*
X5847000Y-15652000D01*
X5827000Y-15652000D01*
X5827000Y-18788072D01*
X5847000Y-18788072D01*
X5847000Y-18977000D01*
X5827000Y-18977000D01*
X5827000Y-20076250D01*
X5985750Y-20235000D01*
X6105260Y-20236714D01*
X6103752Y-20241684D01*
X6086928Y-20412500D01*
X6086928Y-20987500D01*
X6103752Y-21158316D01*
X6153577Y-21322567D01*
X6234488Y-21473942D01*
X6254099Y-21497839D01*
X6194463Y-21570506D01*
X6135498Y-21680820D01*
X6099188Y-21800518D01*
X6086928Y-21925000D01*
X6090000Y-22164250D01*
X6248750Y-22323000D01*
X7073000Y-22323000D01*
X7073000Y-22303000D01*
X7327000Y-22303000D01*
X7327000Y-22323000D01*
X8151250Y-22323000D01*
X8310000Y-22164250D01*
X8313072Y-21925000D01*
X8300812Y-21800518D01*
X8264502Y-21680820D01*
X8205537Y-21570506D01*
X8145901Y-21497839D01*
X8165512Y-21473942D01*
X8246423Y-21322567D01*
X8296248Y-21158316D01*
X8313072Y-20987500D01*
X8313072Y-20412500D01*
X8296248Y-20241684D01*
X8246423Y-20077433D01*
X8165512Y-19926058D01*
X8123257Y-19874571D01*
X8139502Y-19844180D01*
X8175812Y-19724482D01*
X8188072Y-19600000D01*
X8188072Y-18100000D01*
X8175812Y-17975518D01*
X8139502Y-17855820D01*
X8080537Y-17745506D01*
X8001185Y-17648815D01*
X7962000Y-17616657D01*
X7962000Y-16383343D01*
X8001185Y-16351185D01*
X8080537Y-16254494D01*
X8139502Y-16144180D01*
X8175812Y-16024482D01*
X8188072Y-15900000D01*
X8188072Y-14400000D01*
X8175812Y-14275518D01*
X8139502Y-14155820D01*
X8080537Y-14045506D01*
X8001185Y-13948815D01*
X7924925Y-13886230D01*
X7965462Y-13852962D01*
X8075905Y-13718386D01*
X8157972Y-13564850D01*
X8208508Y-13398254D01*
X8225572Y-13225000D01*
X8225572Y-11975000D01*
X8208508Y-11801746D01*
X8157972Y-11635150D01*
X8075905Y-11481614D01*
X7965462Y-11347038D01*
X7830886Y-11236595D01*
X7677350Y-11154528D01*
X7627326Y-11139354D01*
X7625974Y-11125622D01*
X7582402Y-10981985D01*
X7511645Y-10849608D01*
X7416422Y-10733578D01*
X7387342Y-10709712D01*
X7165285Y-10487655D01*
X7141422Y-10458578D01*
X7025392Y-10363355D01*
X6893015Y-10292598D01*
X6749378Y-10249026D01*
X6637426Y-10238000D01*
X6637423Y-10238000D01*
X6600000Y-10234314D01*
X6562577Y-10238000D01*
X6415631Y-10238000D01*
X6262000Y-10084370D01*
X6262000Y-7537423D01*
X6265686Y-7500000D01*
X6261936Y-7461928D01*
X6250974Y-7350622D01*
X6207402Y-7206985D01*
X6163790Y-7125392D01*
X6136645Y-7074607D01*
X6065279Y-6987648D01*
X6041422Y-6958578D01*
X6012351Y-6934720D01*
X5265284Y-6187653D01*
X5241422Y-6158578D01*
X5125392Y-6063355D01*
X4993015Y-5992598D01*
X4849378Y-5949026D01*
X4737426Y-5938000D01*
X4737423Y-5938000D01*
X4700000Y-5934314D01*
X4662577Y-5938000D01*
X4396990Y-5938000D01*
X4504494Y-5880537D01*
X4601185Y-5801185D01*
X4680537Y-5704494D01*
X4739502Y-5594180D01*
X4775812Y-5474482D01*
X4788072Y-5350000D01*
X4785000Y-4835750D01*
X4626250Y-4677000D01*
X3227000Y-4677000D01*
X3227000Y-4697000D01*
X2973000Y-4697000D01*
X2973000Y-4677000D01*
X2953000Y-4677000D01*
X2953000Y-4423000D01*
X2973000Y-4423000D01*
X2973000Y-4403000D01*
X3227000Y-4403000D01*
X3227000Y-4423000D01*
X4626250Y-4423000D01*
X4785000Y-4264250D01*
X4788072Y-3750000D01*
X4775812Y-3625518D01*
X4764247Y-3587393D01*
X4900000Y-3588072D01*
X5024482Y-3575812D01*
X5144180Y-3539502D01*
X5254494Y-3480537D01*
X5351185Y-3401185D01*
X5430537Y-3304494D01*
X5489502Y-3194180D01*
X5525812Y-3074482D01*
X5538072Y-2950000D01*
X5535000Y-2285750D01*
X5376250Y-2127000D01*
X4127000Y-2127000D01*
X4127000Y-2147000D01*
X3873000Y-2147000D01*
X3873000Y-2127000D01*
X2623750Y-2127000D01*
X2465000Y-2285750D01*
X2461928Y-2950000D01*
X2474188Y-3074482D01*
X2486079Y-3113681D01*
X2050000Y-3111928D01*
X1925518Y-3124188D01*
X1805820Y-3160498D01*
X1695506Y-3219463D01*
X1598815Y-3298815D01*
X1543503Y-3366213D01*
X1500000Y-3361928D01*
X1100000Y-3361928D01*
X975518Y-3374188D01*
X975000Y-3374345D01*
X974482Y-3374188D01*
X850000Y-3361928D01*
X450000Y-3361928D01*
X325518Y-3374188D01*
X325000Y-3374345D01*
X324482Y-3374188D01*
X200000Y-3361928D01*
X-200000Y-3361928D01*
X-324482Y-3374188D01*
X-325000Y-3374345D01*
X-325518Y-3374188D01*
X-450000Y-3361928D01*
X-850000Y-3361928D01*
X-974482Y-3374188D01*
X-1037660Y-3393353D01*
X-1068250Y-3390000D01*
X-1086383Y-3408133D01*
X-1094180Y-3410498D01*
X-1204494Y-3469463D01*
X-1301185Y-3548815D01*
X-1373000Y-3636322D01*
X-1373000Y-3548750D01*
X-1511676Y-3410074D01*
X-1519463Y-3395506D01*
X-1598815Y-3298815D01*
X-1695506Y-3219463D01*
X-1805820Y-3160498D01*
X-1925518Y-3124188D01*
X-2050000Y-3111928D01*
X-2486079Y-3113681D01*
X-2474188Y-3074482D01*
X-2461928Y-2950000D01*
X-2465000Y-2285750D01*
X-2623750Y-2127000D01*
X-3873000Y-2127000D01*
X-3873000Y-2147000D01*
X-4127000Y-2147000D01*
X-4127000Y-2127000D01*
X-5376250Y-2127000D01*
X-5535000Y-2285750D01*
X-5538072Y-2950000D01*
X-5525812Y-3074482D01*
X-5489502Y-3194180D01*
X-5430537Y-3304494D01*
X-5351185Y-3401185D01*
X-5254494Y-3480537D01*
X-5144180Y-3539502D01*
X-5024482Y-3575812D01*
X-4900000Y-3588072D01*
X-4764247Y-3587393D01*
X-4775812Y-3625518D01*
X-4788072Y-3750000D01*
X-4785000Y-4264250D01*
X-4626250Y-4423000D01*
X-3227000Y-4423000D01*
X-3227000Y-4403000D01*
X-2973000Y-4403000D01*
X-2973000Y-4423000D01*
X-2953000Y-4423000D01*
X-2953000Y-4677000D01*
X-2973000Y-4677000D01*
X-2973000Y-5826250D01*
X-2814250Y-5985000D01*
X-2050000Y-5988072D01*
X-1925518Y-5975812D01*
X-1805820Y-5939502D01*
X-1798488Y-5935583D01*
X-1753576Y-5960521D01*
X-1634474Y-5998741D01*
X-1531750Y-6010000D01*
X-1373000Y-5851250D01*
X-1373000Y-5713678D01*
X-1301185Y-5801185D01*
X-1204494Y-5880537D01*
X-1189926Y-5888324D01*
X-1068250Y-6010000D01*
X-965526Y-5998741D01*
X-912957Y-5981871D01*
X-850000Y-5988072D01*
X-450000Y-5988072D01*
X-325518Y-5975812D01*
X-325000Y-5975655D01*
X-324482Y-5975812D01*
X-200000Y-5988072D01*
X200000Y-5988072D01*
X324482Y-5975812D01*
X325000Y-5975655D01*
X325518Y-5975812D01*
X450000Y-5988072D01*
X538000Y-5988072D01*
X538000Y-6062576D01*
X534314Y-6100000D01*
X538000Y-6137423D01*
X538000Y-6137425D01*
X549026Y-6249377D01*
X592598Y-6393014D01*
X592599Y-6393015D01*
X663355Y-6525392D01*
X684060Y-6550621D01*
X758578Y-6641422D01*
X787653Y-6665283D01*
X1334720Y-7212351D01*
X1358578Y-7241422D01*
X1474608Y-7336645D01*
X1606985Y-7407402D01*
X1750622Y-7450974D01*
X1862574Y-7462000D01*
X1862576Y-7462000D01*
X1899999Y-7465686D01*
X1937422Y-7462000D01*
X3309269Y-7462000D01*
X3185518Y-7474188D01*
X3065820Y-7510498D01*
X2982774Y-7554888D01*
X2871067Y-7508617D01*
X2651788Y-7465000D01*
X2428212Y-7465000D01*
X2208933Y-7508617D01*
X2002376Y-7594176D01*
X1900342Y-7662353D01*
X1830206Y-7612877D01*
X1626864Y-7522554D01*
X1571874Y-7505881D01*
X1397000Y-7632046D01*
X1397000Y-7665793D01*
X1143000Y-7667204D01*
X1143000Y-7632046D01*
X968126Y-7505881D01*
X913136Y-7522554D01*
X709794Y-7612877D01*
X635000Y-7665639D01*
X560206Y-7612877D01*
X356864Y-7522554D01*
X301874Y-7505881D01*
X127000Y-7632046D01*
X127000Y-7672848D01*
X-127000Y-7674259D01*
X-127000Y-7632046D01*
X-301874Y-7505881D01*
X-356864Y-7522554D01*
X-560206Y-7612877D01*
X-630342Y-7662353D01*
X-732376Y-7594176D01*
X-938933Y-7508617D01*
X-1158212Y-7465000D01*
X-1381788Y-7465000D01*
X-1601067Y-7508617D01*
X-1807624Y-7594176D01*
X-1909658Y-7662353D01*
X-1979794Y-7612877D01*
X-2183136Y-7522554D01*
X-2238126Y-7505881D01*
X-2413000Y-7632046D01*
X-2413000Y-7686959D01*
X-2667000Y-7688370D01*
X-2667000Y-7632046D01*
X-2841874Y-7505881D01*
X-2896864Y-7522554D01*
X-3100206Y-7612877D01*
X-3170342Y-7662353D01*
X-3272376Y-7594176D01*
X-3478933Y-7508617D01*
X-3698212Y-7465000D01*
X-3921788Y-7465000D01*
X-4141067Y-7508617D01*
X-4347624Y-7594176D01*
X-4533520Y-7718388D01*
X-4691612Y-7876480D01*
X-4815824Y-8062376D01*
X-4901383Y-8268933D01*
X-4945000Y-8488212D01*
X-4945000Y-8711788D01*
X-4901383Y-8931067D01*
X-4815824Y-9137624D01*
X-4750759Y-9235000D01*
X-4815824Y-9332376D01*
X-4901383Y-9538933D01*
X-4945000Y-9758212D01*
X-4945000Y-9981788D01*
X-4901383Y-10201067D01*
X-4815824Y-10407624D01*
X-4691612Y-10593520D01*
X-4533520Y-10751612D01*
X-4347624Y-10875824D01*
X-4141067Y-10961383D01*
X-3921788Y-11005000D01*
X-3698212Y-11005000D01*
X-3478933Y-10961383D01*
X-3272376Y-10875824D01*
X-3175000Y-10810759D01*
X-3077624Y-10875824D01*
X-2871067Y-10961383D01*
X-2651788Y-11005000D01*
X-2428212Y-11005000D01*
X-2208933Y-10961383D01*
X-2002376Y-10875824D01*
X-1905000Y-10810759D01*
X-1807624Y-10875824D01*
X-1601067Y-10961383D01*
X-1381788Y-11005000D01*
X-1158212Y-11005000D01*
X-938933Y-10961383D01*
X-732376Y-10875824D01*
X-635000Y-10810759D01*
X-537624Y-10875824D01*
X-331067Y-10961383D01*
X-111788Y-11005000D01*
X111788Y-11005000D01*
X331067Y-10961383D01*
X460670Y-10907700D01*
X130370Y-11238000D01*
X-1062578Y-11238000D01*
X-1100001Y-11234314D01*
X-1137424Y-11238000D01*
X-1137426Y-11238000D01*
X-1249378Y-11249026D01*
X-1393015Y-11292598D01*
X-1525392Y-11363355D01*
X-1641422Y-11458578D01*
X-1665279Y-11487649D01*
X-2512351Y-12334721D01*
X-2541421Y-12358578D01*
X-2565278Y-12387648D01*
X-2565279Y-12387649D01*
X-2636645Y-12474608D01*
X-2707401Y-12606985D01*
X-2750973Y-12750622D01*
X-2765686Y-12900000D01*
X-2761999Y-12937433D01*
X-2762000Y-25362577D01*
X-2765686Y-25400000D01*
X-2762000Y-25437423D01*
X-2762000Y-25437425D01*
X-2750974Y-25549377D01*
X-2707402Y-25693014D01*
X-2682766Y-25739105D01*
X-2636645Y-25825392D01*
X-2599895Y-25870172D01*
X-2541422Y-25941422D01*
X-2512347Y-25965284D01*
X-2308897Y-26168733D01*
X-2428212Y-26145000D01*
X-2651788Y-26145000D01*
X-2871067Y-26188617D01*
X-3077624Y-26274176D01*
X-3263520Y-26398388D01*
X-3340000Y-26474868D01*
X-3340000Y-25967581D01*
X-3342783Y-25939326D01*
X-3342740Y-25933199D01*
X-3343640Y-25924028D01*
X-3364041Y-25729931D01*
X-3376066Y-25671348D01*
X-3387277Y-25612577D01*
X-3389941Y-25603755D01*
X-3447653Y-25417317D01*
X-3470838Y-25362162D01*
X-3493242Y-25306709D01*
X-3497568Y-25298573D01*
X-3590393Y-25126896D01*
X-3623861Y-25077278D01*
X-3656600Y-25027247D01*
X-3662424Y-25020106D01*
X-3786828Y-24869728D01*
X-3829263Y-24827589D01*
X-3871126Y-24784839D01*
X-3878227Y-24778966D01*
X-4029469Y-24655616D01*
X-4079262Y-24622534D01*
X-4128651Y-24588716D01*
X-4136757Y-24584333D01*
X-4309079Y-24492708D01*
X-4364394Y-24469909D01*
X-4419366Y-24446348D01*
X-4428169Y-24443623D01*
X-4615005Y-24387214D01*
X-4673693Y-24375594D01*
X-4732196Y-24363158D01*
X-4741361Y-24362195D01*
X-4935595Y-24343150D01*
X-4935598Y-24343150D01*
X-4967581Y-24340000D01*
X-7967721Y-24340000D01*
X-8065424Y-24330420D01*
X-8128357Y-24311420D01*
X-8186406Y-24280554D01*
X-8237343Y-24239011D01*
X-8279248Y-24188356D01*
X-8310515Y-24130529D01*
X-8329956Y-24067728D01*
X-8340000Y-23972165D01*
X-8340000Y-20705413D01*
X-7915608Y-20705413D01*
X-7819844Y-20969814D01*
X-7530229Y-21110704D01*
X-7218692Y-21192384D01*
X-6897205Y-21211718D01*
X-6578125Y-21167961D01*
X-6273712Y-21062795D01*
X-6099756Y-20969814D01*
X-6003992Y-20705413D01*
X-6959800Y-19749605D01*
X-7915608Y-20705413D01*
X-8340000Y-20705413D01*
X-8340000Y-20437148D01*
X-8095213Y-20525808D01*
X-7139405Y-19570000D01*
X-6780195Y-19570000D01*
X-5824387Y-20525808D01*
X-5559986Y-20430044D01*
X-5419096Y-20140429D01*
X-5337416Y-19828892D01*
X-5318082Y-19507405D01*
X-5361839Y-19188325D01*
X-5467005Y-18883912D01*
X-5559986Y-18709956D01*
X-5824387Y-18614192D01*
X-6780195Y-19570000D01*
X-7139405Y-19570000D01*
X-8095213Y-18614192D01*
X-8340000Y-18702852D01*
X-8340000Y-17907307D01*
X-8229787Y-18072252D01*
X-8002052Y-18299987D01*
X-7893200Y-18372720D01*
X-7915608Y-18434587D01*
X-6959800Y-19390395D01*
X-6003992Y-18434587D01*
X-6026400Y-18372720D01*
X-5917548Y-18299987D01*
X-5689813Y-18072252D01*
X-5510882Y-17804463D01*
X-5387632Y-17506912D01*
X-5324800Y-17191033D01*
X-5324800Y-16868967D01*
X-5387632Y-16553088D01*
X-5510882Y-16255537D01*
X-5689813Y-15987748D01*
X-5917548Y-15760013D01*
X-5917567Y-15760000D01*
X-5917548Y-15759987D01*
X-5689813Y-15532252D01*
X-5510882Y-15264463D01*
X-5387632Y-14966912D01*
X-5324800Y-14651033D01*
X-5324800Y-14328967D01*
X-5387632Y-14013088D01*
X-5510882Y-13715537D01*
X-5689813Y-13447748D01*
X-5917548Y-13220013D01*
X-6185337Y-13041082D01*
X-6482888Y-12917832D01*
X-6798767Y-12855000D01*
X-7120833Y-12855000D01*
X-7436712Y-12917832D01*
X-7734263Y-13041082D01*
X-8002052Y-13220013D01*
X-8229787Y-13447748D01*
X-8340000Y-13612693D01*
X-8340000Y-5350000D01*
X-4788072Y-5350000D01*
X-4775812Y-5474482D01*
X-4739502Y-5594180D01*
X-4680537Y-5704494D01*
X-4601185Y-5801185D01*
X-4504494Y-5880537D01*
X-4394180Y-5939502D01*
X-4274482Y-5975812D01*
X-4150000Y-5988072D01*
X-3385750Y-5985000D01*
X-3227000Y-5826250D01*
X-3227000Y-4677000D01*
X-4626250Y-4677000D01*
X-4785000Y-4835750D01*
X-4788072Y-5350000D01*
X-8340000Y-5350000D01*
X-8340000Y-1032279D01*
X-8330420Y-934576D01*
X-8311420Y-871644D01*
X-8280555Y-813595D01*
X-8239011Y-762657D01*
X-8188356Y-720752D01*
X-8130529Y-689485D01*
X-8067728Y-670044D01*
X-7972165Y-660000D01*
X-5401398Y-660000D01*
X-5430537Y-695506D01*
G37*
X-5430537Y-695506D02*
X-5489502Y-805820D01*
X-5525812Y-925518D01*
X-5538072Y-1050000D01*
X-5535000Y-1714250D01*
X-5376250Y-1873000D01*
X-4127000Y-1873000D01*
X-4127000Y-1853000D01*
X-3873000Y-1853000D01*
X-3873000Y-1873000D01*
X-2623750Y-1873000D01*
X-2465000Y-1714250D01*
X-2461928Y-1050000D01*
X-2474188Y-925518D01*
X-2510498Y-805820D01*
X-2569463Y-695506D01*
X-2598602Y-660000D01*
X2598602Y-660000D01*
X2569463Y-695506D01*
X2510498Y-805820D01*
X2474188Y-925518D01*
X2461928Y-1050000D01*
X2465000Y-1714250D01*
X2623750Y-1873000D01*
X3873000Y-1873000D01*
X3873000Y-1853000D01*
X4127000Y-1853000D01*
X4127000Y-1873000D01*
X5376250Y-1873000D01*
X5535000Y-1714250D01*
X5538072Y-1050000D01*
X5525812Y-925518D01*
X5489502Y-805820D01*
X5430537Y-695506D01*
X5401398Y-660000D01*
X7967721Y-660000D01*
X8065424Y-669580D01*
X8128356Y-688580D01*
X8186405Y-719445D01*
X8237343Y-760989D01*
X8279248Y-811644D01*
X8310515Y-869471D01*
X8329956Y-932272D01*
X8340001Y-1027845D01*
X8340000Y-23967721D01*
X8330420Y-24065424D01*
X8311420Y-24128357D01*
X8280554Y-24186406D01*
X8239011Y-24237343D01*
X8188356Y-24279248D01*
X8130529Y-24310515D01*
X8067728Y-24329956D01*
X7972165Y-24340000D01*
X4967581Y-24340000D01*
X4939326Y-24342783D01*
X4933199Y-24342740D01*
X4924028Y-24343640D01*
X4729931Y-24364041D01*
X4671348Y-24376066D01*
X4612577Y-24387277D01*
X4603755Y-24389941D01*
X4417317Y-24447653D01*
X4362162Y-24470838D01*
X4306709Y-24493242D01*
X4298573Y-24497568D01*
X4126896Y-24590393D01*
X4077278Y-24623861D01*
X4027247Y-24656600D01*
X4020106Y-24662424D01*
X3869728Y-24786828D01*
X3827589Y-24829263D01*
X3784839Y-24871126D01*
X3778966Y-24878227D01*
X3655616Y-25029469D01*
X3622534Y-25079262D01*
X3588716Y-25128651D01*
X3584333Y-25136757D01*
X3492708Y-25309079D01*
X3469909Y-25364394D01*
X3446348Y-25419366D01*
X3443623Y-25428169D01*
X3387214Y-25615005D01*
X3375594Y-25673693D01*
X3363158Y-25732196D01*
X3362195Y-25741361D01*
X3343150Y-25935595D01*
X3343150Y-25935608D01*
X3340001Y-25967581D01*
X3340001Y-26220335D01*
X3284180Y-26190498D01*
X3164482Y-26154188D01*
X3040000Y-26141928D01*
X2825750Y-26145000D01*
X2797750Y-26173000D01*
X2282250Y-26173000D01*
X2254250Y-26145000D01*
X2040000Y-26141928D01*
X1915518Y-26154188D01*
X1795820Y-26190498D01*
X1712774Y-26234888D01*
X1601067Y-26188617D01*
X1381788Y-26145000D01*
X1374030Y-26145000D01*
X1387346Y-26131684D01*
X1416422Y-26107822D01*
X1511645Y-25991792D01*
X1582402Y-25859415D01*
X1625974Y-25715778D01*
X1637000Y-25603826D01*
X1637000Y-25603824D01*
X1640686Y-25566401D01*
X1637000Y-25528978D01*
X1637000Y-25471895D01*
X1648942Y-25465512D01*
X1781623Y-25356623D01*
X1859278Y-25262000D01*
X1862577Y-25262000D01*
X1900000Y-25265686D01*
X1937423Y-25262000D01*
X1937426Y-25262000D01*
X2049378Y-25250974D01*
X2193015Y-25207402D01*
X2325392Y-25136645D01*
X2441422Y-25041422D01*
X2465283Y-25012347D01*
X3012352Y-24465278D01*
X3041422Y-24441422D01*
X3136645Y-24325392D01*
X3207402Y-24193015D01*
X3250974Y-24049378D01*
X3259231Y-23965537D01*
X3375518Y-24000812D01*
X3500000Y-24013072D01*
X3914250Y-24010000D01*
X4073000Y-23851250D01*
X4073000Y-22927000D01*
X4327000Y-22927000D01*
X4327000Y-23851250D01*
X4485750Y-24010000D01*
X4900000Y-24013072D01*
X5024482Y-24000812D01*
X5144180Y-23964502D01*
X5254494Y-23905537D01*
X5351185Y-23826185D01*
X5430537Y-23729494D01*
X5489502Y-23619180D01*
X5525812Y-23499482D01*
X5538072Y-23375000D01*
X5535000Y-23085750D01*
X5424250Y-22975000D01*
X6086928Y-22975000D01*
X6099188Y-23099482D01*
X6135498Y-23219180D01*
X6194463Y-23329494D01*
X6273815Y-23426185D01*
X6370506Y-23505537D01*
X6480820Y-23564502D01*
X6600518Y-23600812D01*
X6725000Y-23613072D01*
X6914250Y-23610000D01*
X7073000Y-23451250D01*
X7073000Y-22577000D01*
X7327000Y-22577000D01*
X7327000Y-23451250D01*
X7485750Y-23610000D01*
X7675000Y-23613072D01*
X7799482Y-23600812D01*
X7919180Y-23564502D01*
X8029494Y-23505537D01*
X8126185Y-23426185D01*
X8205537Y-23329494D01*
X8264502Y-23219180D01*
X8300812Y-23099482D01*
X8313072Y-22975000D01*
X8310000Y-22735750D01*
X8151250Y-22577000D01*
X7327000Y-22577000D01*
X7073000Y-22577000D01*
X6248750Y-22577000D01*
X6090000Y-22735750D01*
X6086928Y-22975000D01*
X5424250Y-22975000D01*
X5376250Y-22927000D01*
X4327000Y-22927000D01*
X4073000Y-22927000D01*
X4053000Y-22927000D01*
X4053000Y-22673000D01*
X4073000Y-22673000D01*
X4073000Y-22653000D01*
X4327000Y-22653000D01*
X4327000Y-22673000D01*
X5376250Y-22673000D01*
X5535000Y-22514250D01*
X5538072Y-22225000D01*
X5525812Y-22100518D01*
X5489502Y-21980820D01*
X5430537Y-21870506D01*
X5351185Y-21773815D01*
X5271406Y-21708342D01*
X5277962Y-21702962D01*
X5388405Y-21568387D01*
X5470472Y-21414851D01*
X5521008Y-21248255D01*
X5538072Y-21075001D01*
X5538072Y-20424999D01*
X5521008Y-20251745D01*
X5492264Y-20156986D01*
X5573000Y-20076250D01*
X5573000Y-18977000D01*
X5553000Y-18977000D01*
X5553000Y-18788072D01*
X5573000Y-18788072D01*
X5573000Y-15652000D01*
X5553000Y-15652000D01*
X5553000Y-15398000D01*
X5573000Y-15398000D01*
X5573000Y-15378000D01*
X5827000Y-15378000D01*
X5827000Y-15398000D01*
X5847000Y-15398000D01*
X5847000Y-15652000D01*
X5827000Y-15652000D01*
X5827000Y-18788072D01*
X5847000Y-18788072D01*
X5847000Y-18977000D01*
X5827000Y-18977000D01*
X5827000Y-20076250D01*
X5985750Y-20235000D01*
X6105260Y-20236714D01*
X6103752Y-20241684D01*
X6086928Y-20412500D01*
X6086928Y-20987500D01*
X6103752Y-21158316D01*
X6153577Y-21322567D01*
X6234488Y-21473942D01*
X6254099Y-21497839D01*
X6194463Y-21570506D01*
X6135498Y-21680820D01*
X6099188Y-21800518D01*
X6086928Y-21925000D01*
X6090000Y-22164250D01*
X6248750Y-22323000D01*
X7073000Y-22323000D01*
X7073000Y-22303000D01*
X7327000Y-22303000D01*
X7327000Y-22323000D01*
X8151250Y-22323000D01*
X8310000Y-22164250D01*
X8313072Y-21925000D01*
X8300812Y-21800518D01*
X8264502Y-21680820D01*
X8205537Y-21570506D01*
X8145901Y-21497839D01*
X8165512Y-21473942D01*
X8246423Y-21322567D01*
X8296248Y-21158316D01*
X8313072Y-20987500D01*
X8313072Y-20412500D01*
X8296248Y-20241684D01*
X8246423Y-20077433D01*
X8165512Y-19926058D01*
X8123257Y-19874571D01*
X8139502Y-19844180D01*
X8175812Y-19724482D01*
X8188072Y-19600000D01*
X8188072Y-18100000D01*
X8175812Y-17975518D01*
X8139502Y-17855820D01*
X8080537Y-17745506D01*
X8001185Y-17648815D01*
X7962000Y-17616657D01*
X7962000Y-16383343D01*
X8001185Y-16351185D01*
X8080537Y-16254494D01*
X8139502Y-16144180D01*
X8175812Y-16024482D01*
X8188072Y-15900000D01*
X8188072Y-14400000D01*
X8175812Y-14275518D01*
X8139502Y-14155820D01*
X8080537Y-14045506D01*
X8001185Y-13948815D01*
X7924925Y-13886230D01*
X7965462Y-13852962D01*
X8075905Y-13718386D01*
X8157972Y-13564850D01*
X8208508Y-13398254D01*
X8225572Y-13225000D01*
X8225572Y-11975000D01*
X8208508Y-11801746D01*
X8157972Y-11635150D01*
X8075905Y-11481614D01*
X7965462Y-11347038D01*
X7830886Y-11236595D01*
X7677350Y-11154528D01*
X7627326Y-11139354D01*
X7625974Y-11125622D01*
X7582402Y-10981985D01*
X7511645Y-10849608D01*
X7416422Y-10733578D01*
X7387342Y-10709712D01*
X7165285Y-10487655D01*
X7141422Y-10458578D01*
X7025392Y-10363355D01*
X6893015Y-10292598D01*
X6749378Y-10249026D01*
X6637426Y-10238000D01*
X6637423Y-10238000D01*
X6600000Y-10234314D01*
X6562577Y-10238000D01*
X6415631Y-10238000D01*
X6262000Y-10084370D01*
X6262000Y-7537423D01*
X6265686Y-7500000D01*
X6261936Y-7461928D01*
X6250974Y-7350622D01*
X6207402Y-7206985D01*
X6163790Y-7125392D01*
X6136645Y-7074607D01*
X6065279Y-6987648D01*
X6041422Y-6958578D01*
X6012351Y-6934720D01*
X5265284Y-6187653D01*
X5241422Y-6158578D01*
X5125392Y-6063355D01*
X4993015Y-5992598D01*
X4849378Y-5949026D01*
X4737426Y-5938000D01*
X4737423Y-5938000D01*
X4700000Y-5934314D01*
X4662577Y-5938000D01*
X4396990Y-5938000D01*
X4504494Y-5880537D01*
X4601185Y-5801185D01*
X4680537Y-5704494D01*
X4739502Y-5594180D01*
X4775812Y-5474482D01*
X4788072Y-5350000D01*
X4785000Y-4835750D01*
X4626250Y-4677000D01*
X3227000Y-4677000D01*
X3227000Y-4697000D01*
X2973000Y-4697000D01*
X2973000Y-4677000D01*
X2953000Y-4677000D01*
X2953000Y-4423000D01*
X2973000Y-4423000D01*
X2973000Y-4403000D01*
X3227000Y-4403000D01*
X3227000Y-4423000D01*
X4626250Y-4423000D01*
X4785000Y-4264250D01*
X4788072Y-3750000D01*
X4775812Y-3625518D01*
X4764247Y-3587393D01*
X4900000Y-3588072D01*
X5024482Y-3575812D01*
X5144180Y-3539502D01*
X5254494Y-3480537D01*
X5351185Y-3401185D01*
X5430537Y-3304494D01*
X5489502Y-3194180D01*
X5525812Y-3074482D01*
X5538072Y-2950000D01*
X5535000Y-2285750D01*
X5376250Y-2127000D01*
X4127000Y-2127000D01*
X4127000Y-2147000D01*
X3873000Y-2147000D01*
X3873000Y-2127000D01*
X2623750Y-2127000D01*
X2465000Y-2285750D01*
X2461928Y-2950000D01*
X2474188Y-3074482D01*
X2486079Y-3113681D01*
X2050000Y-3111928D01*
X1925518Y-3124188D01*
X1805820Y-3160498D01*
X1695506Y-3219463D01*
X1598815Y-3298815D01*
X1543503Y-3366213D01*
X1500000Y-3361928D01*
X1100000Y-3361928D01*
X975518Y-3374188D01*
X975000Y-3374345D01*
X974482Y-3374188D01*
X850000Y-3361928D01*
X450000Y-3361928D01*
X325518Y-3374188D01*
X325000Y-3374345D01*
X324482Y-3374188D01*
X200000Y-3361928D01*
X-200000Y-3361928D01*
X-324482Y-3374188D01*
X-325000Y-3374345D01*
X-325518Y-3374188D01*
X-450000Y-3361928D01*
X-850000Y-3361928D01*
X-974482Y-3374188D01*
X-1037660Y-3393353D01*
X-1068250Y-3390000D01*
X-1086383Y-3408133D01*
X-1094180Y-3410498D01*
X-1204494Y-3469463D01*
X-1301185Y-3548815D01*
X-1373000Y-3636322D01*
X-1373000Y-3548750D01*
X-1511676Y-3410074D01*
X-1519463Y-3395506D01*
X-1598815Y-3298815D01*
X-1695506Y-3219463D01*
X-1805820Y-3160498D01*
X-1925518Y-3124188D01*
X-2050000Y-3111928D01*
X-2486079Y-3113681D01*
X-2474188Y-3074482D01*
X-2461928Y-2950000D01*
X-2465000Y-2285750D01*
X-2623750Y-2127000D01*
X-3873000Y-2127000D01*
X-3873000Y-2147000D01*
X-4127000Y-2147000D01*
X-4127000Y-2127000D01*
X-5376250Y-2127000D01*
X-5535000Y-2285750D01*
X-5538072Y-2950000D01*
X-5525812Y-3074482D01*
X-5489502Y-3194180D01*
X-5430537Y-3304494D01*
X-5351185Y-3401185D01*
X-5254494Y-3480537D01*
X-5144180Y-3539502D01*
X-5024482Y-3575812D01*
X-4900000Y-3588072D01*
X-4764247Y-3587393D01*
X-4775812Y-3625518D01*
X-4788072Y-3750000D01*
X-4785000Y-4264250D01*
X-4626250Y-4423000D01*
X-3227000Y-4423000D01*
X-3227000Y-4403000D01*
X-2973000Y-4403000D01*
X-2973000Y-4423000D01*
X-2953000Y-4423000D01*
X-2953000Y-4677000D01*
X-2973000Y-4677000D01*
X-2973000Y-5826250D01*
X-2814250Y-5985000D01*
X-2050000Y-5988072D01*
X-1925518Y-5975812D01*
X-1805820Y-5939502D01*
X-1798488Y-5935583D01*
X-1753576Y-5960521D01*
X-1634474Y-5998741D01*
X-1531750Y-6010000D01*
X-1373000Y-5851250D01*
X-1373000Y-5713678D01*
X-1301185Y-5801185D01*
X-1204494Y-5880537D01*
X-1189926Y-5888324D01*
X-1068250Y-6010000D01*
X-965526Y-5998741D01*
X-912957Y-5981871D01*
X-850000Y-5988072D01*
X-450000Y-5988072D01*
X-325518Y-5975812D01*
X-325000Y-5975655D01*
X-324482Y-5975812D01*
X-200000Y-5988072D01*
X200000Y-5988072D01*
X324482Y-5975812D01*
X325000Y-5975655D01*
X325518Y-5975812D01*
X450000Y-5988072D01*
X538000Y-5988072D01*
X538000Y-6062576D01*
X534314Y-6100000D01*
X538000Y-6137423D01*
X538000Y-6137425D01*
X549026Y-6249377D01*
X592598Y-6393014D01*
X592599Y-6393015D01*
X663355Y-6525392D01*
X684060Y-6550621D01*
X758578Y-6641422D01*
X787653Y-6665283D01*
X1334720Y-7212351D01*
X1358578Y-7241422D01*
X1474608Y-7336645D01*
X1606985Y-7407402D01*
X1750622Y-7450974D01*
X1862574Y-7462000D01*
X1862576Y-7462000D01*
X1899999Y-7465686D01*
X1937422Y-7462000D01*
X3309269Y-7462000D01*
X3185518Y-7474188D01*
X3065820Y-7510498D01*
X2982774Y-7554888D01*
X2871067Y-7508617D01*
X2651788Y-7465000D01*
X2428212Y-7465000D01*
X2208933Y-7508617D01*
X2002376Y-7594176D01*
X1900342Y-7662353D01*
X1830206Y-7612877D01*
X1626864Y-7522554D01*
X1571874Y-7505881D01*
X1397000Y-7632046D01*
X1397000Y-7665793D01*
X1143000Y-7667204D01*
X1143000Y-7632046D01*
X968126Y-7505881D01*
X913136Y-7522554D01*
X709794Y-7612877D01*
X635000Y-7665639D01*
X560206Y-7612877D01*
X356864Y-7522554D01*
X301874Y-7505881D01*
X127000Y-7632046D01*
X127000Y-7672848D01*
X-127000Y-7674259D01*
X-127000Y-7632046D01*
X-301874Y-7505881D01*
X-356864Y-7522554D01*
X-560206Y-7612877D01*
X-630342Y-7662353D01*
X-732376Y-7594176D01*
X-938933Y-7508617D01*
X-1158212Y-7465000D01*
X-1381788Y-7465000D01*
X-1601067Y-7508617D01*
X-1807624Y-7594176D01*
X-1909658Y-7662353D01*
X-1979794Y-7612877D01*
X-2183136Y-7522554D01*
X-2238126Y-7505881D01*
X-2413000Y-7632046D01*
X-2413000Y-7686959D01*
X-2667000Y-7688370D01*
X-2667000Y-7632046D01*
X-2841874Y-7505881D01*
X-2896864Y-7522554D01*
X-3100206Y-7612877D01*
X-3170342Y-7662353D01*
X-3272376Y-7594176D01*
X-3478933Y-7508617D01*
X-3698212Y-7465000D01*
X-3921788Y-7465000D01*
X-4141067Y-7508617D01*
X-4347624Y-7594176D01*
X-4533520Y-7718388D01*
X-4691612Y-7876480D01*
X-4815824Y-8062376D01*
X-4901383Y-8268933D01*
X-4945000Y-8488212D01*
X-4945000Y-8711788D01*
X-4901383Y-8931067D01*
X-4815824Y-9137624D01*
X-4750759Y-9235000D01*
X-4815824Y-9332376D01*
X-4901383Y-9538933D01*
X-4945000Y-9758212D01*
X-4945000Y-9981788D01*
X-4901383Y-10201067D01*
X-4815824Y-10407624D01*
X-4691612Y-10593520D01*
X-4533520Y-10751612D01*
X-4347624Y-10875824D01*
X-4141067Y-10961383D01*
X-3921788Y-11005000D01*
X-3698212Y-11005000D01*
X-3478933Y-10961383D01*
X-3272376Y-10875824D01*
X-3175000Y-10810759D01*
X-3077624Y-10875824D01*
X-2871067Y-10961383D01*
X-2651788Y-11005000D01*
X-2428212Y-11005000D01*
X-2208933Y-10961383D01*
X-2002376Y-10875824D01*
X-1905000Y-10810759D01*
X-1807624Y-10875824D01*
X-1601067Y-10961383D01*
X-1381788Y-11005000D01*
X-1158212Y-11005000D01*
X-938933Y-10961383D01*
X-732376Y-10875824D01*
X-635000Y-10810759D01*
X-537624Y-10875824D01*
X-331067Y-10961383D01*
X-111788Y-11005000D01*
X111788Y-11005000D01*
X331067Y-10961383D01*
X460670Y-10907700D01*
X130370Y-11238000D01*
X-1062578Y-11238000D01*
X-1100001Y-11234314D01*
X-1137424Y-11238000D01*
X-1137426Y-11238000D01*
X-1249378Y-11249026D01*
X-1393015Y-11292598D01*
X-1525392Y-11363355D01*
X-1641422Y-11458578D01*
X-1665279Y-11487649D01*
X-2512351Y-12334721D01*
X-2541421Y-12358578D01*
X-2565278Y-12387648D01*
X-2565279Y-12387649D01*
X-2636645Y-12474608D01*
X-2707401Y-12606985D01*
X-2750973Y-12750622D01*
X-2765686Y-12900000D01*
X-2761999Y-12937433D01*
X-2762000Y-25362577D01*
X-2765686Y-25400000D01*
X-2762000Y-25437423D01*
X-2762000Y-25437425D01*
X-2750974Y-25549377D01*
X-2707402Y-25693014D01*
X-2682766Y-25739105D01*
X-2636645Y-25825392D01*
X-2599895Y-25870172D01*
X-2541422Y-25941422D01*
X-2512347Y-25965284D01*
X-2308897Y-26168733D01*
X-2428212Y-26145000D01*
X-2651788Y-26145000D01*
X-2871067Y-26188617D01*
X-3077624Y-26274176D01*
X-3263520Y-26398388D01*
X-3340000Y-26474868D01*
X-3340000Y-25967581D01*
X-3342783Y-25939326D01*
X-3342740Y-25933199D01*
X-3343640Y-25924028D01*
X-3364041Y-25729931D01*
X-3376066Y-25671348D01*
X-3387277Y-25612577D01*
X-3389941Y-25603755D01*
X-3447653Y-25417317D01*
X-3470838Y-25362162D01*
X-3493242Y-25306709D01*
X-3497568Y-25298573D01*
X-3590393Y-25126896D01*
X-3623861Y-25077278D01*
X-3656600Y-25027247D01*
X-3662424Y-25020106D01*
X-3786828Y-24869728D01*
X-3829263Y-24827589D01*
X-3871126Y-24784839D01*
X-3878227Y-24778966D01*
X-4029469Y-24655616D01*
X-4079262Y-24622534D01*
X-4128651Y-24588716D01*
X-4136757Y-24584333D01*
X-4309079Y-24492708D01*
X-4364394Y-24469909D01*
X-4419366Y-24446348D01*
X-4428169Y-24443623D01*
X-4615005Y-24387214D01*
X-4673693Y-24375594D01*
X-4732196Y-24363158D01*
X-4741361Y-24362195D01*
X-4935595Y-24343150D01*
X-4935598Y-24343150D01*
X-4967581Y-24340000D01*
X-7967721Y-24340000D01*
X-8065424Y-24330420D01*
X-8128357Y-24311420D01*
X-8186406Y-24280554D01*
X-8237343Y-24239011D01*
X-8279248Y-24188356D01*
X-8310515Y-24130529D01*
X-8329956Y-24067728D01*
X-8340000Y-23972165D01*
X-8340000Y-20705413D01*
X-7915608Y-20705413D01*
X-7819844Y-20969814D01*
X-7530229Y-21110704D01*
X-7218692Y-21192384D01*
X-6897205Y-21211718D01*
X-6578125Y-21167961D01*
X-6273712Y-21062795D01*
X-6099756Y-20969814D01*
X-6003992Y-20705413D01*
X-6959800Y-19749605D01*
X-7915608Y-20705413D01*
X-8340000Y-20705413D01*
X-8340000Y-20437148D01*
X-8095213Y-20525808D01*
X-7139405Y-19570000D01*
X-6780195Y-19570000D01*
X-5824387Y-20525808D01*
X-5559986Y-20430044D01*
X-5419096Y-20140429D01*
X-5337416Y-19828892D01*
X-5318082Y-19507405D01*
X-5361839Y-19188325D01*
X-5467005Y-18883912D01*
X-5559986Y-18709956D01*
X-5824387Y-18614192D01*
X-6780195Y-19570000D01*
X-7139405Y-19570000D01*
X-8095213Y-18614192D01*
X-8340000Y-18702852D01*
X-8340000Y-17907307D01*
X-8229787Y-18072252D01*
X-8002052Y-18299987D01*
X-7893200Y-18372720D01*
X-7915608Y-18434587D01*
X-6959800Y-19390395D01*
X-6003992Y-18434587D01*
X-6026400Y-18372720D01*
X-5917548Y-18299987D01*
X-5689813Y-18072252D01*
X-5510882Y-17804463D01*
X-5387632Y-17506912D01*
X-5324800Y-17191033D01*
X-5324800Y-16868967D01*
X-5387632Y-16553088D01*
X-5510882Y-16255537D01*
X-5689813Y-15987748D01*
X-5917548Y-15760013D01*
X-5917567Y-15760000D01*
X-5917548Y-15759987D01*
X-5689813Y-15532252D01*
X-5510882Y-15264463D01*
X-5387632Y-14966912D01*
X-5324800Y-14651033D01*
X-5324800Y-14328967D01*
X-5387632Y-14013088D01*
X-5510882Y-13715537D01*
X-5689813Y-13447748D01*
X-5917548Y-13220013D01*
X-6185337Y-13041082D01*
X-6482888Y-12917832D01*
X-6798767Y-12855000D01*
X-7120833Y-12855000D01*
X-7436712Y-12917832D01*
X-7734263Y-13041082D01*
X-8002052Y-13220013D01*
X-8229787Y-13447748D01*
X-8340000Y-13612693D01*
X-8340000Y-5350000D01*
X-4788072Y-5350000D01*
X-4775812Y-5474482D01*
X-4739502Y-5594180D01*
X-4680537Y-5704494D01*
X-4601185Y-5801185D01*
X-4504494Y-5880537D01*
X-4394180Y-5939502D01*
X-4274482Y-5975812D01*
X-4150000Y-5988072D01*
X-3385750Y-5985000D01*
X-3227000Y-5826250D01*
X-3227000Y-4677000D01*
X-4626250Y-4677000D01*
X-4785000Y-4835750D01*
X-4788072Y-5350000D01*
X-8340000Y-5350000D01*
X-8340000Y-1032279D01*
X-8330420Y-934576D01*
X-8311420Y-871644D01*
X-8280555Y-813595D01*
X-8239011Y-762657D01*
X-8188356Y-720752D01*
X-8130529Y-689485D01*
X-8067728Y-670044D01*
X-7972165Y-660000D01*
X-5401398Y-660000D01*
X-5430537Y-695506D01*
G36*
X525871Y-17503684D02*
G01*
X650929Y-17528560D01*
X1738001Y-18615632D01*
X1738000Y-20262576D01*
X1734314Y-20300000D01*
X1738000Y-20337423D01*
X1738000Y-20337425D01*
X1749026Y-20449377D01*
X1792598Y-20593014D01*
X1792599Y-20593015D01*
X1863355Y-20725392D01*
X1883550Y-20750000D01*
X1863355Y-20774608D01*
X1792599Y-20906985D01*
X1749027Y-21050622D01*
X1734314Y-21200000D01*
X1738001Y-21237433D01*
X1738001Y-21985647D01*
X1644180Y-21935498D01*
X1524482Y-21899188D01*
X1400000Y-21886928D01*
X1160750Y-21890000D01*
X1002000Y-22048750D01*
X1002000Y-22873000D01*
X1022000Y-22873000D01*
X1022000Y-23127000D01*
X1002000Y-23127000D01*
X1002000Y-23147000D01*
X748000Y-23147000D01*
X748000Y-23127000D01*
X728000Y-23127000D01*
X728000Y-22873000D01*
X748000Y-22873000D01*
X748000Y-22048750D01*
X589250Y-21890000D01*
X350000Y-21886928D01*
X225518Y-21899188D01*
X105820Y-21935498D01*
X-4494Y-21994463D01*
X-77161Y-22054099D01*
X-101058Y-22034488D01*
X-252433Y-21953577D01*
X-416684Y-21903752D01*
X-587500Y-21886928D01*
X-1162500Y-21886928D01*
X-1238000Y-21894364D01*
X-1238000Y-21591377D01*
X-1124482Y-21625812D01*
X-1000000Y-21638072D01*
X1000000Y-21638072D01*
X1124482Y-21625812D01*
X1244180Y-21589502D01*
X1354494Y-21530537D01*
X1451185Y-21451185D01*
X1530537Y-21354494D01*
X1589502Y-21244180D01*
X1625812Y-21124482D01*
X1638072Y-21000000D01*
X1638072Y-19000000D01*
X1625812Y-18875518D01*
X1589502Y-18755820D01*
X1530537Y-18645506D01*
X1451185Y-18548815D01*
X1354494Y-18469463D01*
X1244180Y-18410498D01*
X1124482Y-18374188D01*
X1000000Y-18361928D01*
X939800Y-18361928D01*
X939800Y-18207438D01*
X903684Y-18025871D01*
X832840Y-17854838D01*
X729990Y-17700913D01*
X599087Y-17570010D01*
X457342Y-17475298D01*
X525871Y-17503684D01*
G37*
X525871Y-17503684D02*
X650929Y-17528560D01*
X1738001Y-18615632D01*
X1738000Y-20262576D01*
X1734314Y-20300000D01*
X1738000Y-20337423D01*
X1738000Y-20337425D01*
X1749026Y-20449377D01*
X1792598Y-20593014D01*
X1792599Y-20593015D01*
X1863355Y-20725392D01*
X1883550Y-20750000D01*
X1863355Y-20774608D01*
X1792599Y-20906985D01*
X1749027Y-21050622D01*
X1734314Y-21200000D01*
X1738001Y-21237433D01*
X1738001Y-21985647D01*
X1644180Y-21935498D01*
X1524482Y-21899188D01*
X1400000Y-21886928D01*
X1160750Y-21890000D01*
X1002000Y-22048750D01*
X1002000Y-22873000D01*
X1022000Y-22873000D01*
X1022000Y-23127000D01*
X1002000Y-23127000D01*
X1002000Y-23147000D01*
X748000Y-23147000D01*
X748000Y-23127000D01*
X728000Y-23127000D01*
X728000Y-22873000D01*
X748000Y-22873000D01*
X748000Y-22048750D01*
X589250Y-21890000D01*
X350000Y-21886928D01*
X225518Y-21899188D01*
X105820Y-21935498D01*
X-4494Y-21994463D01*
X-77161Y-22054099D01*
X-101058Y-22034488D01*
X-252433Y-21953577D01*
X-416684Y-21903752D01*
X-587500Y-21886928D01*
X-1162500Y-21886928D01*
X-1238000Y-21894364D01*
X-1238000Y-21591377D01*
X-1124482Y-21625812D01*
X-1000000Y-21638072D01*
X1000000Y-21638072D01*
X1124482Y-21625812D01*
X1244180Y-21589502D01*
X1354494Y-21530537D01*
X1451185Y-21451185D01*
X1530537Y-21354494D01*
X1589502Y-21244180D01*
X1625812Y-21124482D01*
X1638072Y-21000000D01*
X1638072Y-19000000D01*
X1625812Y-18875518D01*
X1589502Y-18755820D01*
X1530537Y-18645506D01*
X1451185Y-18548815D01*
X1354494Y-18469463D01*
X1244180Y-18410498D01*
X1124482Y-18374188D01*
X1000000Y-18361928D01*
X939800Y-18361928D01*
X939800Y-18207438D01*
X903684Y-18025871D01*
X832840Y-17854838D01*
X729990Y-17700913D01*
X599087Y-17570010D01*
X457342Y-17475298D01*
X525871Y-17503684D01*
G36*
X4749026Y-10549377D02*
G01*
X4792598Y-10693014D01*
X4800065Y-10706984D01*
X4863355Y-10825392D01*
X4883229Y-10849608D01*
X4958578Y-10941422D01*
X4987653Y-10965283D01*
X5534720Y-11512351D01*
X5558578Y-11541422D01*
X5616652Y-11589082D01*
X5592028Y-11635150D01*
X5541492Y-11801746D01*
X5525561Y-11963494D01*
X5525392Y-11963355D01*
X5393015Y-11892598D01*
X5249378Y-11849026D01*
X5238055Y-11847911D01*
X5233508Y-11801746D01*
X5182972Y-11635150D01*
X5100905Y-11481614D01*
X4990462Y-11347038D01*
X4855886Y-11236595D01*
X4702350Y-11154528D01*
X4535754Y-11103992D01*
X4362500Y-11086928D01*
X3437500Y-11086928D01*
X3264246Y-11103992D01*
X3097650Y-11154528D01*
X2944114Y-11236595D01*
X2809538Y-11347038D01*
X2699095Y-11481614D01*
X2617028Y-11635150D01*
X2566492Y-11801746D01*
X2554796Y-11920493D01*
X2474608Y-11963355D01*
X2358578Y-12058578D01*
X2334716Y-12087654D01*
X1987654Y-12434716D01*
X1958578Y-12458578D01*
X1905093Y-12523750D01*
X1863355Y-12574608D01*
X1830196Y-12636645D01*
X1792598Y-12706986D01*
X1749026Y-12850623D01*
X1738394Y-12958579D01*
X1734314Y-13000000D01*
X1738000Y-13037424D01*
X1738001Y-14984369D01*
X1628863Y-15093507D01*
X1638072Y-15000000D01*
X1635000Y-14285750D01*
X1476250Y-14127000D01*
X127000Y-14127000D01*
X127000Y-14147000D01*
X-127000Y-14147000D01*
X-127000Y-14127000D01*
X-147000Y-14127000D01*
X-147000Y-13873000D01*
X-127000Y-13873000D01*
X-127000Y-13853000D01*
X127000Y-13853000D01*
X127000Y-13873000D01*
X1476250Y-13873000D01*
X1635000Y-13714250D01*
X1638072Y-13000000D01*
X1625812Y-12875518D01*
X1589502Y-12755820D01*
X1530537Y-12645506D01*
X1451185Y-12548815D01*
X1354494Y-12469463D01*
X1244180Y-12410498D01*
X1143633Y-12379997D01*
X1782353Y-11741278D01*
X1811422Y-11717422D01*
X1878941Y-11635150D01*
X1906645Y-11601393D01*
X1967442Y-11487649D01*
X1977402Y-11469015D01*
X2020974Y-11325378D01*
X2032000Y-11213426D01*
X2032000Y-11213423D01*
X2035686Y-11176000D01*
X2032000Y-11138577D01*
X2032000Y-10888095D01*
X2208933Y-10961383D01*
X2428212Y-11005000D01*
X2651788Y-11005000D01*
X2871067Y-10961383D01*
X3077624Y-10875824D01*
X3175000Y-10810759D01*
X3272376Y-10875824D01*
X3478933Y-10961383D01*
X3698212Y-11005000D01*
X3921788Y-11005000D01*
X4141067Y-10961383D01*
X4347624Y-10875824D01*
X4533520Y-10751612D01*
X4608971Y-10676161D01*
X4624776Y-10674560D01*
X4648601Y-10667333D01*
X4670557Y-10655597D01*
X4689803Y-10639803D01*
X4705597Y-10620557D01*
X4717333Y-10598601D01*
X4724560Y-10574776D01*
X4727000Y-10550000D01*
X4727000Y-10540558D01*
X4745439Y-10512962D01*
X4749026Y-10549377D01*
G37*
X4749026Y-10549377D02*
X4792598Y-10693014D01*
X4800065Y-10706984D01*
X4863355Y-10825392D01*
X4883229Y-10849608D01*
X4958578Y-10941422D01*
X4987653Y-10965283D01*
X5534720Y-11512351D01*
X5558578Y-11541422D01*
X5616652Y-11589082D01*
X5592028Y-11635150D01*
X5541492Y-11801746D01*
X5525561Y-11963494D01*
X5525392Y-11963355D01*
X5393015Y-11892598D01*
X5249378Y-11849026D01*
X5238055Y-11847911D01*
X5233508Y-11801746D01*
X5182972Y-11635150D01*
X5100905Y-11481614D01*
X4990462Y-11347038D01*
X4855886Y-11236595D01*
X4702350Y-11154528D01*
X4535754Y-11103992D01*
X4362500Y-11086928D01*
X3437500Y-11086928D01*
X3264246Y-11103992D01*
X3097650Y-11154528D01*
X2944114Y-11236595D01*
X2809538Y-11347038D01*
X2699095Y-11481614D01*
X2617028Y-11635150D01*
X2566492Y-11801746D01*
X2554796Y-11920493D01*
X2474608Y-11963355D01*
X2358578Y-12058578D01*
X2334716Y-12087654D01*
X1987654Y-12434716D01*
X1958578Y-12458578D01*
X1905093Y-12523750D01*
X1863355Y-12574608D01*
X1830196Y-12636645D01*
X1792598Y-12706986D01*
X1749026Y-12850623D01*
X1738394Y-12958579D01*
X1734314Y-13000000D01*
X1738000Y-13037424D01*
X1738001Y-14984369D01*
X1628863Y-15093507D01*
X1638072Y-15000000D01*
X1635000Y-14285750D01*
X1476250Y-14127000D01*
X127000Y-14127000D01*
X127000Y-14147000D01*
X-127000Y-14147000D01*
X-127000Y-14127000D01*
X-147000Y-14127000D01*
X-147000Y-13873000D01*
X-127000Y-13873000D01*
X-127000Y-13853000D01*
X127000Y-13853000D01*
X127000Y-13873000D01*
X1476250Y-13873000D01*
X1635000Y-13714250D01*
X1638072Y-13000000D01*
X1625812Y-12875518D01*
X1589502Y-12755820D01*
X1530537Y-12645506D01*
X1451185Y-12548815D01*
X1354494Y-12469463D01*
X1244180Y-12410498D01*
X1143633Y-12379997D01*
X1782353Y-11741278D01*
X1811422Y-11717422D01*
X1878941Y-11635150D01*
X1906645Y-11601393D01*
X1967442Y-11487649D01*
X1977402Y-11469015D01*
X2020974Y-11325378D01*
X2032000Y-11213426D01*
X2032000Y-11213423D01*
X2035686Y-11176000D01*
X2032000Y-11138577D01*
X2032000Y-10888095D01*
X2208933Y-10961383D01*
X2428212Y-11005000D01*
X2651788Y-11005000D01*
X2871067Y-10961383D01*
X3077624Y-10875824D01*
X3175000Y-10810759D01*
X3272376Y-10875824D01*
X3478933Y-10961383D01*
X3698212Y-11005000D01*
X3921788Y-11005000D01*
X4141067Y-10961383D01*
X4347624Y-10875824D01*
X4533520Y-10751612D01*
X4608971Y-10676161D01*
X4624776Y-10674560D01*
X4648601Y-10667333D01*
X4670557Y-10655597D01*
X4689803Y-10639803D01*
X4705597Y-10620557D01*
X4717333Y-10598601D01*
X4724560Y-10574776D01*
X4727000Y-10550000D01*
X4727000Y-10540558D01*
X4745439Y-10512962D01*
X4749026Y-10549377D01*
M02*
