G04 #@! TF.GenerationSoftware,KiCad,Pcbnew,(5.1.5-0-10_14)*
G04 #@! TF.CreationDate,2020-04-26T19:43:23+09:00*
G04 #@! TF.ProjectId,STM32DebugConnector,53544d33-3244-4656-9275-67436f6e6e65,1.0*
G04 #@! TF.SameCoordinates,Original*
G04 #@! TF.FileFunction,Copper,L1,Top*
G04 #@! TF.FilePolarity,Positive*
%FSLAX46Y46*%
G04 Gerber Fmt 4.6, Leading zero omitted, Abs format (unit mm)*
G04 Created by KiCad (PCBNEW (5.1.5-0-10_14)) date 2020-04-26 19:43:23*
%MOMM*%
%LPD*%
G04 APERTURE LIST*
%ADD10C,2.000000*%
%ADD11O,1.000000X1.000000*%
%ADD12R,1.000000X1.000000*%
%ADD13R,1.800000X1.900000*%
%ADD14R,2.100000X1.600000*%
%ADD15R,0.400000X1.350000*%
%ADD16R,0.800000X2.000000*%
%ADD17C,0.100000*%
%ADD18R,2.500000X1.000000*%
%ADD19R,2.500000X0.700000*%
%ADD20R,2.000000X2.000000*%
%ADD21R,1.800000X3.500000*%
%ADD22C,0.508000*%
%ADD23C,0.406400*%
%ADD24C,0.203200*%
%ADD25C,0.254000*%
G04 APERTURE END LIST*
D10*
X128695200Y-87017000D03*
X128695200Y-84477000D03*
X128695200Y-81937000D03*
D11*
X128187200Y-78635000D03*
X128187200Y-77365000D03*
X129457200Y-78635000D03*
X129457200Y-77365000D03*
X130727200Y-78635000D03*
X130727200Y-77365000D03*
X131997200Y-78635000D03*
X131997200Y-77365000D03*
X133267200Y-78635000D03*
X133267200Y-77365000D03*
X134537200Y-78635000D03*
X134537200Y-77365000D03*
X135807200Y-78635000D03*
D12*
X135807200Y-77365000D03*
D13*
X137697200Y-77501000D03*
X145697200Y-77501000D03*
D14*
X138597200Y-80051000D03*
X144797200Y-80051000D03*
D15*
X140397200Y-80201000D03*
X141047200Y-80176000D03*
X141697200Y-80176000D03*
X142347200Y-80176000D03*
X142997200Y-80176000D03*
D11*
X139477200Y-93031000D03*
X139477200Y-94301000D03*
X138207200Y-93031000D03*
X138207200Y-94301000D03*
X136937200Y-93031000D03*
X136937200Y-94301000D03*
X135667200Y-93031000D03*
X135667200Y-94301000D03*
X134397200Y-93031000D03*
D12*
X134397200Y-94301000D03*
D16*
X134156200Y-83501000D03*
G04 #@! TA.AperFunction,SMDPad,CuDef*
D17*
G36*
X133751200Y-84501000D02*
G01*
X133001200Y-84001000D01*
X133001200Y-83001000D01*
X133751200Y-82501000D01*
X133751200Y-84501000D01*
G37*
G04 #@! TD.AperFunction*
D18*
X136506200Y-83501000D03*
D19*
X131806200Y-85001000D03*
D18*
X131806200Y-83501000D03*
D19*
X131806200Y-82001000D03*
X136506200Y-85001000D03*
X136506200Y-82001000D03*
G04 #@! TA.AperFunction,SMDPad,CuDef*
D17*
G36*
X134561200Y-82501000D02*
G01*
X135311200Y-83001000D01*
X135311200Y-84001000D01*
X134561200Y-84501000D01*
X134561200Y-82501000D01*
G37*
G04 #@! TD.AperFunction*
D20*
X139997200Y-89001000D03*
X133997200Y-89001000D03*
G04 #@! TA.AperFunction,SMDPad,CuDef*
D17*
G36*
X142746704Y-86077204D02*
G01*
X142770973Y-86080804D01*
X142794771Y-86086765D01*
X142817871Y-86095030D01*
X142840049Y-86105520D01*
X142861093Y-86118133D01*
X142880798Y-86132747D01*
X142898977Y-86149223D01*
X142915453Y-86167402D01*
X142930067Y-86187107D01*
X142942680Y-86208151D01*
X142953170Y-86230329D01*
X142961435Y-86253429D01*
X142967396Y-86277227D01*
X142970996Y-86301496D01*
X142972200Y-86326000D01*
X142972200Y-87251000D01*
X142970996Y-87275504D01*
X142967396Y-87299773D01*
X142961435Y-87323571D01*
X142953170Y-87346671D01*
X142942680Y-87368849D01*
X142930067Y-87389893D01*
X142915453Y-87409598D01*
X142898977Y-87427777D01*
X142880798Y-87444253D01*
X142861093Y-87458867D01*
X142840049Y-87471480D01*
X142817871Y-87481970D01*
X142794771Y-87490235D01*
X142770973Y-87496196D01*
X142746704Y-87499796D01*
X142722200Y-87501000D01*
X141472200Y-87501000D01*
X141447696Y-87499796D01*
X141423427Y-87496196D01*
X141399629Y-87490235D01*
X141376529Y-87481970D01*
X141354351Y-87471480D01*
X141333307Y-87458867D01*
X141313602Y-87444253D01*
X141295423Y-87427777D01*
X141278947Y-87409598D01*
X141264333Y-87389893D01*
X141251720Y-87368849D01*
X141241230Y-87346671D01*
X141232965Y-87323571D01*
X141227004Y-87299773D01*
X141223404Y-87275504D01*
X141222200Y-87251000D01*
X141222200Y-86326000D01*
X141223404Y-86301496D01*
X141227004Y-86277227D01*
X141232965Y-86253429D01*
X141241230Y-86230329D01*
X141251720Y-86208151D01*
X141264333Y-86187107D01*
X141278947Y-86167402D01*
X141295423Y-86149223D01*
X141313602Y-86132747D01*
X141333307Y-86118133D01*
X141354351Y-86105520D01*
X141376529Y-86095030D01*
X141399629Y-86086765D01*
X141423427Y-86080804D01*
X141447696Y-86077204D01*
X141472200Y-86076000D01*
X142722200Y-86076000D01*
X142746704Y-86077204D01*
G37*
G04 #@! TD.AperFunction*
G04 #@! TA.AperFunction,SMDPad,CuDef*
G36*
X142746704Y-83102204D02*
G01*
X142770973Y-83105804D01*
X142794771Y-83111765D01*
X142817871Y-83120030D01*
X142840049Y-83130520D01*
X142861093Y-83143133D01*
X142880798Y-83157747D01*
X142898977Y-83174223D01*
X142915453Y-83192402D01*
X142930067Y-83212107D01*
X142942680Y-83233151D01*
X142953170Y-83255329D01*
X142961435Y-83278429D01*
X142967396Y-83302227D01*
X142970996Y-83326496D01*
X142972200Y-83351000D01*
X142972200Y-84276000D01*
X142970996Y-84300504D01*
X142967396Y-84324773D01*
X142961435Y-84348571D01*
X142953170Y-84371671D01*
X142942680Y-84393849D01*
X142930067Y-84414893D01*
X142915453Y-84434598D01*
X142898977Y-84452777D01*
X142880798Y-84469253D01*
X142861093Y-84483867D01*
X142840049Y-84496480D01*
X142817871Y-84506970D01*
X142794771Y-84515235D01*
X142770973Y-84521196D01*
X142746704Y-84524796D01*
X142722200Y-84526000D01*
X141472200Y-84526000D01*
X141447696Y-84524796D01*
X141423427Y-84521196D01*
X141399629Y-84515235D01*
X141376529Y-84506970D01*
X141354351Y-84496480D01*
X141333307Y-84483867D01*
X141313602Y-84469253D01*
X141295423Y-84452777D01*
X141278947Y-84434598D01*
X141264333Y-84414893D01*
X141251720Y-84393849D01*
X141241230Y-84371671D01*
X141232965Y-84348571D01*
X141227004Y-84324773D01*
X141223404Y-84300504D01*
X141222200Y-84276000D01*
X141222200Y-83351000D01*
X141223404Y-83326496D01*
X141227004Y-83302227D01*
X141232965Y-83278429D01*
X141241230Y-83255329D01*
X141251720Y-83233151D01*
X141264333Y-83212107D01*
X141278947Y-83192402D01*
X141295423Y-83174223D01*
X141313602Y-83157747D01*
X141333307Y-83143133D01*
X141354351Y-83130520D01*
X141376529Y-83120030D01*
X141399629Y-83111765D01*
X141423427Y-83105804D01*
X141447696Y-83102204D01*
X141472200Y-83101000D01*
X142722200Y-83101000D01*
X142746704Y-83102204D01*
G37*
G04 #@! TD.AperFunction*
D21*
X144997200Y-83001000D03*
X144997200Y-88001000D03*
G04 #@! TA.AperFunction,SMDPad,CuDef*
D17*
G36*
X139771705Y-82652204D02*
G01*
X139795973Y-82655804D01*
X139819772Y-82661765D01*
X139842871Y-82670030D01*
X139865050Y-82680520D01*
X139886093Y-82693132D01*
X139905799Y-82707747D01*
X139923977Y-82724223D01*
X139940453Y-82742401D01*
X139955068Y-82762107D01*
X139967680Y-82783150D01*
X139978170Y-82805329D01*
X139986435Y-82828428D01*
X139992396Y-82852227D01*
X139995996Y-82876495D01*
X139997200Y-82900999D01*
X139997200Y-83551001D01*
X139995996Y-83575505D01*
X139992396Y-83599773D01*
X139986435Y-83623572D01*
X139978170Y-83646671D01*
X139967680Y-83668850D01*
X139955068Y-83689893D01*
X139940453Y-83709599D01*
X139923977Y-83727777D01*
X139905799Y-83744253D01*
X139886093Y-83758868D01*
X139865050Y-83771480D01*
X139842871Y-83781970D01*
X139819772Y-83790235D01*
X139795973Y-83796196D01*
X139771705Y-83799796D01*
X139747201Y-83801000D01*
X138847199Y-83801000D01*
X138822695Y-83799796D01*
X138798427Y-83796196D01*
X138774628Y-83790235D01*
X138751529Y-83781970D01*
X138729350Y-83771480D01*
X138708307Y-83758868D01*
X138688601Y-83744253D01*
X138670423Y-83727777D01*
X138653947Y-83709599D01*
X138639332Y-83689893D01*
X138626720Y-83668850D01*
X138616230Y-83646671D01*
X138607965Y-83623572D01*
X138602004Y-83599773D01*
X138598404Y-83575505D01*
X138597200Y-83551001D01*
X138597200Y-82900999D01*
X138598404Y-82876495D01*
X138602004Y-82852227D01*
X138607965Y-82828428D01*
X138616230Y-82805329D01*
X138626720Y-82783150D01*
X138639332Y-82762107D01*
X138653947Y-82742401D01*
X138670423Y-82724223D01*
X138688601Y-82707747D01*
X138708307Y-82693132D01*
X138729350Y-82680520D01*
X138751529Y-82670030D01*
X138774628Y-82661765D01*
X138798427Y-82655804D01*
X138822695Y-82652204D01*
X138847199Y-82651000D01*
X139747201Y-82651000D01*
X139771705Y-82652204D01*
G37*
G04 #@! TD.AperFunction*
G04 #@! TA.AperFunction,SMDPad,CuDef*
G36*
X139771705Y-84702204D02*
G01*
X139795973Y-84705804D01*
X139819772Y-84711765D01*
X139842871Y-84720030D01*
X139865050Y-84730520D01*
X139886093Y-84743132D01*
X139905799Y-84757747D01*
X139923977Y-84774223D01*
X139940453Y-84792401D01*
X139955068Y-84812107D01*
X139967680Y-84833150D01*
X139978170Y-84855329D01*
X139986435Y-84878428D01*
X139992396Y-84902227D01*
X139995996Y-84926495D01*
X139997200Y-84950999D01*
X139997200Y-85601001D01*
X139995996Y-85625505D01*
X139992396Y-85649773D01*
X139986435Y-85673572D01*
X139978170Y-85696671D01*
X139967680Y-85718850D01*
X139955068Y-85739893D01*
X139940453Y-85759599D01*
X139923977Y-85777777D01*
X139905799Y-85794253D01*
X139886093Y-85808868D01*
X139865050Y-85821480D01*
X139842871Y-85831970D01*
X139819772Y-85840235D01*
X139795973Y-85846196D01*
X139771705Y-85849796D01*
X139747201Y-85851000D01*
X138847199Y-85851000D01*
X138822695Y-85849796D01*
X138798427Y-85846196D01*
X138774628Y-85840235D01*
X138751529Y-85831970D01*
X138729350Y-85821480D01*
X138708307Y-85808868D01*
X138688601Y-85794253D01*
X138670423Y-85777777D01*
X138653947Y-85759599D01*
X138639332Y-85739893D01*
X138626720Y-85718850D01*
X138616230Y-85696671D01*
X138607965Y-85673572D01*
X138602004Y-85649773D01*
X138598404Y-85625505D01*
X138597200Y-85601001D01*
X138597200Y-84950999D01*
X138598404Y-84926495D01*
X138602004Y-84902227D01*
X138607965Y-84878428D01*
X138616230Y-84855329D01*
X138626720Y-84833150D01*
X138639332Y-84812107D01*
X138653947Y-84792401D01*
X138670423Y-84774223D01*
X138688601Y-84757747D01*
X138708307Y-84743132D01*
X138729350Y-84730520D01*
X138751529Y-84720030D01*
X138774628Y-84711765D01*
X138798427Y-84705804D01*
X138822695Y-84702204D01*
X138847199Y-84701000D01*
X139747201Y-84701000D01*
X139771705Y-84702204D01*
G37*
G04 #@! TD.AperFunction*
G04 #@! TA.AperFunction,SMDPad,CuDef*
G36*
X141557979Y-81277144D02*
G01*
X141581034Y-81280563D01*
X141603643Y-81286227D01*
X141625587Y-81294079D01*
X141646657Y-81304044D01*
X141666648Y-81316026D01*
X141685368Y-81329910D01*
X141702638Y-81345562D01*
X141718290Y-81362832D01*
X141732174Y-81381552D01*
X141744156Y-81401543D01*
X141754121Y-81422613D01*
X141761973Y-81444557D01*
X141767637Y-81467166D01*
X141771056Y-81490221D01*
X141772200Y-81513500D01*
X141772200Y-81988500D01*
X141771056Y-82011779D01*
X141767637Y-82034834D01*
X141761973Y-82057443D01*
X141754121Y-82079387D01*
X141744156Y-82100457D01*
X141732174Y-82120448D01*
X141718290Y-82139168D01*
X141702638Y-82156438D01*
X141685368Y-82172090D01*
X141666648Y-82185974D01*
X141646657Y-82197956D01*
X141625587Y-82207921D01*
X141603643Y-82215773D01*
X141581034Y-82221437D01*
X141557979Y-82224856D01*
X141534700Y-82226000D01*
X140959700Y-82226000D01*
X140936421Y-82224856D01*
X140913366Y-82221437D01*
X140890757Y-82215773D01*
X140868813Y-82207921D01*
X140847743Y-82197956D01*
X140827752Y-82185974D01*
X140809032Y-82172090D01*
X140791762Y-82156438D01*
X140776110Y-82139168D01*
X140762226Y-82120448D01*
X140750244Y-82100457D01*
X140740279Y-82079387D01*
X140732427Y-82057443D01*
X140726763Y-82034834D01*
X140723344Y-82011779D01*
X140722200Y-81988500D01*
X140722200Y-81513500D01*
X140723344Y-81490221D01*
X140726763Y-81467166D01*
X140732427Y-81444557D01*
X140740279Y-81422613D01*
X140750244Y-81401543D01*
X140762226Y-81381552D01*
X140776110Y-81362832D01*
X140791762Y-81345562D01*
X140809032Y-81329910D01*
X140827752Y-81316026D01*
X140847743Y-81304044D01*
X140868813Y-81294079D01*
X140890757Y-81286227D01*
X140913366Y-81280563D01*
X140936421Y-81277144D01*
X140959700Y-81276000D01*
X141534700Y-81276000D01*
X141557979Y-81277144D01*
G37*
G04 #@! TD.AperFunction*
G04 #@! TA.AperFunction,SMDPad,CuDef*
G36*
X139807979Y-81277144D02*
G01*
X139831034Y-81280563D01*
X139853643Y-81286227D01*
X139875587Y-81294079D01*
X139896657Y-81304044D01*
X139916648Y-81316026D01*
X139935368Y-81329910D01*
X139952638Y-81345562D01*
X139968290Y-81362832D01*
X139982174Y-81381552D01*
X139994156Y-81401543D01*
X140004121Y-81422613D01*
X140011973Y-81444557D01*
X140017637Y-81467166D01*
X140021056Y-81490221D01*
X140022200Y-81513500D01*
X140022200Y-81988500D01*
X140021056Y-82011779D01*
X140017637Y-82034834D01*
X140011973Y-82057443D01*
X140004121Y-82079387D01*
X139994156Y-82100457D01*
X139982174Y-82120448D01*
X139968290Y-82139168D01*
X139952638Y-82156438D01*
X139935368Y-82172090D01*
X139916648Y-82185974D01*
X139896657Y-82197956D01*
X139875587Y-82207921D01*
X139853643Y-82215773D01*
X139831034Y-82221437D01*
X139807979Y-82224856D01*
X139784700Y-82226000D01*
X139209700Y-82226000D01*
X139186421Y-82224856D01*
X139163366Y-82221437D01*
X139140757Y-82215773D01*
X139118813Y-82207921D01*
X139097743Y-82197956D01*
X139077752Y-82185974D01*
X139059032Y-82172090D01*
X139041762Y-82156438D01*
X139026110Y-82139168D01*
X139012226Y-82120448D01*
X139000244Y-82100457D01*
X138990279Y-82079387D01*
X138982427Y-82057443D01*
X138976763Y-82034834D01*
X138973344Y-82011779D01*
X138972200Y-81988500D01*
X138972200Y-81513500D01*
X138973344Y-81490221D01*
X138976763Y-81467166D01*
X138982427Y-81444557D01*
X138990279Y-81422613D01*
X139000244Y-81401543D01*
X139012226Y-81381552D01*
X139026110Y-81362832D01*
X139041762Y-81345562D01*
X139059032Y-81329910D01*
X139077752Y-81316026D01*
X139097743Y-81304044D01*
X139118813Y-81294079D01*
X139140757Y-81286227D01*
X139163366Y-81280563D01*
X139186421Y-81277144D01*
X139209700Y-81276000D01*
X139784700Y-81276000D01*
X139807979Y-81277144D01*
G37*
G04 #@! TD.AperFunction*
D22*
X140403610Y-83632410D03*
X141767200Y-77501000D03*
X135680200Y-90319000D03*
X138347200Y-84350000D03*
X136696200Y-80667000D03*
X142157200Y-89176000D03*
X136696200Y-86001000D03*
X133775200Y-80032000D03*
X133140200Y-80540000D03*
X135680200Y-79651000D03*
X132446000Y-79524000D03*
D23*
X137697200Y-79151000D02*
X138597200Y-80051000D01*
X137697200Y-77501000D02*
X137697200Y-79151000D01*
X145697200Y-79151000D02*
X144797200Y-80051000D01*
X145697200Y-77501000D02*
X145697200Y-79151000D01*
X140247200Y-80051000D02*
X140397200Y-80201000D01*
X138597200Y-80051000D02*
X140247200Y-80051000D01*
X136781200Y-83226000D02*
X136506200Y-83501000D01*
X139297200Y-83226000D02*
X136781200Y-83226000D01*
X139997200Y-87594600D02*
X139997200Y-89001000D01*
X140403610Y-83632410D02*
X140403610Y-87188190D01*
X139997200Y-83226000D02*
X140403610Y-83632410D01*
X140403610Y-87188190D02*
X139997200Y-87594600D01*
X139297200Y-83226000D02*
X139997200Y-83226000D01*
D24*
X137697200Y-77501000D02*
X137697200Y-77451000D01*
D23*
X129090306Y-87017000D02*
X128695200Y-87017000D01*
X134397200Y-92323894D02*
X129090306Y-87017000D01*
X134397200Y-93031000D02*
X134397200Y-92323894D01*
X141015678Y-81751000D02*
X141247200Y-81751000D01*
X140397200Y-81132522D02*
X141015678Y-81751000D01*
X140397200Y-80201000D02*
X140397200Y-81132522D01*
X133267200Y-76657894D02*
X133267200Y-77365000D01*
X133466495Y-76458599D02*
X133267200Y-76657894D01*
X136654799Y-76458599D02*
X133466495Y-76458599D01*
X137697200Y-77501000D02*
X136654799Y-76458599D01*
X133267200Y-77365000D02*
X131997200Y-77365000D01*
X129656495Y-76458599D02*
X129457200Y-76657894D01*
X131797905Y-76458599D02*
X129656495Y-76458599D01*
X131997200Y-76657894D02*
X131797905Y-76458599D01*
X129457200Y-76657894D02*
X129457200Y-77365000D01*
X131997200Y-77365000D02*
X131997200Y-76657894D01*
X133690094Y-93031000D02*
X134397200Y-93031000D01*
X133490799Y-93230295D02*
X133690094Y-93031000D01*
X139912273Y-95207401D02*
X133572079Y-95207401D01*
X133572079Y-95207401D02*
X133490799Y-95126121D01*
X140383601Y-90793801D02*
X140383601Y-94736073D01*
X140383601Y-94736073D02*
X139912273Y-95207401D01*
X139997200Y-90407400D02*
X140383601Y-90793801D01*
X133490799Y-95126121D02*
X133490799Y-93230295D01*
X139997200Y-89001000D02*
X139997200Y-90407400D01*
X136506200Y-83501000D02*
X131806200Y-83501000D01*
X141767200Y-77501000D02*
X141776200Y-77492000D01*
X145697200Y-77501000D02*
X141767200Y-77501000D01*
X141767200Y-77501000D02*
X137697200Y-77501000D01*
X141588006Y-83813500D02*
X139525506Y-81751000D01*
X139525506Y-81751000D02*
X139497200Y-81751000D01*
X142097200Y-83813500D02*
X141588006Y-83813500D01*
X136756200Y-81751000D02*
X136506200Y-82001000D01*
X139497200Y-81751000D02*
X136756200Y-81751000D01*
X136506200Y-82001000D02*
X131806200Y-82001000D01*
X139022200Y-85001000D02*
X139297200Y-85276000D01*
X136506200Y-85001000D02*
X139022200Y-85001000D01*
X138597200Y-85276000D02*
X139297200Y-85276000D01*
X135680200Y-88193000D02*
X138597200Y-85276000D01*
X135680200Y-90319000D02*
X135680200Y-88193000D01*
X139273200Y-85276000D02*
X138347200Y-84350000D01*
X139297200Y-85276000D02*
X139273200Y-85276000D01*
X136118601Y-81244599D02*
X136696200Y-80667000D01*
X129387601Y-81244599D02*
X136118601Y-81244599D01*
X128695200Y-81937000D02*
X129387601Y-81244599D01*
X144997200Y-83001000D02*
X144997200Y-83851000D01*
X143138601Y-90157401D02*
X142157200Y-89176000D01*
X130219200Y-86001000D02*
X128695200Y-84477000D01*
X136696200Y-86001000D02*
X130219200Y-86001000D01*
X142997200Y-81001000D02*
X144997200Y-83001000D01*
X142997200Y-80176000D02*
X142997200Y-81001000D01*
X144997200Y-83851000D02*
X146303601Y-85157401D01*
X146222321Y-90157401D02*
X143138601Y-90157401D01*
X146303601Y-90076121D02*
X146222321Y-90157401D01*
X146303601Y-85157401D02*
X146303601Y-90076121D01*
X143309700Y-88001000D02*
X142097200Y-86788500D01*
X144997200Y-88001000D02*
X143309700Y-88001000D01*
D24*
X128687199Y-79134999D02*
X128187200Y-78635000D01*
X132714225Y-80082801D02*
X129635001Y-80082801D01*
X129635001Y-80082801D02*
X128687199Y-79134999D01*
X133019025Y-79778001D02*
X132714225Y-80082801D01*
X133521201Y-79778001D02*
X133019025Y-79778001D01*
X133775200Y-80032000D02*
X133521201Y-79778001D01*
X127687201Y-77864999D02*
X128187200Y-77365000D01*
X127382399Y-78169801D02*
X127687201Y-77864999D01*
X127382399Y-79021305D02*
X127382399Y-78169801D01*
X128901094Y-80540000D02*
X127382399Y-79021305D01*
X133140200Y-80540000D02*
X128901094Y-80540000D01*
X134283200Y-79651000D02*
X133267200Y-78635000D01*
X135680200Y-79651000D02*
X134283200Y-79651000D01*
X133997200Y-90091000D02*
X133997200Y-89001000D01*
X136937200Y-93031000D02*
X133997200Y-90091000D01*
X130346200Y-79524000D02*
X129457200Y-78635000D01*
X132446000Y-79524000D02*
X130346200Y-79524000D01*
D25*
G36*
X140584128Y-84276000D02*
G01*
X140601192Y-84449254D01*
X140651728Y-84615850D01*
X140733795Y-84769386D01*
X140844238Y-84903962D01*
X140978814Y-85014405D01*
X141132350Y-85096472D01*
X141298946Y-85147008D01*
X141472200Y-85164072D01*
X142722200Y-85164072D01*
X142895454Y-85147008D01*
X143062050Y-85096472D01*
X143215586Y-85014405D01*
X143350162Y-84903962D01*
X143460605Y-84769386D01*
X143460887Y-84768859D01*
X143471388Y-84875482D01*
X143507698Y-84995180D01*
X143566663Y-85105494D01*
X143646015Y-85202185D01*
X143742706Y-85281537D01*
X143853020Y-85340502D01*
X143972718Y-85376812D01*
X144097200Y-85389072D01*
X145349878Y-85389072D01*
X145465401Y-85504595D01*
X145465401Y-85612928D01*
X144097200Y-85612928D01*
X143972718Y-85625188D01*
X143853020Y-85661498D01*
X143742706Y-85720463D01*
X143646015Y-85799815D01*
X143566663Y-85896506D01*
X143530709Y-85963770D01*
X143460605Y-85832614D01*
X143350162Y-85698038D01*
X143215586Y-85587595D01*
X143062050Y-85505528D01*
X142895454Y-85454992D01*
X142722200Y-85437928D01*
X141472200Y-85437928D01*
X141298946Y-85454992D01*
X141132350Y-85505528D01*
X140978814Y-85587595D01*
X140844238Y-85698038D01*
X140733795Y-85832614D01*
X140651728Y-85986150D01*
X140601192Y-86152746D01*
X140584128Y-86326000D01*
X140584128Y-87251000D01*
X140595322Y-87364656D01*
X140282950Y-87366000D01*
X140124200Y-87524750D01*
X140124200Y-88874000D01*
X140144200Y-88874000D01*
X140144200Y-89128000D01*
X140124200Y-89128000D01*
X140124200Y-90477250D01*
X140282950Y-90636000D01*
X140997200Y-90639072D01*
X141121682Y-90626812D01*
X141162653Y-90614383D01*
X141148645Y-90631446D01*
X141148615Y-90631503D01*
X141148575Y-90631551D01*
X141118130Y-90688510D01*
X141087338Y-90746092D01*
X141087320Y-90746153D01*
X141087290Y-90746208D01*
X141068082Y-90809529D01*
X141049575Y-90870495D01*
X141049569Y-90870555D01*
X141049550Y-90870618D01*
X141043156Y-90935543D01*
X141036808Y-90999875D01*
X141040000Y-91032349D01*
X141040001Y-95340000D01*
X139934730Y-95340000D01*
X140014824Y-95306824D01*
X140200720Y-95182612D01*
X140358812Y-95024520D01*
X140483024Y-94838624D01*
X140568583Y-94632067D01*
X140612200Y-94412788D01*
X140612200Y-94189212D01*
X140568583Y-93969933D01*
X140483024Y-93763376D01*
X140417959Y-93666000D01*
X140483024Y-93568624D01*
X140568583Y-93362067D01*
X140612200Y-93142788D01*
X140612200Y-92919212D01*
X140568583Y-92699933D01*
X140483024Y-92493376D01*
X140358812Y-92307480D01*
X140200720Y-92149388D01*
X140014824Y-92025176D01*
X139808267Y-91939617D01*
X139588988Y-91896000D01*
X139365412Y-91896000D01*
X139146133Y-91939617D01*
X138939576Y-92025176D01*
X138842200Y-92090241D01*
X138744824Y-92025176D01*
X138538267Y-91939617D01*
X138318988Y-91896000D01*
X138095412Y-91896000D01*
X137876133Y-91939617D01*
X137669576Y-92025176D01*
X137572200Y-92090241D01*
X137474824Y-92025176D01*
X137268267Y-91939617D01*
X137048988Y-91896000D01*
X136843910Y-91896000D01*
X136068370Y-91120461D01*
X136101299Y-91106821D01*
X136246904Y-91009531D01*
X136370731Y-90885704D01*
X136468021Y-90740099D01*
X136535036Y-90578312D01*
X136569200Y-90406559D01*
X136569200Y-90231441D01*
X136535036Y-90059688D01*
X136518400Y-90019526D01*
X136518400Y-90001000D01*
X138359128Y-90001000D01*
X138371388Y-90125482D01*
X138407698Y-90245180D01*
X138466663Y-90355494D01*
X138546015Y-90452185D01*
X138642706Y-90531537D01*
X138753020Y-90590502D01*
X138872718Y-90626812D01*
X138997200Y-90639072D01*
X139711450Y-90636000D01*
X139870200Y-90477250D01*
X139870200Y-89128000D01*
X138520950Y-89128000D01*
X138362200Y-89286750D01*
X138359128Y-90001000D01*
X136518400Y-90001000D01*
X136518400Y-88540193D01*
X137057593Y-88001000D01*
X138359128Y-88001000D01*
X138362200Y-88715250D01*
X138520950Y-88874000D01*
X139870200Y-88874000D01*
X139870200Y-87524750D01*
X139711450Y-87366000D01*
X138997200Y-87362928D01*
X138872718Y-87375188D01*
X138753020Y-87411498D01*
X138642706Y-87470463D01*
X138546015Y-87549815D01*
X138466663Y-87646506D01*
X138407698Y-87756820D01*
X138371388Y-87876518D01*
X138359128Y-88001000D01*
X137057593Y-88001000D01*
X138606918Y-86451676D01*
X138673945Y-86472008D01*
X138847199Y-86489072D01*
X139747201Y-86489072D01*
X139920455Y-86472008D01*
X140087051Y-86421472D01*
X140240587Y-86339405D01*
X140375162Y-86228962D01*
X140485605Y-86094387D01*
X140567672Y-85940851D01*
X140618208Y-85774255D01*
X140635272Y-85601001D01*
X140635272Y-84950999D01*
X140618208Y-84777745D01*
X140567672Y-84611149D01*
X140485605Y-84457613D01*
X140375162Y-84323038D01*
X140368606Y-84317658D01*
X140448385Y-84252185D01*
X140527737Y-84155494D01*
X140584128Y-84049996D01*
X140584128Y-84276000D01*
G37*
X140584128Y-84276000D02*
X140601192Y-84449254D01*
X140651728Y-84615850D01*
X140733795Y-84769386D01*
X140844238Y-84903962D01*
X140978814Y-85014405D01*
X141132350Y-85096472D01*
X141298946Y-85147008D01*
X141472200Y-85164072D01*
X142722200Y-85164072D01*
X142895454Y-85147008D01*
X143062050Y-85096472D01*
X143215586Y-85014405D01*
X143350162Y-84903962D01*
X143460605Y-84769386D01*
X143460887Y-84768859D01*
X143471388Y-84875482D01*
X143507698Y-84995180D01*
X143566663Y-85105494D01*
X143646015Y-85202185D01*
X143742706Y-85281537D01*
X143853020Y-85340502D01*
X143972718Y-85376812D01*
X144097200Y-85389072D01*
X145349878Y-85389072D01*
X145465401Y-85504595D01*
X145465401Y-85612928D01*
X144097200Y-85612928D01*
X143972718Y-85625188D01*
X143853020Y-85661498D01*
X143742706Y-85720463D01*
X143646015Y-85799815D01*
X143566663Y-85896506D01*
X143530709Y-85963770D01*
X143460605Y-85832614D01*
X143350162Y-85698038D01*
X143215586Y-85587595D01*
X143062050Y-85505528D01*
X142895454Y-85454992D01*
X142722200Y-85437928D01*
X141472200Y-85437928D01*
X141298946Y-85454992D01*
X141132350Y-85505528D01*
X140978814Y-85587595D01*
X140844238Y-85698038D01*
X140733795Y-85832614D01*
X140651728Y-85986150D01*
X140601192Y-86152746D01*
X140584128Y-86326000D01*
X140584128Y-87251000D01*
X140595322Y-87364656D01*
X140282950Y-87366000D01*
X140124200Y-87524750D01*
X140124200Y-88874000D01*
X140144200Y-88874000D01*
X140144200Y-89128000D01*
X140124200Y-89128000D01*
X140124200Y-90477250D01*
X140282950Y-90636000D01*
X140997200Y-90639072D01*
X141121682Y-90626812D01*
X141162653Y-90614383D01*
X141148645Y-90631446D01*
X141148615Y-90631503D01*
X141148575Y-90631551D01*
X141118130Y-90688510D01*
X141087338Y-90746092D01*
X141087320Y-90746153D01*
X141087290Y-90746208D01*
X141068082Y-90809529D01*
X141049575Y-90870495D01*
X141049569Y-90870555D01*
X141049550Y-90870618D01*
X141043156Y-90935543D01*
X141036808Y-90999875D01*
X141040000Y-91032349D01*
X141040001Y-95340000D01*
X139934730Y-95340000D01*
X140014824Y-95306824D01*
X140200720Y-95182612D01*
X140358812Y-95024520D01*
X140483024Y-94838624D01*
X140568583Y-94632067D01*
X140612200Y-94412788D01*
X140612200Y-94189212D01*
X140568583Y-93969933D01*
X140483024Y-93763376D01*
X140417959Y-93666000D01*
X140483024Y-93568624D01*
X140568583Y-93362067D01*
X140612200Y-93142788D01*
X140612200Y-92919212D01*
X140568583Y-92699933D01*
X140483024Y-92493376D01*
X140358812Y-92307480D01*
X140200720Y-92149388D01*
X140014824Y-92025176D01*
X139808267Y-91939617D01*
X139588988Y-91896000D01*
X139365412Y-91896000D01*
X139146133Y-91939617D01*
X138939576Y-92025176D01*
X138842200Y-92090241D01*
X138744824Y-92025176D01*
X138538267Y-91939617D01*
X138318988Y-91896000D01*
X138095412Y-91896000D01*
X137876133Y-91939617D01*
X137669576Y-92025176D01*
X137572200Y-92090241D01*
X137474824Y-92025176D01*
X137268267Y-91939617D01*
X137048988Y-91896000D01*
X136843910Y-91896000D01*
X136068370Y-91120461D01*
X136101299Y-91106821D01*
X136246904Y-91009531D01*
X136370731Y-90885704D01*
X136468021Y-90740099D01*
X136535036Y-90578312D01*
X136569200Y-90406559D01*
X136569200Y-90231441D01*
X136535036Y-90059688D01*
X136518400Y-90019526D01*
X136518400Y-90001000D01*
X138359128Y-90001000D01*
X138371388Y-90125482D01*
X138407698Y-90245180D01*
X138466663Y-90355494D01*
X138546015Y-90452185D01*
X138642706Y-90531537D01*
X138753020Y-90590502D01*
X138872718Y-90626812D01*
X138997200Y-90639072D01*
X139711450Y-90636000D01*
X139870200Y-90477250D01*
X139870200Y-89128000D01*
X138520950Y-89128000D01*
X138362200Y-89286750D01*
X138359128Y-90001000D01*
X136518400Y-90001000D01*
X136518400Y-88540193D01*
X137057593Y-88001000D01*
X138359128Y-88001000D01*
X138362200Y-88715250D01*
X138520950Y-88874000D01*
X139870200Y-88874000D01*
X139870200Y-87524750D01*
X139711450Y-87366000D01*
X138997200Y-87362928D01*
X138872718Y-87375188D01*
X138753020Y-87411498D01*
X138642706Y-87470463D01*
X138546015Y-87549815D01*
X138466663Y-87646506D01*
X138407698Y-87756820D01*
X138371388Y-87876518D01*
X138359128Y-88001000D01*
X137057593Y-88001000D01*
X138606918Y-86451676D01*
X138673945Y-86472008D01*
X138847199Y-86489072D01*
X139747201Y-86489072D01*
X139920455Y-86472008D01*
X140087051Y-86421472D01*
X140240587Y-86339405D01*
X140375162Y-86228962D01*
X140485605Y-86094387D01*
X140567672Y-85940851D01*
X140618208Y-85774255D01*
X140635272Y-85601001D01*
X140635272Y-84950999D01*
X140618208Y-84777745D01*
X140567672Y-84611149D01*
X140485605Y-84457613D01*
X140375162Y-84323038D01*
X140368606Y-84317658D01*
X140448385Y-84252185D01*
X140527737Y-84155494D01*
X140584128Y-84049996D01*
X140584128Y-84276000D01*
G36*
X132872718Y-90626812D02*
G01*
X132997200Y-90639072D01*
X133503563Y-90639072D01*
X134869177Y-92004686D01*
X134754064Y-91953554D01*
X134699074Y-91936881D01*
X134524200Y-92063046D01*
X134524200Y-92904000D01*
X134535226Y-92904000D01*
X134532200Y-92919212D01*
X134532200Y-93142788D01*
X134535226Y-93158000D01*
X134524200Y-93158000D01*
X134524200Y-93162928D01*
X134270200Y-93162928D01*
X134270200Y-93158000D01*
X133428071Y-93158000D01*
X133303074Y-93332876D01*
X133355118Y-93468106D01*
X133307698Y-93556820D01*
X133271388Y-93676518D01*
X133259128Y-93801000D01*
X133259128Y-94801000D01*
X133271388Y-94925482D01*
X133307698Y-95045180D01*
X133366663Y-95155494D01*
X133446015Y-95252185D01*
X133542706Y-95331537D01*
X133558539Y-95340000D01*
X132960000Y-95340000D01*
X132960000Y-92729124D01*
X133303074Y-92729124D01*
X133428071Y-92904000D01*
X134270200Y-92904000D01*
X134270200Y-92063046D01*
X134095326Y-91936881D01*
X134040336Y-91953554D01*
X133836994Y-92043877D01*
X133655180Y-92172135D01*
X133501882Y-92333399D01*
X133382990Y-92521471D01*
X133303074Y-92729124D01*
X132960000Y-92729124D01*
X132960000Y-91032348D01*
X132963192Y-90999875D01*
X132957235Y-90939505D01*
X132950450Y-90870617D01*
X132950431Y-90870554D01*
X132950425Y-90870495D01*
X132932374Y-90811031D01*
X132912710Y-90746207D01*
X132912680Y-90746150D01*
X132912662Y-90746092D01*
X132883602Y-90691750D01*
X132851425Y-90631550D01*
X132851382Y-90631498D01*
X132851355Y-90631447D01*
X132839203Y-90616645D01*
X132872718Y-90626812D01*
G37*
X132872718Y-90626812D02*
X132997200Y-90639072D01*
X133503563Y-90639072D01*
X134869177Y-92004686D01*
X134754064Y-91953554D01*
X134699074Y-91936881D01*
X134524200Y-92063046D01*
X134524200Y-92904000D01*
X134535226Y-92904000D01*
X134532200Y-92919212D01*
X134532200Y-93142788D01*
X134535226Y-93158000D01*
X134524200Y-93158000D01*
X134524200Y-93162928D01*
X134270200Y-93162928D01*
X134270200Y-93158000D01*
X133428071Y-93158000D01*
X133303074Y-93332876D01*
X133355118Y-93468106D01*
X133307698Y-93556820D01*
X133271388Y-93676518D01*
X133259128Y-93801000D01*
X133259128Y-94801000D01*
X133271388Y-94925482D01*
X133307698Y-95045180D01*
X133366663Y-95155494D01*
X133446015Y-95252185D01*
X133542706Y-95331537D01*
X133558539Y-95340000D01*
X132960000Y-95340000D01*
X132960000Y-92729124D01*
X133303074Y-92729124D01*
X133428071Y-92904000D01*
X134270200Y-92904000D01*
X134270200Y-92063046D01*
X134095326Y-91936881D01*
X134040336Y-91953554D01*
X133836994Y-92043877D01*
X133655180Y-92172135D01*
X133501882Y-92333399D01*
X133382990Y-92521471D01*
X133303074Y-92729124D01*
X132960000Y-92729124D01*
X132960000Y-91032348D01*
X132963192Y-90999875D01*
X132957235Y-90939505D01*
X132950450Y-90870617D01*
X132950431Y-90870554D01*
X132950425Y-90870495D01*
X132932374Y-90811031D01*
X132912710Y-90746207D01*
X132912680Y-90746150D01*
X132912662Y-90746092D01*
X132883602Y-90691750D01*
X132851425Y-90631550D01*
X132851382Y-90631498D01*
X132851355Y-90631447D01*
X132839203Y-90616645D01*
X132872718Y-90626812D01*
G36*
X128888948Y-87002858D02*
G01*
X128874805Y-87017000D01*
X129830613Y-87972808D01*
X130095014Y-87877044D01*
X130235904Y-87587429D01*
X130317584Y-87275892D01*
X130336918Y-86954405D01*
X130321119Y-86839200D01*
X135848607Y-86839200D01*
X135264142Y-87423665D01*
X135241380Y-87411498D01*
X135121682Y-87375188D01*
X134997200Y-87362928D01*
X132997200Y-87362928D01*
X132872718Y-87375188D01*
X132753020Y-87411498D01*
X132642706Y-87470463D01*
X132546015Y-87549815D01*
X132466663Y-87646506D01*
X132407698Y-87756820D01*
X132371388Y-87876518D01*
X132359128Y-88001000D01*
X132359128Y-90001000D01*
X132371388Y-90125482D01*
X132407698Y-90245180D01*
X132466663Y-90355494D01*
X132472525Y-90362637D01*
X132429383Y-90349550D01*
X132429318Y-90349544D01*
X132429260Y-90349526D01*
X132366049Y-90343312D01*
X132300000Y-90336807D01*
X132267518Y-90340006D01*
X127657200Y-90340876D01*
X127657200Y-88234608D01*
X127739393Y-88152415D01*
X127835156Y-88416814D01*
X128124771Y-88557704D01*
X128436308Y-88639384D01*
X128757795Y-88658718D01*
X129076875Y-88614961D01*
X129381288Y-88509795D01*
X129555244Y-88416814D01*
X129651008Y-88152413D01*
X128695200Y-87196605D01*
X128681058Y-87210748D01*
X128501453Y-87031143D01*
X128515595Y-87017000D01*
X128501453Y-87002858D01*
X128681058Y-86823253D01*
X128695200Y-86837395D01*
X128709343Y-86823253D01*
X128888948Y-87002858D01*
G37*
X128888948Y-87002858D02*
X128874805Y-87017000D01*
X129830613Y-87972808D01*
X130095014Y-87877044D01*
X130235904Y-87587429D01*
X130317584Y-87275892D01*
X130336918Y-86954405D01*
X130321119Y-86839200D01*
X135848607Y-86839200D01*
X135264142Y-87423665D01*
X135241380Y-87411498D01*
X135121682Y-87375188D01*
X134997200Y-87362928D01*
X132997200Y-87362928D01*
X132872718Y-87375188D01*
X132753020Y-87411498D01*
X132642706Y-87470463D01*
X132546015Y-87549815D01*
X132466663Y-87646506D01*
X132407698Y-87756820D01*
X132371388Y-87876518D01*
X132359128Y-88001000D01*
X132359128Y-90001000D01*
X132371388Y-90125482D01*
X132407698Y-90245180D01*
X132466663Y-90355494D01*
X132472525Y-90362637D01*
X132429383Y-90349550D01*
X132429318Y-90349544D01*
X132429260Y-90349526D01*
X132366049Y-90343312D01*
X132300000Y-90336807D01*
X132267518Y-90340006D01*
X127657200Y-90340876D01*
X127657200Y-88234608D01*
X127739393Y-88152415D01*
X127835156Y-88416814D01*
X128124771Y-88557704D01*
X128436308Y-88639384D01*
X128757795Y-88658718D01*
X129076875Y-88614961D01*
X129381288Y-88509795D01*
X129555244Y-88416814D01*
X129651008Y-88152413D01*
X128695200Y-87196605D01*
X128681058Y-87210748D01*
X128501453Y-87031143D01*
X128515595Y-87017000D01*
X128501453Y-87002858D01*
X128681058Y-86823253D01*
X128695200Y-86837395D01*
X128709343Y-86823253D01*
X128888948Y-87002858D01*
G36*
X131933200Y-83374000D02*
G01*
X136379200Y-83374000D01*
X136379200Y-83354000D01*
X136633200Y-83354000D01*
X136633200Y-83374000D01*
X136653200Y-83374000D01*
X136653200Y-83628000D01*
X136633200Y-83628000D01*
X136633200Y-83648000D01*
X136379200Y-83648000D01*
X136379200Y-83628000D01*
X131933200Y-83628000D01*
X131933200Y-83648000D01*
X131679200Y-83648000D01*
X131679200Y-83628000D01*
X131659200Y-83628000D01*
X131659200Y-83374000D01*
X131679200Y-83374000D01*
X131679200Y-83354000D01*
X131933200Y-83354000D01*
X131933200Y-83374000D01*
G37*
X131933200Y-83374000D02*
X136379200Y-83374000D01*
X136379200Y-83354000D01*
X136633200Y-83354000D01*
X136633200Y-83374000D01*
X136653200Y-83374000D01*
X136653200Y-83628000D01*
X136633200Y-83628000D01*
X136633200Y-83648000D01*
X136379200Y-83648000D01*
X136379200Y-83628000D01*
X131933200Y-83628000D01*
X131933200Y-83648000D01*
X131679200Y-83648000D01*
X131679200Y-83628000D01*
X131659200Y-83628000D01*
X131659200Y-83374000D01*
X131679200Y-83374000D01*
X131679200Y-83354000D01*
X131933200Y-83354000D01*
X131933200Y-83374000D01*
G36*
X139424200Y-83099000D02*
G01*
X139444200Y-83099000D01*
X139444200Y-83353000D01*
X139424200Y-83353000D01*
X139424200Y-83373000D01*
X139170200Y-83373000D01*
X139170200Y-83353000D01*
X139150200Y-83353000D01*
X139150200Y-83099000D01*
X139170200Y-83099000D01*
X139170200Y-83079000D01*
X139424200Y-83079000D01*
X139424200Y-83099000D01*
G37*
X139424200Y-83099000D02*
X139444200Y-83099000D01*
X139444200Y-83353000D01*
X139424200Y-83353000D01*
X139424200Y-83373000D01*
X139170200Y-83373000D01*
X139170200Y-83353000D01*
X139150200Y-83353000D01*
X139150200Y-83099000D01*
X139170200Y-83099000D01*
X139170200Y-83079000D01*
X139424200Y-83079000D01*
X139424200Y-83099000D01*
G36*
X142368347Y-81556000D02*
G01*
X142401637Y-81596564D01*
X142433613Y-81622806D01*
X143459128Y-82648322D01*
X143459128Y-82855814D01*
X143350162Y-82723038D01*
X143215586Y-82612595D01*
X143062050Y-82530528D01*
X142895454Y-82479992D01*
X142722200Y-82462928D01*
X142363902Y-82462928D01*
X142398012Y-82350482D01*
X142410272Y-82226000D01*
X142407200Y-82036750D01*
X142248450Y-81878000D01*
X141374200Y-81878000D01*
X141374200Y-81898000D01*
X141120200Y-81898000D01*
X141120200Y-81878000D01*
X141100200Y-81878000D01*
X141100200Y-81624000D01*
X141120200Y-81624000D01*
X141120200Y-81604000D01*
X141374200Y-81604000D01*
X141374200Y-81624000D01*
X142248450Y-81624000D01*
X142344954Y-81527496D01*
X142368347Y-81556000D01*
G37*
X142368347Y-81556000D02*
X142401637Y-81596564D01*
X142433613Y-81622806D01*
X143459128Y-82648322D01*
X143459128Y-82855814D01*
X143350162Y-82723038D01*
X143215586Y-82612595D01*
X143062050Y-82530528D01*
X142895454Y-82479992D01*
X142722200Y-82462928D01*
X142363902Y-82462928D01*
X142398012Y-82350482D01*
X142410272Y-82226000D01*
X142407200Y-82036750D01*
X142248450Y-81878000D01*
X141374200Y-81878000D01*
X141374200Y-81898000D01*
X141120200Y-81898000D01*
X141120200Y-81878000D01*
X141100200Y-81878000D01*
X141100200Y-81624000D01*
X141120200Y-81624000D01*
X141120200Y-81604000D01*
X141374200Y-81604000D01*
X141374200Y-81624000D01*
X142248450Y-81624000D01*
X142344954Y-81527496D01*
X142368347Y-81556000D01*
G36*
X144924200Y-79924000D02*
G01*
X144944200Y-79924000D01*
X144944200Y-80178000D01*
X144924200Y-80178000D01*
X144924200Y-80198000D01*
X144670200Y-80198000D01*
X144670200Y-80178000D01*
X144650200Y-80178000D01*
X144650200Y-79924000D01*
X144670200Y-79924000D01*
X144670200Y-79904000D01*
X144924200Y-79904000D01*
X144924200Y-79924000D01*
G37*
X144924200Y-79924000D02*
X144944200Y-79924000D01*
X144944200Y-80178000D01*
X144924200Y-80178000D01*
X144924200Y-80198000D01*
X144670200Y-80198000D01*
X144670200Y-80178000D01*
X144650200Y-80178000D01*
X144650200Y-79924000D01*
X144670200Y-79924000D01*
X144670200Y-79904000D01*
X144924200Y-79904000D01*
X144924200Y-79924000D01*
G36*
X138724200Y-79924000D02*
G01*
X138744200Y-79924000D01*
X138744200Y-80178000D01*
X138724200Y-80178000D01*
X138724200Y-80198000D01*
X138470200Y-80198000D01*
X138470200Y-80178000D01*
X138450200Y-80178000D01*
X138450200Y-79924000D01*
X138470200Y-79924000D01*
X138470200Y-79904000D01*
X138724200Y-79904000D01*
X138724200Y-79924000D01*
G37*
X138724200Y-79924000D02*
X138744200Y-79924000D01*
X138744200Y-80178000D01*
X138724200Y-80178000D01*
X138724200Y-80198000D01*
X138470200Y-80198000D01*
X138470200Y-80178000D01*
X138450200Y-80178000D01*
X138450200Y-79924000D01*
X138470200Y-79924000D01*
X138470200Y-79904000D01*
X138724200Y-79904000D01*
X138724200Y-79924000D01*
G36*
X144162200Y-77215250D02*
G01*
X144320950Y-77374000D01*
X145570200Y-77374000D01*
X145570200Y-77354000D01*
X145824200Y-77354000D01*
X145824200Y-77374000D01*
X145844200Y-77374000D01*
X145844200Y-77628000D01*
X145824200Y-77628000D01*
X145824200Y-77648000D01*
X145570200Y-77648000D01*
X145570200Y-77628000D01*
X144320950Y-77628000D01*
X144162200Y-77786750D01*
X144159128Y-78451000D01*
X144171388Y-78575482D01*
X144183279Y-78614681D01*
X143747200Y-78612928D01*
X143622718Y-78625188D01*
X143503020Y-78661498D01*
X143392706Y-78720463D01*
X143296015Y-78799815D01*
X143240703Y-78867213D01*
X143197200Y-78862928D01*
X142797200Y-78862928D01*
X142672718Y-78875188D01*
X142672200Y-78875345D01*
X142671682Y-78875188D01*
X142547200Y-78862928D01*
X142147200Y-78862928D01*
X142022718Y-78875188D01*
X142022200Y-78875345D01*
X142021682Y-78875188D01*
X141897200Y-78862928D01*
X141497200Y-78862928D01*
X141372718Y-78875188D01*
X141372200Y-78875345D01*
X141371682Y-78875188D01*
X141247200Y-78862928D01*
X140847200Y-78862928D01*
X140722718Y-78875188D01*
X140659540Y-78894353D01*
X140628950Y-78891000D01*
X140610817Y-78909133D01*
X140603020Y-78911498D01*
X140492706Y-78970463D01*
X140396015Y-79049815D01*
X140324200Y-79137322D01*
X140324200Y-79049750D01*
X140185524Y-78911074D01*
X140177737Y-78896506D01*
X140098385Y-78799815D01*
X140001694Y-78720463D01*
X139891380Y-78661498D01*
X139771682Y-78625188D01*
X139647200Y-78612928D01*
X139211121Y-78614681D01*
X139223012Y-78575482D01*
X139235272Y-78451000D01*
X139232200Y-77786750D01*
X139073450Y-77628000D01*
X137824200Y-77628000D01*
X137824200Y-77648000D01*
X137570200Y-77648000D01*
X137570200Y-77628000D01*
X137550200Y-77628000D01*
X137550200Y-77374000D01*
X137570200Y-77374000D01*
X137570200Y-77354000D01*
X137824200Y-77354000D01*
X137824200Y-77374000D01*
X139073450Y-77374000D01*
X139232200Y-77215250D01*
X139234766Y-76660388D01*
X144159633Y-76660142D01*
X144162200Y-77215250D01*
G37*
X144162200Y-77215250D02*
X144320950Y-77374000D01*
X145570200Y-77374000D01*
X145570200Y-77354000D01*
X145824200Y-77354000D01*
X145824200Y-77374000D01*
X145844200Y-77374000D01*
X145844200Y-77628000D01*
X145824200Y-77628000D01*
X145824200Y-77648000D01*
X145570200Y-77648000D01*
X145570200Y-77628000D01*
X144320950Y-77628000D01*
X144162200Y-77786750D01*
X144159128Y-78451000D01*
X144171388Y-78575482D01*
X144183279Y-78614681D01*
X143747200Y-78612928D01*
X143622718Y-78625188D01*
X143503020Y-78661498D01*
X143392706Y-78720463D01*
X143296015Y-78799815D01*
X143240703Y-78867213D01*
X143197200Y-78862928D01*
X142797200Y-78862928D01*
X142672718Y-78875188D01*
X142672200Y-78875345D01*
X142671682Y-78875188D01*
X142547200Y-78862928D01*
X142147200Y-78862928D01*
X142022718Y-78875188D01*
X142022200Y-78875345D01*
X142021682Y-78875188D01*
X141897200Y-78862928D01*
X141497200Y-78862928D01*
X141372718Y-78875188D01*
X141372200Y-78875345D01*
X141371682Y-78875188D01*
X141247200Y-78862928D01*
X140847200Y-78862928D01*
X140722718Y-78875188D01*
X140659540Y-78894353D01*
X140628950Y-78891000D01*
X140610817Y-78909133D01*
X140603020Y-78911498D01*
X140492706Y-78970463D01*
X140396015Y-79049815D01*
X140324200Y-79137322D01*
X140324200Y-79049750D01*
X140185524Y-78911074D01*
X140177737Y-78896506D01*
X140098385Y-78799815D01*
X140001694Y-78720463D01*
X139891380Y-78661498D01*
X139771682Y-78625188D01*
X139647200Y-78612928D01*
X139211121Y-78614681D01*
X139223012Y-78575482D01*
X139235272Y-78451000D01*
X139232200Y-77786750D01*
X139073450Y-77628000D01*
X137824200Y-77628000D01*
X137824200Y-77648000D01*
X137570200Y-77648000D01*
X137570200Y-77628000D01*
X137550200Y-77628000D01*
X137550200Y-77374000D01*
X137570200Y-77374000D01*
X137570200Y-77354000D01*
X137824200Y-77354000D01*
X137824200Y-77374000D01*
X139073450Y-77374000D01*
X139232200Y-77215250D01*
X139234766Y-76660388D01*
X144159633Y-76660142D01*
X144162200Y-77215250D01*
G36*
X129584200Y-77238000D02*
G01*
X129595226Y-77238000D01*
X129592200Y-77253212D01*
X129592200Y-77476788D01*
X129595226Y-77492000D01*
X129584200Y-77492000D01*
X129584200Y-77503026D01*
X129568988Y-77500000D01*
X129345412Y-77500000D01*
X129330200Y-77503026D01*
X129330200Y-77492000D01*
X129319174Y-77492000D01*
X129322200Y-77476788D01*
X129322200Y-77253212D01*
X129319174Y-77238000D01*
X129330200Y-77238000D01*
X129330200Y-77218000D01*
X129584200Y-77218000D01*
X129584200Y-77238000D01*
G37*
X129584200Y-77238000D02*
X129595226Y-77238000D01*
X129592200Y-77253212D01*
X129592200Y-77476788D01*
X129595226Y-77492000D01*
X129584200Y-77492000D01*
X129584200Y-77503026D01*
X129568988Y-77500000D01*
X129345412Y-77500000D01*
X129330200Y-77503026D01*
X129330200Y-77492000D01*
X129319174Y-77492000D01*
X129322200Y-77476788D01*
X129322200Y-77253212D01*
X129319174Y-77238000D01*
X129330200Y-77238000D01*
X129330200Y-77218000D01*
X129584200Y-77218000D01*
X129584200Y-77238000D01*
G36*
X132124200Y-77238000D02*
G01*
X133140200Y-77238000D01*
X133140200Y-77218000D01*
X133394200Y-77218000D01*
X133394200Y-77238000D01*
X133405226Y-77238000D01*
X133402200Y-77253212D01*
X133402200Y-77476788D01*
X133405226Y-77492000D01*
X133394200Y-77492000D01*
X133394200Y-77503026D01*
X133378988Y-77500000D01*
X133155412Y-77500000D01*
X133140200Y-77503026D01*
X133140200Y-77492000D01*
X132124200Y-77492000D01*
X132124200Y-77503026D01*
X132108988Y-77500000D01*
X131885412Y-77500000D01*
X131870200Y-77503026D01*
X131870200Y-77492000D01*
X131859174Y-77492000D01*
X131862200Y-77476788D01*
X131862200Y-77253212D01*
X131859174Y-77238000D01*
X131870200Y-77238000D01*
X131870200Y-77218000D01*
X132124200Y-77218000D01*
X132124200Y-77238000D01*
G37*
X132124200Y-77238000D02*
X133140200Y-77238000D01*
X133140200Y-77218000D01*
X133394200Y-77218000D01*
X133394200Y-77238000D01*
X133405226Y-77238000D01*
X133402200Y-77253212D01*
X133402200Y-77476788D01*
X133405226Y-77492000D01*
X133394200Y-77492000D01*
X133394200Y-77503026D01*
X133378988Y-77500000D01*
X133155412Y-77500000D01*
X133140200Y-77503026D01*
X133140200Y-77492000D01*
X132124200Y-77492000D01*
X132124200Y-77503026D01*
X132108988Y-77500000D01*
X131885412Y-77500000D01*
X131870200Y-77503026D01*
X131870200Y-77492000D01*
X131859174Y-77492000D01*
X131862200Y-77476788D01*
X131862200Y-77253212D01*
X131859174Y-77238000D01*
X131870200Y-77238000D01*
X131870200Y-77218000D01*
X132124200Y-77218000D01*
X132124200Y-77238000D01*
M02*
