M48
; DRILL file {KiCad (5.1.5-0-10_14)} date 2021 March 21, Sunday 20:32:36
; FORMAT={-:-/ absolute / metric / decimal}
; #@! TF.CreationDate,2021-03-21T20:32:36+09:00
; #@! TF.GenerationSoftware,Kicad,Pcbnew,(5.1.5-0-10_14)
FMAT,2
METRIC
T1C0.305
T2C0.650
T3C0.700
T4C1.000
%
G90
G05
T1
X-0.6Y-16.6
X0.0Y-2.0
X0.0Y-18.3
X0.8Y-16.6
T2
X-3.81Y-8.6
X-3.81Y-9.87
X-2.54Y-8.6
X-2.54Y-9.87
X-1.27Y-8.6
X-1.27Y-9.87
X0.0Y-8.6
X0.0Y-9.87
X1.27Y-8.6
X1.27Y-9.87
X2.54Y-8.6
X2.54Y-9.87
X3.81Y-8.6
X3.81Y-9.87
T3
X-2.54Y-28.55
X-1.27Y-28.55
X0.0Y-28.55
X1.27Y-28.55
X2.54Y-28.55
X-2.54Y-27.28
X-1.27Y-27.28
X0.0Y-27.28
X1.27Y-27.28
X2.54Y-27.28
T4
X-6.96Y-17.03
X-6.96Y-14.49
X-6.96Y-19.57
T0
M30
